<?xml version="1.0" encoding="utf-8"?>
<!-- Generator: Adobe Illustrator 15.1.0, SVG Export Plug-In . SVG Version: 6.00 Build 0)  -->
<!DOCTYPE svg PUBLIC "-//W3C//DTD SVG 1.1//EN" "http://www.w3.org/Graphics/SVG/1.1/DTD/svg11.dtd">
<svg version="1.1" id="Layer_1" xmlns="http://www.w3.org/2000/svg" xmlns:xlink="http://www.w3.org/1999/xlink" x="0px" y="0px"
	 width="446px" height="446px" viewBox="0 0 446 446" enable-background="new 0 0 446 446" xml:space="preserve">
<path fill="#00267F" d="M223,446c123.159,0,223-99.841,223-223C446,99.84,346.159,0,223,0C99.84,0,0,99.84,0,223
	C0,346.159,99.84,446,223,446"/>
<g>
	<path fill="#FFFFFF" d="M113.052,200.572c1.692,1.044,3.527,1.404,5.543,1.404c2.735,0,4.895-1.188,4.895-4.355
		c0-2.52-1.908-3.708-4.139-4.86l-1.944-1.043c-2.304-1.26-4.14-2.736-4.14-5.903c0-4.355,3.852-6.228,7.739-6.228
		c1.692,0,3.167,0.252,4.644,0.864l-0.324,2.556c-1.296-0.72-2.808-1.044-4.283-1.044c-2.52,0-4.86,0.864-4.86,3.744
		c0,1.979,1.44,3.095,3.348,4.104l1.944,1.043c2.7,1.44,4.967,2.916,4.967,6.587c0,4.5-3.708,6.911-7.811,6.911
		c-2.052,0-4.067-0.288-5.903-1.116L113.052,200.572z"/>
	<path fill="#FFFFFF" d="M143.362,203.667c-1.548,0.54-3.06,0.684-4.644,0.684c-5.507,0-8.567-4.211-8.567-9.431
		c0-5.328,3.348-9.251,8.819-9.251c1.476,0,2.988,0.288,4.392,0.756l-0.216,2.34c-1.152-0.54-2.447-0.9-3.743-0.9
		c-4.32,0-6.443,3.023-6.443,7.055c0,3.779,2.124,7.235,6.263,7.235c1.404,0,2.7-0.288,3.959-0.828L143.362,203.667z"/>
	<path fill="#FFFFFF" d="M147.359,203.956v-25.953h2.628v11.05c1.152-2.268,2.988-3.383,5.543-3.383
		c4.391,0,5.975,3.023,5.975,7.163v11.123h-2.592v-10.655c0-2.844-0.576-5.399-4.031-5.399c-3.708,0-4.896,3.204-4.896,6.372v9.683
		H147.359z"/>
	<path fill="#FFFFFF" d="M170.47,203.956l-5.688-17.926h2.808l4.572,15.478l4.643-15.478h3.132l4.644,15.478l4.535-15.478h2.52
		l-5.58,17.926h-3.204l-4.571-15.442l-4.644,15.442H170.47z"/>
	<path fill="#FFFFFF" d="M196.462,195.317c0,3.455,1.836,6.911,6.335,6.911c1.728,0,3.599-0.504,4.931-1.368l0.108,2.34
		c-1.548,0.756-3.348,1.152-5.039,1.152c-6.191,0-9.071-4.067-9.071-9.431c0-4.572,2.628-9.251,7.991-9.251
		c5.579,0,7.163,4.463,7.163,9.215v0.432H196.462z M206.325,193.373c-0.18-2.448-1.08-5.615-4.571-5.615
		c-3.42,0-5.184,3.06-5.292,5.615H206.325z"/>
	<path fill="#FFFFFF" d="M212.734,203.956v-13.714c0-1.404-0.036-2.808-0.18-4.211h2.412l0.144,3.384
		c0.684-1.836,2.556-3.744,4.751-3.744c0.54,0,0.972,0,1.512,0.144l-0.144,2.627c-0.468-0.144-0.972-0.216-1.44-0.216
		c-3.635,0-4.427,4.031-4.427,6.839v8.891H212.734z"/>
	<path fill="#FFFFFF" d="M224.722,211.73v-19.689c0-2.124-0.071-3.996-0.18-6.011h2.483l0.145,3.132
		c0.972-2.124,3.311-3.492,5.688-3.492c5.471,0,7.271,4.5,7.271,9.251c0,4.607-1.98,9.431-7.309,9.431
		c-2.34,0-4.57-1.188-5.471-3.312v10.69H224.722z M232.316,202.12c3.996,0,4.969-3.923,4.969-7.199c0-3.312-0.9-7.02-4.969-7.02
		c-3.743,0-5.074,3.852-5.074,7.02c0,1.583,0.323,3.347,1.079,4.787C229.149,201.112,230.409,202.12,232.316,202.12z"/>
	<path fill="#FFFFFF" d="M247.006,196.648c0,2.844,0.539,5.436,3.959,5.436c3.744,0,4.895-3.24,4.895-6.407v-9.647h2.592v13.714
		c0,1.404,0.037,2.808,0.18,4.211h-2.41l-0.072-3.096c-1.26,2.304-3.168,3.492-5.795,3.492c-4.572,0-5.977-3.06-5.977-7.235V186.03
		h2.629V196.648z"/>
	<path fill="#FFFFFF" d="M263.891,203.956v-13.714c0-1.404-0.037-2.808-0.182-4.211h2.412l0.109,3.096
		c1.26-2.304,3.203-3.456,5.795-3.456c4.607,0,6.01,3.023,6.01,7.163v11.123h-2.59v-10.619c0-2.844-0.576-5.436-4.033-5.436
		c-3.742,0-4.895,3.24-4.895,6.407v9.647H263.891z"/>
	<path fill="#FFFFFF" d="M283.473,203.956v-25.953h2.627v15.442l7.596-7.415h3.275l-8.242,7.919l9.215,10.007h-3.455l-8.389-9.359
		v9.359H283.473z"/>
	<path fill="#FFFFFF" d="M309.318,203.812c-0.9,0.396-1.943,0.54-2.916,0.54c-3.67,0-4.139-2.664-4.139-5.939v-10.331h-3.383v-2.052
		h3.383v-4.031l2.592-0.9v4.931h4.066v2.052h-4.066v11.015c0,1.584,0.432,2.988,2.303,2.988c0.721,0,1.332-0.18,2.016-0.468
		L309.318,203.812z"/>
	<path fill="#FFFFFF" d="M314.469,195.317c0,3.455,1.834,6.911,6.334,6.911c1.729,0,3.6-0.504,4.932-1.368l0.107,2.34
		c-1.547,0.756-3.348,1.152-5.039,1.152c-6.191,0-9.07-4.067-9.07-9.431c0-4.572,2.627-9.251,7.99-9.251
		c5.58,0,7.164,4.463,7.164,9.215v0.432H314.469z M324.33,193.373c-0.18-2.448-1.08-5.615-4.57-5.615
		c-3.42,0-5.184,3.06-5.291,5.615H324.33z"/>
	<path fill="#FFFFFF" d="M331.459,189.233v-3.204h3.096v3.204H331.459z M331.459,203.956v-3.204h3.096v3.204H331.459z"/>
	<path fill="#FFFFFF" d="M114.06,251.955v-24.008h6.263c7.667,0,12.418,3.852,12.418,11.662c0,8.494-5.795,12.346-13.75,12.346
		H114.06z M116.903,249.615h2.016c6.767,0,10.834-2.986,10.834-10.006c0-6.047-3.456-9.323-9.539-9.323h-3.312V249.615z"/>
	<path fill="#FFFFFF" d="M138.827,243.316c0,3.455,1.836,6.912,6.335,6.912c1.728,0,3.599-0.504,4.931-1.369l0.108,2.34
		c-1.548,0.756-3.348,1.152-5.039,1.152c-6.191,0-9.071-4.068-9.071-9.432c0-4.57,2.628-9.25,7.991-9.25
		c5.579,0,7.163,4.463,7.163,9.215v0.432H138.827z M148.69,241.373c-0.18-2.447-1.08-5.615-4.571-5.615
		c-3.42,0-5.184,3.06-5.292,5.615H148.69z"/>
	<path fill="#FFFFFF" d="M155.099,259.73v-19.689c0-2.123-0.072-3.996-0.18-6.012h2.483l0.144,3.133
		c0.972-2.125,3.312-3.492,5.688-3.492c5.471,0,7.271,4.5,7.271,9.25c0,4.607-1.979,9.432-7.307,9.432
		c-2.34,0-4.571-1.188-5.471-3.312v10.691H155.099z M162.694,250.119c3.996,0,4.967-3.924,4.967-7.199
		c0-3.311-0.9-7.019-4.967-7.019c-3.744,0-5.075,3.852-5.075,7.019c0,1.584,0.324,3.348,1.08,4.789
		C159.526,249.111,160.786,250.119,162.694,250.119z"/>
	<path fill="#FFFFFF" d="M174.827,251.955v-13.714c0-1.403-0.036-2.808-0.18-4.212h2.412l0.144,3.385
		c0.684-1.836,2.556-3.744,4.751-3.744c0.54,0,0.972,0,1.512,0.145l-0.144,2.627c-0.468-0.145-0.972-0.216-1.44-0.216
		c-3.635,0-4.427,4.031-4.427,6.839v8.891H174.827z"/>
	<path fill="#FFFFFF" d="M187.967,243.316c0,3.455,1.836,6.912,6.335,6.912c1.728,0,3.599-0.504,4.931-1.369l0.108,2.34
		c-1.548,0.756-3.348,1.152-5.039,1.152c-6.191,0-9.071-4.068-9.071-9.432c0-4.57,2.628-9.25,7.991-9.25
		c5.579,0,7.163,4.463,7.163,9.215v0.432H187.967z M197.83,241.373c-0.18-2.447-1.08-5.615-4.571-5.615
		c-3.42,0-5.184,3.06-5.292,5.615H197.83z"/>
	<path fill="#FFFFFF" d="M203.447,249.076c1.439,0.756,2.771,1.115,4.391,1.115c2.016,0,3.42-0.971,3.42-2.986
		c0-4.355-7.739-3.096-7.739-8.568c0-3.6,2.988-4.967,5.795-4.967c1.476,0,2.808,0.288,4.067,0.756l-0.36,2.268
		c-1.116-0.54-2.412-0.9-3.671-0.9c-1.404,0-3.204,0.541-3.204,2.7c0,3.6,7.811,2.483,7.811,8.495c0,3.455-2.916,5.363-6.083,5.363
		c-1.728,0-3.312-0.217-4.751-0.828L203.447,249.076z"/>
	<path fill="#FFFFFF" d="M217.631,249.076c1.439,0.756,2.771,1.115,4.391,1.115c2.016,0,3.419-0.971,3.419-2.986
		c0-4.355-7.739-3.096-7.739-8.568c0-3.6,2.988-4.967,5.795-4.967c1.476,0,2.808,0.288,4.067,0.756l-0.36,2.268
		c-1.115-0.54-2.411-0.9-3.671-0.9c-1.404,0-3.204,0.541-3.204,2.7c0,3.6,7.811,2.483,7.811,8.495c0,3.455-2.916,5.363-6.083,5.363
		c-1.728,0-3.312-0.217-4.751-0.828L217.631,249.076z"/>
	<path fill="#FFFFFF" d="M232.605,230.034v-3.132h2.629v3.132H232.605z M232.605,251.955v-17.926h2.629v17.926H232.605z"/>
	<path fill="#FFFFFF" d="M239.555,242.92c0-5.146,3.059-9.25,8.387-9.25c5.615,0,8.387,3.959,8.387,9.25
		c0,5.184-2.844,9.432-8.387,9.432c-1.404,0-2.629-0.252-3.672-0.721C241.139,250.119,239.555,246.844,239.555,242.92z
		 M247.941,250.156c3.924,0,5.578-3.779,5.578-7.236c0-3.599-1.547-7.055-5.578-7.055c-3.959,0-5.58,3.6-5.58,7.055
		c0,1.729,0.396,3.529,1.297,4.932C244.557,249.184,245.961,250.156,247.941,250.156z"/>
	<path fill="#FFFFFF" d="M260.65,251.955v-13.714c0-1.403-0.037-2.808-0.182-4.212h2.412l0.109,3.096
		c1.26-2.303,3.203-3.455,5.795-3.455c4.607,0,6.01,3.023,6.01,7.163v11.122h-2.59v-10.618c0-2.844-0.576-5.436-4.033-5.436
		c-3.742,0-4.895,3.239-4.895,6.407v9.646H260.65z"/>
	<path fill="#FFFFFF" d="M278.973,256.562l2.088-7.811h3.023l-2.988,7.811H278.973z"/>
	<path fill="#FFFFFF" d="M297.621,251.955l9.574-24.008h3.348l9.611,24.008h-2.951l-2.484-6.516h-11.77l-2.557,6.516H297.621z
		 M303.775,243.137h10.08l-5.004-12.887L303.775,243.137z"/>
	<path fill="#FFFFFF" d="M323.107,251.955v-13.714c0-1.403-0.035-2.808-0.18-4.212h2.412l0.107,3.096
		c1.26-2.303,3.203-3.455,5.795-3.455c4.607,0,6.012,3.023,6.012,7.163v11.122h-2.592v-10.618c0-2.844-0.576-5.436-4.031-5.436
		c-3.744,0-4.896,3.239-4.896,6.407v9.646H323.107z"/>
	<path fill="#FFFFFF" d="M343.266,256.635c1.584,0.828,3.348,1.297,5.184,1.297c4.32,0,5.939-2.953,5.939-6.84v-2.305
		c-1.115,2.016-3.275,3.168-5.543,3.168c-5.328,0-7.234-4.607-7.234-9.035c0-4.75,2.016-9.25,7.307-9.25
		c2.555,0,4.463,1.08,5.615,3.383v-3.023h2.484v17.027c0,5.578-2.52,9.07-8.387,9.07c-1.873,0-3.744-0.361-5.58-0.936
		L343.266,256.635z M349.387,249.725c3.852,0,5.074-3.744,5.074-6.768c0-3.132-1.332-7.056-5.039-7.056
		c-4.031,0-5.004,3.743-5.004,7.056c0,1.547,0.252,3.238,0.973,4.535C346.146,248.787,347.369,249.725,349.387,249.725z"/>
	<path fill="#FFFFFF" d="M361.627,249.076c1.439,0.756,2.771,1.115,4.393,1.115c2.016,0,3.418-0.971,3.418-2.986
		c0-4.355-7.738-3.096-7.738-8.568c0-3.6,2.988-4.967,5.795-4.967c1.477,0,2.809,0.288,4.068,0.756l-0.361,2.268
		c-1.115-0.54-2.41-0.9-3.67-0.9c-1.404,0-3.205,0.541-3.205,2.7c0,3.6,7.812,2.483,7.812,8.495c0,3.455-2.916,5.363-6.084,5.363
		c-1.729,0-3.312-0.217-4.752-0.828L361.627,249.076z"/>
	<path fill="#FFFFFF" d="M385.025,251.812c-0.9,0.395-1.943,0.539-2.916,0.539c-3.67,0-4.139-2.664-4.139-5.939v-10.33h-3.383
		v-2.053h3.383v-4.031l2.592-0.899v4.931h4.066v2.053h-4.066v11.014c0,1.584,0.432,2.988,2.303,2.988
		c0.721,0,1.332-0.18,2.016-0.469L385.025,251.812z"/>
	<path fill="#FFFFFF" d="M116.183,292.648c0,2.844,0.54,5.436,3.96,5.436c3.743,0,4.895-3.24,4.895-6.408v-9.646h2.592v13.715
		c0,1.404,0.036,2.807,0.18,4.211h-2.412l-0.072-3.096c-1.26,2.305-3.167,3.492-5.795,3.492c-4.571,0-5.975-3.061-5.975-7.234
		v-11.088h2.627V292.648z"/>
	<path fill="#FFFFFF" d="M133.067,299.955v-13.713c0-1.404-0.036-2.809-0.18-4.213h2.412l0.108,3.096
		c1.26-2.303,3.204-3.455,5.795-3.455c4.607,0,6.011,3.023,6.011,7.162v11.123h-2.592v-10.619c0-2.842-0.576-5.434-4.031-5.434
		c-3.744,0-4.896,3.238-4.896,6.406v9.646H133.067z"/>
	<path fill="#FFFFFF" d="M164.709,299.955l-0.216-2.986c-1.152,2.303-3.132,3.383-5.615,3.383c-5.328,0-7.307-4.824-7.307-9.432
		c0-4.75,2.016-9.25,7.379-9.25c2.268,0,4.5,1.26,5.399,3.383v-11.051h2.628v20.266c0,1.98,0.072,3.816,0.18,5.688H164.709z
		 M159.382,298.119c3.815,0,5.04-4.031,5.04-7.162c0-3.133-1.332-7.055-5.076-7.055c-4.067,0-4.967,3.742-4.967,7.055
		c0,1.619,0.252,3.42,1.008,4.822C156.142,297.111,157.366,298.119,159.382,298.119z"/>
	<path fill="#FFFFFF" d="M180.623,299.955v-2.375l12.526-19.258h-12.095v-2.375h15.19v2.375l-12.418,19.258h12.706v2.375H180.623z"
		/>
	<path fill="#FFFFFF" d="M203.806,299.955l-5.688-17.926h2.808l4.572,15.479l4.643-15.479h3.132l4.644,15.479l4.535-15.479h2.52
		l-5.579,17.926h-3.204l-4.571-15.441l-4.644,15.441H203.806z"/>
	<path fill="#FFFFFF" d="M238.365,299.955l-0.109-2.879c-1.043,2.303-3.311,3.275-5.578,3.275c-3.203,0-5.867-1.691-5.867-5.328
		c0-4.607,4.031-5.975,9.287-5.975h2.016v-0.863c0-2.736-1.045-4.428-4.031-4.428c-1.836,0-3.528,0.504-5.076,1.512l-0.216-2.34
		c1.548-0.756,3.708-1.26,5.399-1.26c4.5,0,6.516,2.195,6.516,6.695v7.775c0,1.332,0.035,2.555,0.215,3.814H238.365z
		 M236.781,290.957c-3.348,0-7.271,0.359-7.271,3.959c0,2.412,1.691,3.312,3.455,3.312c3.816,0,5.148-2.881,5.148-6.191v-1.08
		H236.781z"/>
	<path fill="#FFFFFF" d="M246.143,299.955v-13.713c0-1.404-0.037-2.809-0.182-4.213h2.412l0.109,3.096
		c1.26-2.303,3.203-3.455,5.795-3.455c4.607,0,6.01,3.023,6.01,7.162v11.123h-2.59v-10.619c0-2.842-0.576-5.434-4.033-5.434
		c-3.742,0-4.895,3.238-4.895,6.406v9.646H246.143z"/>
	<path fill="#FFFFFF" d="M266.301,304.635c1.584,0.828,3.348,1.297,5.184,1.297c4.32,0,5.939-2.953,5.939-6.84v-2.305
		c-1.115,2.016-3.275,3.168-5.543,3.168c-5.328,0-7.234-4.607-7.234-9.035c0-4.75,2.016-9.25,7.307-9.25
		c2.555,0,4.463,1.08,5.615,3.383v-3.023h2.484v17.027c0,5.578-2.52,9.07-8.387,9.07c-1.873,0-3.744-0.361-5.58-0.936
		L266.301,304.635z M272.422,297.725c3.852,0,5.074-3.744,5.074-6.768c0-3.133-1.332-7.055-5.039-7.055
		c-4.031,0-5.004,3.742-5.004,7.055c0,1.547,0.252,3.238,0.973,4.535C269.182,296.787,270.404,297.725,272.422,297.725z"/>
</g>
</svg>
