<?xml version="1.0" encoding="utf-8"?>
<!-- Generator: Adobe Illustrator 15.1.0, SVG Export Plug-In . SVG Version: 6.00 Build 0)  -->
<!DOCTYPE svg PUBLIC "-//W3C//DTD SVG 1.1//EN" "http://www.w3.org/Graphics/SVG/1.1/DTD/svg11.dtd">
<svg version="1.1" id="Layer_1" xmlns="http://www.w3.org/2000/svg" xmlns:xlink="http://www.w3.org/1999/xlink" x="0px" y="0px"
	 width="296px" height="296px" viewBox="0 0 296 296" enable-background="new 0 0 296 296" xml:space="preserve">
<path fill="#005EB8" d="M148,296c81.738,0,148-66.262,148-148C296,66.262,229.738,0,148,0C66.262,0,0,66.262,0,148
	C0,229.738,66.262,296,148,296"/>
<g>
	<path fill="#FFFFFF" d="M82.353,118.56h-2.088l-5.977-16.009h2.016l5.041,14.185l5.112-14.185h1.896L82.353,118.56z"/>
	<path fill="#FFFFFF" d="M90.249,103.942v-2.088h1.752v2.088H90.249z M90.249,118.56v-11.953h1.752v11.953H90.249z"/>
	<path fill="#FFFFFF" d="M96.584,113.063c0,2.328,1.32,4.344,3.84,4.344c1.032,0,2.496-0.312,3.384-0.84l0.144,1.632
		c-1.104,0.433-2.497,0.624-3.697,0.624c-3.864,0-5.496-2.712-5.496-6.288c0-3.072,1.872-6.168,5.088-6.168
		c3.384,0,4.729,2.784,4.729,5.977v0.72H96.584z M99.873,107.759c-2.184,0-3.288,2.376-3.288,4.008h6.216
		C102.801,109.919,102.057,107.759,99.873,107.759z"/>
	<path fill="#FFFFFF" d="M112.929,108.215c-0.312-0.096-0.648-0.144-0.96-0.144c-2.448,0-2.952,2.688-2.952,4.56v5.929h-1.752
		v-9.145c0-0.936-0.024-1.872-0.12-2.808h1.608l0.096,2.256c0.48-1.224,1.68-2.496,3.168-2.496c0.336,0,0.672,0,1.008,0.096
		L112.929,108.215z"/>
	<path fill="#FFFFFF" d="M136.881,118.56V104.11l-5.665,14.449h-1.848l-5.665-14.449v14.449h-1.776V102.55h2.928l5.497,13.897
		l5.449-13.897h2.928v16.009H136.881z"/>
	<path fill="#FFFFFF" d="M142.496,103.942v-2.088h1.752v2.088H142.496z M142.496,118.56v-11.953h1.752v11.953H142.496z"/>
	<path fill="#FFFFFF" d="M147.727,118.56v-17.306h1.752v17.306H147.727z"/>
	<path fill="#FFFFFF" d="M152.959,118.56v-17.306h1.752v17.306H152.959z"/>
	<path fill="#FFFFFF" d="M158.189,103.942v-2.088h1.753v2.088H158.189z M158.189,118.56v-11.953h1.753v11.953H158.189z"/>
	<path fill="#FFFFFF" d="M168.294,118.823c-3.72,0-5.593-2.832-5.593-6.288c0-3.433,2.064-6.168,5.593-6.168
		c3.745,0,5.593,2.64,5.593,6.168C173.887,115.991,171.99,118.823,168.294,118.823z M168.294,107.831c-2.64,0-3.72,2.4-3.72,4.705
		s1.08,4.824,3.72,4.824s3.72-2.496,3.72-4.824C172.014,110.159,171.006,107.831,168.294,107.831z"/>
	<path fill="#FFFFFF" d="M184.35,118.56v-7.081c0-1.896-0.408-3.625-2.688-3.625c-2.496,0-3.265,2.136-3.265,4.272v6.433h-1.753
		v-9.145c0-0.936-0.023-1.872-0.119-2.808h1.607l0.072,2.064c0.84-1.512,2.112-2.304,3.865-2.304c3.048,0,4.008,2.016,4.008,4.776
		v7.417H184.35z"/>
	<path fill="#FFFFFF" d="M190.686,113.063c0,2.328,1.319,4.344,3.84,4.344c1.031,0,2.496-0.312,3.385-0.84l0.144,1.632
		c-1.104,0.433-2.497,0.624-3.696,0.624c-3.865,0-5.496-2.712-5.496-6.288c0-3.072,1.871-6.168,5.088-6.168
		c3.385,0,4.729,2.784,4.729,5.977v0.72H190.686z M193.973,107.759c-2.184,0-3.287,2.376-3.287,4.008h6.216
		C196.901,109.919,196.157,107.759,193.973,107.759z"/>
	<path fill="#FFFFFF" d="M209.07,118.56v-7.081c0-1.896-0.408-3.625-2.689-3.625c-2.496,0-3.264,2.136-3.264,4.272v6.433h-1.752
		v-9.145c0-0.936-0.024-1.872-0.12-2.808h1.608l0.072,2.064c0.84-1.512,2.111-2.304,3.863-2.304c3.049,0,4.009,2.016,4.009,4.776
		v7.417H209.07z"/>
	<path fill="#FFFFFF" d="M91.138,154.56V140.11l-5.665,14.449h-1.848l-5.665-14.449v14.449h-1.776v-16.01h2.928l5.497,13.897
		l5.449-13.897h2.928v16.01H91.138z"/>
	<path fill="#FFFFFF" d="M97.857,149.063c0,2.328,1.32,4.344,3.84,4.344c1.032,0,2.496-0.312,3.384-0.84l0.144,1.632
		c-1.104,0.433-2.497,0.624-3.697,0.624c-3.864,0-5.496-2.712-5.496-6.288c0-3.072,1.872-6.169,5.088-6.169
		c3.384,0,4.729,2.784,4.729,5.977v0.721H97.857z M101.145,143.759c-2.184,0-3.288,2.376-3.288,4.008h6.216
		C104.073,145.919,103.329,143.759,101.145,143.759z"/>
	<path fill="#FFFFFF" d="M116.242,154.56v-7.081c0-1.896-0.408-3.624-2.688-3.624c-2.496,0-3.264,2.137-3.264,4.272v6.433h-1.752
		v-9.145c0-0.937-0.024-1.872-0.12-2.809h1.608l0.072,2.064c0.84-1.513,2.112-2.305,3.864-2.305c3.048,0,4.008,2.017,4.008,4.776
		v7.417H116.242z"/>
	<path fill="#FFFFFF" d="M123.993,154.823c-1.152,0-2.328-0.144-3.408-0.552l0.144-1.632c0.96,0.504,2.088,0.744,3.168,0.744
		c1.344,0,2.496-0.648,2.496-1.992c0-2.904-5.784-2.089-5.784-5.761c0-2.305,2.136-3.265,4.104-3.265
		c0.984,0,2.064,0.192,2.977,0.528l-0.144,1.464c-0.768-0.336-1.848-0.576-2.688-0.576c-1.152,0-2.448,0.36-2.448,1.824
		c0,2.232,5.784,1.729,5.784,5.737C128.193,153.647,126.105,154.823,123.993,154.823z"/>
	<path fill="#FFFFFF" d="M135.801,154.823c-3.672,0-5.712-2.808-5.712-6.288c0-3.553,2.232-6.169,5.88-6.169
		c0.984,0,1.992,0.192,2.928,0.504l-0.144,1.561c-0.768-0.36-1.632-0.6-2.496-0.6c-2.856,0-4.296,2.016-4.296,4.704
		c0,2.521,1.44,4.824,4.176,4.824c0.912,0,1.8-0.216,2.64-0.552l0.12,1.56C137.889,154.703,136.857,154.823,135.801,154.823z"/>
	<path fill="#FFFFFF" d="M149.145,154.56v-7.104c0-1.896-0.408-3.601-2.688-3.601c-2.472,0-3.264,2.137-3.264,4.248v6.457h-1.752
		v-17.306h1.752v7.369c0.768-1.513,1.992-2.257,3.696-2.257c2.928,0,3.984,2.017,3.984,4.776v7.417H149.145z"/>
	<path fill="#FFFFFF" d="M155.48,149.063c0,2.328,1.319,4.344,3.84,4.344c1.031,0,2.496-0.312,3.385-0.84l0.144,1.632
		c-1.104,0.433-2.497,0.624-3.696,0.624c-3.865,0-5.496-2.712-5.496-6.288c0-3.072,1.871-6.169,5.088-6.169
		c3.385,0,4.729,2.784,4.729,5.977v0.721H155.48z M158.768,143.759c-2.184,0-3.287,2.376-3.287,4.008h6.216
		C161.696,145.919,160.952,143.759,158.768,143.759z"/>
	<path fill="#FFFFFF" d="M173.865,154.56v-7.081c0-1.896-0.408-3.624-2.689-3.624c-2.496,0-3.264,2.137-3.264,4.272v6.433h-1.752
		v-9.145c0-0.937-0.024-1.872-0.12-2.809h1.608l0.072,2.064c0.84-1.513,2.111-2.305,3.863-2.305c3.049,0,4.009,2.017,4.009,4.776
		v7.417H173.865z"/>
	<path fill="#FFFFFF" d="M185.6,139.942v-2.088h1.752v2.088H185.6z M185.6,154.56v-11.953h1.752v11.953H185.6z"/>
	<path fill="#FFFFFF" d="M198.535,154.56v-7.081c0-1.896-0.408-3.624-2.688-3.624c-2.496,0-3.265,2.137-3.265,4.272v6.433h-1.753
		v-9.145c0-0.937-0.023-1.872-0.119-2.809h1.607l0.072,2.064c0.84-1.513,2.112-2.305,3.865-2.305c3.048,0,4.008,2.017,4.008,4.776
		v7.417H198.535z"/>
	<path fill="#FFFFFF" d="M79.473,190.56h-3.289v-16.01h4.176c5.137,0,8.185,2.809,8.185,8.017
		C88.546,188.255,84.801,190.56,79.473,190.56z M80.289,176.11h-2.208v12.889h1.344c4.489,0,7.129-1.752,7.129-6.433
		C86.554,178.559,84.321,176.11,80.289,176.11z"/>
	<path fill="#FFFFFF" d="M92.625,185.063c0,2.328,1.32,4.344,3.84,4.344c1.032,0,2.496-0.312,3.384-0.84l0.144,1.632
		c-1.104,0.433-2.497,0.624-3.697,0.624c-3.864,0-5.496-2.712-5.496-6.288c0-3.072,1.872-6.169,5.088-6.169
		c3.384,0,4.729,2.784,4.729,5.977v0.721H92.625z M95.913,179.759c-2.184,0-3.288,2.376-3.288,4.008h6.216
		C98.841,181.919,98.097,179.759,95.913,179.759z"/>
	<path fill="#FFFFFF" d="M111.153,190.56l-0.048-2.064c-0.84,1.513-2.112,2.328-3.864,2.328c-3.048,0-3.984-2.063-3.984-4.824
		v-7.393h1.752v7.081c0,1.896,0.36,3.624,2.641,3.624c2.496,0,3.264-2.137,3.264-4.272v-6.433h1.728v9.145
		c0,0.937,0.024,1.872,0.12,2.809H111.153z"/>
	<path fill="#FFFFFF" d="M119.816,190.823c-2.448,0-2.76-1.775-2.76-3.96v-6.889H114.8v-1.368h2.256v-2.688l1.729-0.6v3.288h2.712
		v1.368h-2.712v7.345c0,1.056,0.288,1.992,1.536,1.992c0.48,0,0.912-0.12,1.344-0.312l0.096,1.465
		C121.161,190.703,120.44,190.823,119.816,190.823z"/>
	<path fill="#FFFFFF" d="M126.536,190.823c-1.152,0-2.328-0.144-3.408-0.552l0.144-1.632c0.96,0.504,2.088,0.744,3.168,0.744
		c1.344,0,2.496-0.648,2.496-1.992c0-2.904-5.784-2.089-5.784-5.761c0-2.305,2.136-3.265,4.104-3.265
		c0.984,0,2.064,0.192,2.976,0.528l-0.144,1.464c-0.768-0.336-1.848-0.576-2.688-0.576c-1.152,0-2.448,0.36-2.448,1.824
		c0,2.232,5.785,1.729,5.785,5.737C130.736,189.647,128.648,190.823,126.536,190.823z"/>
	<path fill="#FFFFFF" d="M138.344,190.823c-3.672,0-5.712-2.808-5.712-6.288c0-3.553,2.232-6.169,5.88-6.169
		c0.984,0,1.992,0.192,2.928,0.504l-0.144,1.561c-0.768-0.36-1.632-0.6-2.496-0.6c-2.856,0-4.296,2.016-4.296,4.704
		c0,2.521,1.44,4.824,4.176,4.824c0.912,0,1.8-0.216,2.64-0.552l0.12,1.56C140.432,190.703,139.4,190.823,138.344,190.823z"/>
	<path fill="#FFFFFF" d="M151.688,190.56v-7.104c0-1.896-0.408-3.601-2.688-3.601c-2.472,0-3.264,2.137-3.264,4.248v6.457h-1.752
		v-17.306h1.752v7.369c0.768-1.513,1.992-2.257,3.696-2.257c2.929,0,3.984,2.017,3.984,4.776v7.417H151.688z"/>
	<path fill="#FFFFFF" d="M156.919,190.56v-17.306h1.753v17.306H156.919z"/>
	<path fill="#FFFFFF" d="M168.92,190.56l-0.072-1.92c-0.672,1.392-2.232,2.184-3.721,2.184c-2.136,0-3.912-1.08-3.912-3.384
		c0-3.072,2.928-4.152,6.601-4.152h0.937v-0.576c0-1.824-0.721-2.952-2.688-2.952c-1.224,0-2.376,0.264-3.433,0.96l-0.144-1.561
		c1.008-0.456,2.544-0.792,3.647-0.792c2.977,0,4.346,1.488,4.346,4.465v5.185c0,0.888,0.023,1.728,0.144,2.544H168.92z
		 M168.752,184.559h-0.336c-2.137,0-5.4,0.169-5.4,2.809c0,1.393,1.127,2.04,2.424,2.04c2.544,0,3.312-1.896,3.312-4.128V184.559z"
		/>
	<path fill="#FFFFFF" d="M181.688,190.56v-7.081c0-1.896-0.408-3.624-2.688-3.624c-2.496,0-3.265,2.137-3.265,4.272v6.433h-1.753
		v-9.145c0-0.937-0.023-1.872-0.119-2.809h1.607l0.072,2.064c0.84-1.513,2.112-2.305,3.865-2.305c3.048,0,4.008,2.017,4.008,4.776
		v7.417H181.688z"/>
	<path fill="#FFFFFF" d="M194.959,190.56l-0.144-1.992c-0.769,1.512-2.089,2.256-3.745,2.256c-3.552,0-4.871-3.192-4.871-6.288
		c0-3.168,1.319-6.169,4.92-6.169c1.488,0,3,0.864,3.6,2.257v-7.369h1.753v13.514c0,1.296,0.048,2.544,0.12,3.792H194.959z
		 M191.383,179.854c-2.712,0-3.312,2.496-3.312,4.704c0,2.185,0.672,4.777,3.337,4.777c2.544,0,3.36-2.688,3.36-4.777
		C194.768,182.471,193.879,179.854,191.383,179.854z"/>
	<path fill="#FFFFFF" d="M206.455,190.56v-17.306h1.752v17.306H206.455z"/>
	<path fill="#FFFFFF" d="M212.791,185.063c0,2.328,1.319,4.344,3.84,4.344c1.031,0,2.496-0.312,3.385-0.84l0.144,1.632
		c-1.104,0.433-2.497,0.624-3.696,0.624c-3.865,0-5.496-2.712-5.496-6.288c0-3.072,1.871-6.169,5.088-6.169
		c3.385,0,4.729,2.784,4.729,5.977v0.721H212.791z M216.078,179.759c-2.184,0-3.287,2.376-3.287,4.008h6.216
		C219.007,181.919,218.263,179.759,216.078,179.759z"/>
	<path fill="#FFFFFF" d="M223.471,175.942v-2.088h1.752v2.088H223.471z M223.471,190.56v-11.953h1.752v11.953H223.471z"/>
	<path fill="#FFFFFF" d="M236.742,190.56l-0.144-1.992c-0.769,1.512-2.089,2.256-3.745,2.256c-3.552,0-4.871-3.192-4.871-6.288
		c0-3.168,1.319-6.169,4.92-6.169c1.488,0,3,0.864,3.6,2.257v-7.369h1.753v13.514c0,1.296,0.048,2.544,0.12,3.792H236.742z
		 M233.166,179.854c-2.712,0-3.312,2.496-3.312,4.704c0,2.185,0.672,4.777,3.337,4.777c2.544,0,3.36-2.688,3.36-4.777
		C236.551,182.471,235.662,179.854,233.166,179.854z"/>
	<path fill="#FFFFFF" d="M242.838,185.063c0,2.328,1.32,4.344,3.841,4.344c1.032,0,2.496-0.312,3.384-0.84l0.145,1.632
		c-1.104,0.433-2.496,0.624-3.697,0.624c-3.863,0-5.496-2.712-5.496-6.288c0-3.072,1.873-6.169,5.089-6.169
		c3.384,0,4.729,2.784,4.729,5.977v0.721H242.838z M246.127,179.759c-2.185,0-3.289,2.376-3.289,4.008h6.217
		C249.055,181.919,248.311,179.759,246.127,179.759z"/>
	<path fill="#FFFFFF" d="M261.223,190.56v-7.081c0-1.896-0.408-3.624-2.688-3.624c-2.496,0-3.265,2.137-3.265,4.272v6.433h-1.753
		v-9.145c0-0.937-0.023-1.872-0.119-2.809h1.607l0.072,2.064c0.84-1.513,2.112-2.305,3.865-2.305c3.048,0,4.008,2.017,4.008,4.776
		v7.417H261.223z"/>
	<path fill="#FFFFFF" d="M82.665,226.56l-0.072-1.92c-0.672,1.392-2.232,2.184-3.72,2.184c-2.136,0-3.913-1.08-3.913-3.384
		c0-3.072,2.928-4.152,6.601-4.152h0.936v-0.576c0-1.824-0.72-2.952-2.688-2.952c-1.224,0-2.376,0.264-3.432,0.96l-0.144-1.561
		c1.008-0.456,2.544-0.792,3.648-0.792c2.977,0,4.345,1.488,4.345,4.465v5.185c0,0.888,0.024,1.728,0.144,2.544H82.665z
		 M82.497,220.559h-0.336c-2.136,0-5.4,0.169-5.4,2.809c0,1.393,1.128,2.04,2.424,2.04c2.544,0,3.312-1.896,3.312-4.128V220.559z"/>
	<path fill="#FFFFFF" d="M95.434,226.56v-7.081c0-1.896-0.408-3.624-2.688-3.624c-2.496,0-3.264,2.137-3.264,4.272v6.433h-1.752
		v-9.145c0-0.937-0.024-1.872-0.12-2.809h1.608l0.072,2.064c0.84-1.513,2.112-2.305,3.864-2.305c3.048,0,4.008,2.017,4.008,4.776
		v7.417H95.434z"/>
	<path fill="#FFFFFF" d="M115.209,226.56l-0.144-1.992c-0.768,1.512-2.088,2.256-3.745,2.256c-3.552,0-4.872-3.192-4.872-6.288
		c0-3.168,1.32-6.169,4.92-6.169c1.488,0,3,0.864,3.6,2.257v-7.369h1.752v13.514c0,1.296,0.048,2.544,0.12,3.792H115.209z
		 M111.632,215.854c-2.712,0-3.312,2.496-3.312,4.704c0,2.185,0.672,4.777,3.336,4.777c2.544,0,3.36-2.688,3.36-4.777
		C115.017,218.471,114.129,215.854,111.632,215.854z"/>
	<path fill="#FFFFFF" d="M121.304,221.063c0,2.328,1.32,4.344,3.84,4.344c1.032,0,2.496-0.312,3.384-0.84l0.144,1.632
		c-1.104,0.433-2.497,0.624-3.697,0.624c-3.864,0-5.496-2.712-5.496-6.288c0-3.072,1.872-6.169,5.088-6.169
		c3.384,0,4.729,2.784,4.729,5.977v0.721H121.304z M124.592,215.759c-2.184,0-3.288,2.376-3.288,4.008h6.216
		C127.521,217.919,126.776,215.759,124.592,215.759z"/>
	<path fill="#FFFFFF" d="M137.648,216.215c-0.312-0.096-0.648-0.145-0.96-0.145c-2.448,0-2.952,2.688-2.952,4.561v5.929h-1.752
		v-9.145c0-0.937-0.024-1.872-0.12-2.809h1.608l0.096,2.256c0.48-1.224,1.68-2.496,3.168-2.496c0.336,0,0.672,0,1.008,0.097
		L137.648,216.215z"/>
	<path fill="#FFFFFF" d="M149.936,226.56h-3.288v-16.01h4.177c5.137,0,8.185,2.809,8.185,8.017
		C159.009,224.255,155.264,226.56,149.936,226.56z M150.752,212.11h-2.208v12.889h1.344c4.489,0,7.129-1.752,7.129-6.433
		C157.017,214.559,154.784,212.11,150.752,212.11z"/>
	<path fill="#FFFFFF" d="M163.088,221.063c0,2.328,1.319,4.344,3.84,4.344c1.031,0,2.496-0.312,3.385-0.84l0.144,1.632
		c-1.104,0.433-2.497,0.624-3.696,0.624c-3.865,0-5.496-2.712-5.496-6.288c0-3.072,1.871-6.169,5.088-6.169
		c3.385,0,4.729,2.784,4.729,5.977v0.721H163.088z M166.375,215.759c-2.184,0-3.287,2.376-3.287,4.008h6.216
		C169.304,217.919,168.56,215.759,166.375,215.759z"/>
	<path fill="#FFFFFF" d="M179.168,226.823c-1.561,0-3.049-0.815-3.648-2.208v7.129h-1.752v-13.129c0-1.393-0.049-2.688-0.12-4.009
		h1.655l0.097,2.088c0.624-1.416,2.232-2.328,3.792-2.328c3.648,0,4.849,3.001,4.849,6.169
		C184.04,223.631,182.721,226.823,179.168,226.823z M178.832,215.854c-2.496,0-3.385,2.593-3.385,4.681s0.84,4.801,3.385,4.801
		c2.664,0,3.312-2.616,3.312-4.801C182.145,218.327,181.544,215.854,178.832,215.854z"/>
	<path fill="#FFFFFF" d="M192.464,216.215c-0.312-0.096-0.647-0.145-0.96-0.145c-2.448,0-2.952,2.688-2.952,4.561v5.929h-1.753
		v-9.145c0-0.937-0.023-1.872-0.119-2.809h1.607l0.097,2.256c0.479-1.224,1.681-2.496,3.168-2.496c0.337,0,0.673,0,1.009,0.097
		L192.464,216.215z"/>
	<path fill="#FFFFFF" d="M195.482,221.063c0,2.328,1.32,4.344,3.84,4.344c1.032,0,2.496-0.312,3.385-0.84l0.145,1.632
		c-1.105,0.433-2.497,0.624-3.697,0.624c-3.864,0-5.496-2.712-5.496-6.288c0-3.072,1.872-6.169,5.088-6.169
		c3.385,0,4.729,2.784,4.729,5.977v0.721H195.482z M198.771,215.759c-2.185,0-3.288,2.376-3.288,4.008h6.217
		C201.699,217.919,200.955,215.759,198.771,215.759z"/>
	<path fill="#FFFFFF" d="M208.682,226.823c-1.152,0-2.328-0.144-3.408-0.552l0.145-1.632c0.96,0.504,2.088,0.744,3.168,0.744
		c1.344,0,2.496-0.648,2.496-1.992c0-2.904-5.784-2.089-5.784-5.761c0-2.305,2.136-3.265,4.104-3.265
		c0.984,0,2.064,0.192,2.977,0.528l-0.145,1.464c-0.768-0.336-1.848-0.576-2.688-0.576c-1.151,0-2.448,0.36-2.448,1.824
		c0,2.232,5.785,1.729,5.785,5.737C212.883,225.647,210.795,226.823,208.682,226.823z"/>
	<path fill="#FFFFFF" d="M218.018,226.823c-1.152,0-2.328-0.144-3.408-0.552l0.145-1.632c0.96,0.504,2.088,0.744,3.168,0.744
		c1.344,0,2.496-0.648,2.496-1.992c0-2.904-5.784-2.089-5.784-5.761c0-2.305,2.136-3.265,4.104-3.265
		c0.984,0,2.064,0.192,2.977,0.528l-0.145,1.464c-0.768-0.336-1.848-0.576-2.688-0.576c-1.151,0-2.448,0.36-2.448,1.824
		c0,2.232,5.785,1.729,5.785,5.737C222.219,225.647,220.131,226.823,218.018,226.823z"/>
	<path fill="#FFFFFF" d="M224.834,211.942v-2.088h1.752v2.088H224.834z M224.834,226.56v-11.953h1.752v11.953H224.834z"/>
	<path fill="#FFFFFF" d="M234.938,226.823c-3.721,0-5.592-2.832-5.592-6.288c0-3.433,2.063-6.169,5.592-6.169
		c3.744,0,5.593,2.641,5.593,6.169C240.53,223.991,238.634,226.823,234.938,226.823z M234.938,215.831
		c-2.641,0-3.721,2.399-3.721,4.704c0,2.304,1.08,4.824,3.721,4.824s3.721-2.496,3.721-4.824
		C238.658,218.159,237.65,215.831,234.938,215.831z"/>
	<path fill="#FFFFFF" d="M250.994,226.56v-7.081c0-1.896-0.408-3.624-2.689-3.624c-2.496,0-3.264,2.137-3.264,4.272v6.433h-1.752
		v-9.145c0-0.937-0.024-1.872-0.12-2.809h1.608l0.072,2.064c0.84-1.513,2.111-2.305,3.863-2.305c3.049,0,4.009,2.017,4.009,4.776
		v7.417H250.994z"/>
	<path fill="#FFFFFF" d="M256.705,226.56v-2.136h2.063v2.136H256.705z"/>
</g>
</svg>
