<?xml version="1.0" encoding="utf-8"?>
<!-- Generator: Adobe Illustrator 15.1.0, SVG Export Plug-In . SVG Version: 6.00 Build 0)  -->
<!DOCTYPE svg PUBLIC "-//W3C//DTD SVG 1.1//EN" "http://www.w3.org/Graphics/SVG/1.1/DTD/svg11.dtd">
<svg version="1.1" id="Layer_1" xmlns="http://www.w3.org/2000/svg" xmlns:xlink="http://www.w3.org/1999/xlink" x="0px" y="0px"
	 width="296px" height="296px" viewBox="0 0 296 296" enable-background="new 0 0 296 296" xml:space="preserve">
<path fill="#005EB8" d="M148,296c81.738,0,148-66.262,148-148C296,66.262,229.738,0,148,0C66.262,0,0,66.262,0,148
	C0,229.738,66.262,296,148,296"/>
<g>
	<path fill="#FFFFFF" d="M76.628,143.956v-24.009h8.423c7.775,0,12.706,3.743,12.706,11.662c0,8.207-5.507,12.347-13.354,12.347
		H76.628z M81.956,140.284h1.692c5.651,0,8.531-3.168,8.531-8.675c0-5.039-2.844-7.991-7.919-7.991h-2.304V140.284z"/>
	<path fill="#FFFFFF" d="M105.283,136c0.108,3.132,2.088,5.04,5.939,5.04c1.764,0,3.708-0.468,4.967-1.188l0.216,3.456
		c-1.44,0.612-3.78,1.044-5.759,1.044c-6.659,0-10.223-3.492-10.223-9.503c0-5.363,3.636-9.323,8.963-9.323
		c5.795,0,7.955,3.815,7.955,9.287V136H105.283z M112.878,133.193c0-2.268-0.72-4.679-3.456-4.679s-4.031,2.375-4.14,4.679H112.878z
		"/>
	<path fill="#FFFFFF" d="M120.728,151.73v-20.589c0-2.16-0.072-3.708-0.18-5.255h4.715l0.108,3.06
		c1.008-2.196,3.384-3.419,5.795-3.419c5.471,0,7.487,4.5,7.487,9.323c0,4.859-2.052,9.503-7.595,9.503
		c-2.304,0-4.464-1.152-5.364-3.312v10.69H120.728z M129.438,140.86c3.276,0,3.888-3.419,3.888-6.011s-0.576-5.831-3.852-5.831
		c-3.132,0-3.923,3.348-3.923,5.831c0,1.26,0.216,2.771,0.792,3.959C126.919,139.96,127.891,140.86,129.438,140.86z"/>
	<path fill="#FFFFFF" d="M142.147,143.956v-14.038c0-1.332-0.036-2.664-0.18-3.996h4.679l0.108,3.492
		c0.864-1.98,2.628-3.924,5.076-3.924c0.539,0,0.972,0.036,1.439,0.18l-0.145,4.463c-0.467-0.18-1.008-0.252-1.547-0.252
		c-3.312,0-4.464,3.204-4.464,6.011v8.063H142.147z"/>
	<path fill="#FFFFFF" d="M158.959,136c0.107,3.132,2.088,5.04,5.939,5.04c1.764,0,3.707-0.468,4.967-1.188l0.217,3.456
		c-1.44,0.612-3.78,1.044-5.76,1.044c-6.659,0-10.223-3.492-10.223-9.503c0-5.363,3.635-9.323,8.963-9.323
		c5.795,0,7.955,3.815,7.955,9.287V136H158.959z M166.554,133.193c0-2.268-0.72-4.679-3.456-4.679c-2.734,0-4.031,2.375-4.139,4.679
		H166.554z"/>
	<path fill="#FFFFFF" d="M173.936,139.708c1.584,0.828,3.275,1.224,4.967,1.224c1.908,0,3.132-0.54,3.132-2.088
		c0-3.096-8.423-1.98-8.423-7.847c0-4.067,4.139-5.507,7.451-5.507c1.764,0,3.562,0.288,4.967,0.684l-0.216,3.6
		c-1.44-0.576-2.915-0.864-4.464-0.864c-1.26,0-2.951,0.288-2.951,1.835c0,2.844,8.352,1.476,8.352,7.739
		c0,4.355-3.924,5.867-7.56,5.867c-2.052,0-3.743-0.252-5.472-0.864L173.936,139.708z"/>
	<path fill="#FFFFFF" d="M189.992,139.708c1.584,0.828,3.275,1.224,4.967,1.224c1.908,0,3.132-0.54,3.132-2.088
		c0-3.096-8.423-1.98-8.423-7.847c0-4.067,4.139-5.507,7.451-5.507c1.764,0,3.562,0.288,4.967,0.684l-0.216,3.6
		c-1.44-0.576-2.915-0.864-4.464-0.864c-1.26,0-2.951,0.288-2.951,1.835c0,2.844,8.352,1.476,8.352,7.739
		c0,4.355-3.924,5.867-7.56,5.867c-2.052,0-3.743-0.252-5.472-0.864L189.992,139.708z"/>
	<path fill="#FFFFFF" d="M206.516,122.538v-3.995h4.967v3.995H206.516z M206.516,143.956v-18.07h4.967v18.07H206.516z"/>
	<path fill="#FFFFFF" d="M214.939,134.849c0-5.903,3.924-9.323,9.467-9.323c5.867,0,9.467,3.312,9.467,9.323
		c0,5.832-3.564,9.503-9.467,9.503c-1.477,0-2.809-0.216-3.996-0.648C216.883,142.336,214.939,139.204,214.939,134.849z
		 M224.406,140.968c3.168,0,4.139-3.06,4.139-6.119c0-2.771-0.899-5.939-4.139-5.939c-3.168,0-4.14,3.204-4.14,5.939
		c0,1.476,0.288,3.024,0.899,4.176C221.85,140.176,222.858,140.968,224.406,140.968z"/>
	<path fill="#FFFFFF" d="M237.33,143.956v-14.038c0-1.332-0.035-2.7-0.18-4.032h4.68l0.072,3.024
		c1.188-2.304,3.312-3.384,5.867-3.384c4.355,0,6.119,2.592,6.119,6.731v11.699h-4.967v-10.547c0-2.16-0.324-4.319-3.024-4.319
		c-2.808,0-3.6,2.52-3.6,4.896v9.971H237.33z"/>
	<path fill="#FFFFFF" d="M76.268,191.956v-25.953h4.967v10.871c1.116-2.268,3.06-3.348,5.543-3.348c4.248,0,6.047,2.556,6.047,6.695
		v11.734h-4.967v-10.583c0-2.159-0.324-4.283-3.024-4.283c-2.735,0-3.6,2.52-3.6,4.859v10.007H76.268z"/>
	<path fill="#FFFFFF" d="M101.143,184.001c0.108,3.132,2.088,5.039,5.939,5.039c1.764,0,3.708-0.468,4.967-1.188l0.216,3.456
		c-1.44,0.611-3.78,1.043-5.759,1.043c-6.659,0-10.223-3.491-10.223-9.502c0-5.363,3.636-9.323,8.963-9.323
		c5.795,0,7.955,3.815,7.955,9.287v1.188H101.143z M108.738,181.193c0-2.268-0.72-4.68-3.456-4.68c-2.735,0-4.031,2.376-4.14,4.68
		H108.738z"/>
	<path fill="#FFFFFF" d="M116.587,170.539v-3.996h4.967v3.996H116.587z M116.587,191.956v-18.069h4.967v18.069H116.587z"/>
	<path fill="#FFFFFF" d="M126.055,191.956v-25.953h4.967v25.953H126.055z"/>
	<path fill="#FFFFFF" d="M139.337,184.001c0.108,3.132,2.088,5.039,5.939,5.039c1.764,0,3.708-0.468,4.967-1.188l0.217,3.456
		c-1.44,0.611-3.78,1.043-5.76,1.043c-6.659,0-10.223-3.491-10.223-9.502c0-5.363,3.636-9.323,8.963-9.323
		c5.795,0,7.956,3.815,7.956,9.287v1.188H139.337z M146.933,181.193c0-2.268-0.72-4.68-3.456-4.68c-2.735,0-4.031,2.376-4.14,4.68
		H146.933z"/>
	<path fill="#FFFFFF" d="M154.781,191.956v-14.038c0-1.332-0.035-2.7-0.18-4.031h4.68l0.072,3.023
		c1.188-2.304,3.312-3.384,5.867-3.384c4.355,0,6.119,2.592,6.119,6.731v11.698h-4.967v-10.547c0-2.159-0.324-4.319-3.024-4.319
		c-2.808,0-3.6,2.52-3.6,4.896v9.971H154.781z"/>
	<path fill="#FFFFFF" d="M176.453,191.956v-4.319h4.824v4.319H176.453z"/>
</g>
</svg>
