<?xml version="1.0" encoding="utf-8"?>
<!-- Generator: Adobe Illustrator 15.1.0, SVG Export Plug-In . SVG Version: 6.00 Build 0)  -->
<!DOCTYPE svg PUBLIC "-//W3C//DTD SVG 1.1//EN" "http://www.w3.org/Graphics/SVG/1.1/DTD/svg11.dtd">
<svg version="1.1" id="Layer_1" xmlns="http://www.w3.org/2000/svg" xmlns:xlink="http://www.w3.org/1999/xlink" x="0px" y="0px"
	 width="296px" height="296px" viewBox="0 0 296 296" enable-background="new 0 0 296 296" xml:space="preserve">
<path fill="#005EB8" d="M148,296c81.738,0,148-66.262,148-148C296,66.262,229.738,0,148,0C66.262,0,0,66.262,0,148
	C0,229.738,66.262,296,148,296"/>
<g>
	<path fill="#FFFFFF" d="M75.369,115.714c1.128,0.696,2.352,0.936,3.696,0.936c1.824,0,3.264-0.792,3.264-2.904
		c0-1.68-1.272-2.472-2.76-3.24l-1.296-0.696c-1.536-0.84-2.76-1.824-2.76-3.937c0-2.904,2.568-4.152,5.16-4.152
		c1.128,0,2.112,0.168,3.097,0.576l-0.216,1.704c-0.864-0.48-1.872-0.696-2.856-0.696c-1.68,0-3.241,0.576-3.241,2.496
		c0,1.32,0.96,2.064,2.232,2.736l1.296,0.696c1.8,0.96,3.312,1.944,3.312,4.393c0,3-2.472,4.608-5.208,4.608
		c-1.368,0-2.712-0.192-3.936-0.744L75.369,115.714z"/>
	<path fill="#FFFFFF" d="M95.457,117.778c-1.032,0.36-2.04,0.456-3.096,0.456c-3.672,0-5.712-2.809-5.712-6.289
		c0-3.552,2.232-6.168,5.88-6.168c0.984,0,1.992,0.192,2.928,0.504l-0.144,1.56c-0.768-0.36-1.632-0.6-2.496-0.6
		c-2.88,0-4.296,2.016-4.296,4.705c0,2.52,1.416,4.824,4.176,4.824c0.936,0,1.8-0.192,2.64-0.552L95.457,117.778z"/>
	<path fill="#FFFFFF" d="M98,117.97v-17.306h1.752v7.369c0.768-1.512,1.992-2.256,3.696-2.256c2.928,0,3.984,2.016,3.984,4.776
		v7.417h-1.728v-7.104c0-1.896-0.384-3.601-2.688-3.601c-2.472,0-3.264,2.136-3.264,4.249v6.457H98z"/>
	<path fill="#FFFFFF" d="M113.288,117.97l-3.792-11.953h1.872l3.048,10.321l3.096-10.321h2.088l3.096,10.321l3.024-10.321h1.68
		l-3.721,11.953h-2.136l-3.048-10.297L115.4,117.97H113.288z"/>
	<path fill="#FFFFFF" d="M130.496,112.209c0,2.305,1.224,4.608,4.225,4.608c1.152,0,2.4-0.336,3.288-0.912l0.072,1.56
		c-1.032,0.504-2.232,0.768-3.36,0.768c-4.128,0-6.049-2.712-6.049-6.289c0-3.048,1.752-6.168,5.329-6.168
		c3.72,0,4.776,2.976,4.776,6.145v0.288H130.496z M137.072,110.914c-0.12-1.632-0.72-3.744-3.048-3.744
		c-2.28,0-3.456,2.04-3.528,3.744H137.072z"/>
	<path fill="#FFFFFF" d="M141.223,117.97v-9.145c0-0.936-0.024-1.872-0.12-2.808h1.608l0.096,2.256
		c0.456-1.224,1.704-2.496,3.168-2.496c0.36,0,0.648,0,1.008,0.096l-0.096,1.752c-0.312-0.096-0.648-0.144-0.96-0.144
		c-2.424,0-2.952,2.688-2.952,4.56v5.929H141.223z"/>
	<path fill="#FFFFFF" d="M149.095,123.155v-13.129c0-1.416-0.048-2.664-0.12-4.008h1.656l0.096,2.088
		c0.648-1.416,2.209-2.328,3.793-2.328c3.648,0,4.848,3,4.848,6.168c0,3.072-1.319,6.289-4.871,6.289
		c-1.561,0-3.049-0.792-3.648-2.208v7.129H149.095z M154.159,116.746c2.665,0,3.312-2.616,3.312-4.8
		c0-2.208-0.601-4.681-3.312-4.681c-2.496,0-3.384,2.568-3.384,4.681c0,1.056,0.216,2.232,0.72,3.192
		C152.047,116.074,152.887,116.746,154.159,116.746z"/>
	<path fill="#FFFFFF" d="M163.83,113.098c0,1.896,0.361,3.625,2.641,3.625c2.496,0,3.265-2.16,3.265-4.272v-6.433h1.728v9.145
		c0,0.936,0.024,1.872,0.121,2.808h-1.609l-0.047-2.064c-0.84,1.536-2.113,2.328-3.865,2.328c-3.048,0-3.984-2.041-3.984-4.825
		v-7.393h1.752V113.098z"/>
	<path fill="#FFFFFF" d="M174.967,117.97v-9.145c0-0.936-0.024-1.872-0.12-2.808h1.608l0.072,2.064
		c0.84-1.536,2.135-2.304,3.863-2.304c3.072,0,4.009,2.016,4.009,4.776v7.417h-1.728v-7.081c0-1.896-0.385-3.625-2.689-3.625
		c-2.496,0-3.264,2.16-3.264,4.272v6.433H174.967z"/>
	<path fill="#FFFFFF" d="M187.902,117.97v-17.306h1.752v10.297l5.064-4.944h2.184l-5.496,5.281l6.145,6.672h-2.305l-5.592-6.241
		v6.241H187.902z"/>
	<path fill="#FFFFFF" d="M205.014,117.874c-0.6,0.264-1.295,0.36-1.943,0.36c-2.449,0-2.761-1.776-2.761-3.96v-6.889h-2.256v-1.368
		h2.256v-2.688l1.729-0.6v3.288h2.712v1.368h-2.712v7.345c0,1.056,0.288,1.992,1.536,1.992c0.48,0,0.888-0.12,1.344-0.312
		L205.014,117.874z"/>
	<path fill="#FFFFFF" d="M208.325,112.209c0,2.305,1.224,4.608,4.225,4.608c1.151,0,2.399-0.336,3.288-0.912l0.072,1.56
		c-1.032,0.504-2.232,0.768-3.36,0.768c-4.128,0-6.049-2.712-6.049-6.289c0-3.048,1.753-6.168,5.329-6.168
		c3.72,0,4.775,2.976,4.775,6.145v0.288H208.325z M214.902,110.914c-0.121-1.632-0.721-3.744-3.049-3.744
		c-2.28,0-3.456,2.04-3.528,3.744H214.902z"/>
	<path fill="#FFFFFF" d="M219.533,108.153v-2.136h2.064v2.136H219.533z M219.533,117.97v-2.136h2.064v2.136H219.533z"/>
	<path fill="#FFFFFF" d="M76.041,153.971v-16.01h4.176c5.113,0,8.281,2.568,8.281,7.777c0,5.665-3.864,8.233-9.168,8.233H76.041z
		 M77.937,152.41h1.344c4.513,0,7.225-1.992,7.225-6.672c0-4.032-2.304-6.217-6.36-6.217h-2.208V152.41z"/>
	<path fill="#FFFFFF" d="M92.432,148.209c0,2.304,1.224,4.609,4.225,4.609c1.152,0,2.4-0.336,3.288-0.912l0.072,1.561
		c-1.032,0.504-2.232,0.768-3.36,0.768c-4.128,0-6.049-2.713-6.049-6.289c0-3.049,1.752-6.169,5.329-6.169
		c3.72,0,4.776,2.977,4.776,6.145v0.288H92.432z M99.009,146.914c-0.12-1.632-0.72-3.744-3.048-3.744
		c-2.28,0-3.456,2.04-3.528,3.744H99.009z"/>
	<path fill="#FFFFFF" d="M103.16,159.154v-13.128c0-1.416-0.048-2.665-0.12-4.009h1.656l0.096,2.088
		c0.648-1.416,2.208-2.328,3.792-2.328c3.648,0,4.848,3.001,4.848,6.169c0,3.072-1.32,6.289-4.872,6.289
		c-1.561,0-3.048-0.793-3.648-2.209v7.129H103.16z M108.224,152.746c2.665,0,3.312-2.617,3.312-4.8c0-2.208-0.6-4.681-3.312-4.681
		c-2.496,0-3.384,2.568-3.384,4.681c0,1.056,0.216,2.232,0.72,3.193C106.112,152.074,106.952,152.746,108.224,152.746z"/>
	<path fill="#FFFFFF" d="M116.192,153.971v-9.145c0-0.937-0.024-1.872-0.12-2.809h1.608l0.096,2.256
		c0.456-1.224,1.704-2.496,3.168-2.496c0.36,0,0.648,0,1.008,0.097l-0.096,1.752c-0.312-0.096-0.648-0.145-0.96-0.145
		c-2.424,0-2.952,2.688-2.952,4.561v5.929H116.192z"/>
	<path fill="#FFFFFF" d="M124.832,148.209c0,2.304,1.224,4.609,4.225,4.609c1.152,0,2.4-0.336,3.288-0.912l0.072,1.561
		c-1.032,0.504-2.232,0.768-3.36,0.768c-4.128,0-6.049-2.713-6.049-6.289c0-3.049,1.752-6.169,5.329-6.169
		c3.72,0,4.776,2.977,4.776,6.145v0.288H124.832z M131.409,146.914c-0.12-1.632-0.72-3.744-3.048-3.744
		c-2.28,0-3.456,2.04-3.528,3.744H131.409z"/>
	<path fill="#FFFFFF" d="M135.031,152.051c0.96,0.504,1.848,0.744,2.928,0.744c1.344,0,2.28-0.648,2.28-1.992
		c0-2.905-5.161-2.065-5.161-5.713c0-2.4,1.992-3.312,3.864-3.312c0.984,0,1.873,0.192,2.712,0.504l-0.24,1.513
		c-0.744-0.36-1.608-0.601-2.448-0.601c-0.936,0-2.136,0.36-2.136,1.801c0,2.4,5.208,1.656,5.208,5.665
		c0,2.305-1.944,3.576-4.057,3.576c-1.152,0-2.208-0.145-3.168-0.553L135.031,152.051z"/>
	<path fill="#FFFFFF" d="M144.367,152.051c0.96,0.504,1.848,0.744,2.928,0.744c1.344,0,2.281-0.648,2.281-1.992
		c0-2.905-5.161-2.065-5.161-5.713c0-2.4,1.992-3.312,3.864-3.312c0.984,0,1.873,0.192,2.713,0.504l-0.24,1.513
		c-0.744-0.36-1.608-0.601-2.448-0.601c-0.936,0-2.136,0.36-2.136,1.801c0,2.4,5.208,1.656,5.208,5.665
		c0,2.305-1.944,3.576-4.057,3.576c-1.152,0-2.208-0.145-3.168-0.553L144.367,152.051z"/>
	<path fill="#FFFFFF" d="M154.23,139.353v-2.088h1.753v2.088H154.23z M154.23,153.971v-11.954h1.753v11.954H154.23z"/>
	<path fill="#FFFFFF" d="M158.742,147.946c0-3.433,2.041-6.169,5.593-6.169c3.745,0,5.593,2.641,5.593,6.169
		c0,3.457-1.896,6.289-5.593,6.289c-0.937,0-1.752-0.168-2.448-0.48C159.799,152.746,158.742,150.562,158.742,147.946z
		 M164.335,152.77c2.616,0,3.72-2.52,3.72-4.824c0-2.4-1.031-4.704-3.72-4.704c-2.64,0-3.72,2.399-3.72,4.704
		c0,1.152,0.264,2.353,0.863,3.289C162.078,152.121,163.016,152.77,164.335,152.77z"/>
	<path fill="#FFFFFF" d="M172.686,153.971v-9.145c0-0.937-0.023-1.872-0.119-2.809h1.607l0.072,2.064
		c0.84-1.536,2.137-2.305,3.865-2.305c3.072,0,4.008,2.017,4.008,4.776v7.417h-1.729v-7.082c0-1.896-0.384-3.624-2.688-3.624
		c-2.496,0-3.265,2.16-3.265,4.272v6.433H172.686z"/>
	<path fill="#FFFFFF" d="M184.781,157.043l1.393-5.209h2.016l-1.992,5.209H184.781z"/>
	<path fill="#FFFFFF" d="M196.974,153.971l6.384-16.01h2.232l6.408,16.01h-1.967l-1.656-4.346h-7.85l-1.703,4.346H196.974z
		 M201.078,148.089h6.721l-3.337-8.593L201.078,148.089z"/>
	<path fill="#FFFFFF" d="M213.846,153.971v-9.145c0-0.937-0.024-1.872-0.12-2.809h1.608l0.072,2.064
		c0.84-1.536,2.135-2.305,3.863-2.305c3.072,0,4.009,2.017,4.009,4.776v7.417h-1.728v-7.082c0-1.896-0.385-3.624-2.689-3.624
		c-2.496,0-3.264,2.16-3.264,4.272v6.433H213.846z"/>
	<path fill="#FFFFFF" d="M227.165,157.09c1.056,0.553,2.231,0.865,3.456,0.865c2.881,0,3.961-1.969,3.961-4.561v-1.537
		c-0.744,1.344-2.185,2.113-3.697,2.113c-3.552,0-4.824-3.072-4.824-6.025c0-3.168,1.344-6.169,4.873-6.169
		c1.704,0,2.977,0.721,3.744,2.257v-2.017h1.656v11.354c0,3.719-1.68,6.047-5.593,6.047c-1.248,0-2.496-0.24-3.72-0.623
		L227.165,157.09z M231.245,152.482c2.568,0,3.384-2.496,3.384-4.513c0-2.088-0.887-4.704-3.359-4.704
		c-2.688,0-3.336,2.496-3.336,4.704c0,1.033,0.168,2.16,0.647,3.025C229.085,151.857,229.901,152.482,231.245,152.482z"/>
	<path fill="#FFFFFF" d="M239.285,152.051c0.96,0.504,1.848,0.744,2.928,0.744c1.345,0,2.281-0.648,2.281-1.992
		c0-2.905-5.161-2.065-5.161-5.713c0-2.4,1.992-3.312,3.864-3.312c0.984,0,1.873,0.192,2.713,0.504l-0.24,1.513
		c-0.744-0.36-1.608-0.601-2.448-0.601c-0.937,0-2.136,0.36-2.136,1.801c0,2.4,5.208,1.656,5.208,5.665
		c0,2.305-1.944,3.576-4.057,3.576c-1.151,0-2.208-0.145-3.168-0.553L239.285,152.051z"/>
	<path fill="#FFFFFF" d="M254.766,153.875c-0.6,0.264-1.296,0.359-1.944,0.359c-2.448,0-2.761-1.775-2.761-3.961v-6.888h-2.256
		v-1.368h2.256v-2.688l1.729-0.6v3.288h2.713v1.368h-2.713v7.345c0,1.055,0.288,1.992,1.537,1.992c0.479,0,0.887-0.121,1.344-0.312
		L254.766,153.875z"/>
	<path fill="#FFFFFF" d="M77.457,185.098c0,1.896,0.36,3.625,2.641,3.625c2.496,0,3.264-2.16,3.264-4.273v-6.432h1.728v9.145
		c0,0.936,0.024,1.871,0.12,2.809h-1.608l-0.048-2.064c-0.84,1.535-2.112,2.328-3.864,2.328c-3.048,0-3.984-2.041-3.984-4.824
		v-7.393h1.752V185.098z"/>
	<path fill="#FFFFFF" d="M88.592,189.971v-9.145c0-0.938-0.024-1.873-0.12-2.809h1.608l0.072,2.064
		c0.84-1.537,2.136-2.305,3.864-2.305c3.072,0,4.008,2.016,4.008,4.775v7.418h-1.728v-7.082c0-1.895-0.384-3.623-2.688-3.623
		c-2.496,0-3.264,2.16-3.264,4.271v6.434H88.592z"/>
	<path fill="#FFFFFF" d="M109.569,189.971l-0.144-1.992c-0.768,1.535-2.088,2.256-3.745,2.256c-3.552,0-4.872-3.217-4.872-6.289
		c0-3.168,1.344-6.168,4.92-6.168c1.512,0,3,0.84,3.6,2.256v-7.369h1.752v13.514c0,1.32,0.048,2.545,0.12,3.793H109.569z
		 M106.017,188.746c2.544,0,3.36-2.688,3.36-4.777c0-2.088-0.888-4.703-3.384-4.703c-2.712,0-3.312,2.496-3.312,4.703
		c0,1.08,0.168,2.281,0.672,3.217C103.856,188.074,104.672,188.746,106.017,188.746z"/>
	<path fill="#FFFFFF" d="M119.936,189.971v-1.584l8.353-12.842h-8.064v-1.584h10.129v1.584l-8.281,12.842h8.473v1.584H119.936z"/>
	<path fill="#FFFFFF" d="M135.272,189.971l-3.792-11.953h1.872l3.048,10.32l3.096-10.32h2.088l3.096,10.32l3.024-10.32h1.68
		l-3.72,11.953h-2.136l-3.048-10.297l-3.097,10.297H135.272z"/>
	<path fill="#FFFFFF" d="M158.191,189.971l-0.071-1.92c-0.696,1.535-2.208,2.184-3.72,2.184c-2.137,0-3.913-1.129-3.913-3.553
		c0-3.072,2.688-3.984,6.192-3.984h1.344v-0.576c0-1.824-0.695-2.951-2.688-2.951c-1.225,0-2.352,0.336-3.385,1.008l-0.144-1.561
		c1.032-0.504,2.472-0.84,3.601-0.84c3,0,4.344,1.465,4.344,4.465v5.184c0,0.889,0.024,1.705,0.145,2.545H158.191z M157.137,183.969
		c-2.232,0-4.85,0.24-4.85,2.641c0,1.609,1.129,2.209,2.305,2.209c2.545,0,3.432-1.92,3.432-4.129v-0.721H157.137z"/>
	<path fill="#FFFFFF" d="M163.256,189.971v-9.145c0-0.938-0.024-1.873-0.12-2.809h1.608l0.072,2.064
		c0.84-1.537,2.135-2.305,3.863-2.305c3.072,0,4.009,2.016,4.009,4.775v7.418h-1.728v-7.082c0-1.895-0.385-3.623-2.689-3.623
		c-2.496,0-3.264,2.16-3.264,4.271v6.434H163.256z"/>
	<path fill="#FFFFFF" d="M176.575,193.09c1.056,0.553,2.231,0.865,3.456,0.865c2.881,0,3.961-1.969,3.961-4.561v-1.537
		c-0.744,1.344-2.185,2.113-3.697,2.113c-3.552,0-4.824-3.072-4.824-6.025c0-3.168,1.344-6.168,4.873-6.168
		c1.704,0,2.977,0.721,3.744,2.256v-2.016h1.656v11.354c0,3.719-1.68,6.047-5.593,6.047c-1.248,0-2.496-0.24-3.72-0.623
		L176.575,193.09z M180.655,188.482c2.568,0,3.384-2.496,3.384-4.514c0-2.088-0.887-4.703-3.359-4.703
		c-2.688,0-3.336,2.496-3.336,4.703c0,1.033,0.168,2.16,0.647,3.025C178.495,187.857,179.312,188.482,180.655,188.482z"/>
</g>
</svg>
