<?xml version="1.0" encoding="utf-8"?>
<!-- Generator: Adobe Illustrator 15.1.0, SVG Export Plug-In . SVG Version: 6.00 Build 0)  -->
<!DOCTYPE svg PUBLIC "-//W3C//DTD SVG 1.1//EN" "http://www.w3.org/Graphics/SVG/1.1/DTD/svg11.dtd">
<svg version="1.1" id="Layer_1" xmlns="http://www.w3.org/2000/svg" xmlns:xlink="http://www.w3.org/1999/xlink" x="0px" y="0px"
	 width="50px" height="50px" viewBox="0 0 50 50" enable-background="new 0 0 50 50" xml:space="preserve">
<g>
	<path fill="#005EB8" d="M25,0C11.193,0,0,11.193,0,25s11.193,25,25,25s25-11.193,25-25S38.807,0,25,0z M33.202,25.885
		l-7.754,13.083h-0.002c-0.082,0.164-0.25,0.277-0.446,0.277s-0.364-0.113-0.446-0.277h-0.002l-5.094-8.732l-2.66-4.351
		c-1.044-1.602-1.596-3.448-1.596-5.335c0-0.249,0.02-0.492,0.037-0.736c0.38-5.059,4.609-9.061,9.761-9.061
		c5.153,0,9.381,4.002,9.762,9.061c0.018,0.244,0.036,0.488,0.036,0.736C34.798,22.439,34.246,24.284,33.202,25.885z"/>
	<path fill="#005EB8" d="M24.999,15.942c-2.413,0-4.423,1.647-5.02,3.873c-0.116,0.431-0.194,0.876-0.194,1.342
		c0,2.88,2.335,5.215,5.214,5.215c2.88,0,5.216-2.335,5.216-5.215c0-0.466-0.08-0.912-0.195-1.342
		C29.423,17.589,27.41,15.942,24.999,15.942z"/>
</g>
</svg>
