<?xml version="1.0" encoding="utf-8"?>
<!-- Generator: Adobe Illustrator 15.1.0, SVG Export Plug-In . SVG Version: 6.00 Build 0)  -->
<!DOCTYPE svg PUBLIC "-//W3C//DTD SVG 1.1//EN" "http://www.w3.org/Graphics/SVG/1.1/DTD/svg11.dtd">
<svg version="1.1" id="Layer_1" xmlns="http://www.w3.org/2000/svg" xmlns:xlink="http://www.w3.org/1999/xlink" x="0px" y="0px"
	 width="374px" height="94.738px" viewBox="0 0 374 94.738" enable-background="new 0 0 374 94.738" xml:space="preserve">
<path fill="#003797" d="M30,44.693c-8.102,0-14.694-6.592-14.694-14.693c0-8.102,6.592-14.694,14.694-14.694
	S44.694,21.898,44.694,30h-4.898c0-5.401-4.395-9.796-9.796-9.796c-5.402,0-9.796,4.395-9.796,9.796s4.394,9.796,9.796,9.796V44.693
	z"/>
<path fill="#0047B6" d="M45.801,45.802l-3.464-3.464c6.805-6.804,6.805-17.873,0-24.676c-3.295-3.296-7.677-5.11-12.338-5.11
	s-9.043,1.814-12.338,5.11l-3.464-3.464C18.418,9.978,24.031,7.653,30,7.653s11.581,2.324,15.802,6.545
	c4.221,4.221,6.545,9.832,6.545,15.801C52.346,35.97,50.023,41.58,45.801,45.802"/>
<path fill="#00267F" d="M33.061,30C31.372,30,30,28.629,30,26.938c0-1.693,1.372-3.06,3.061-3.06s3.061,1.367,3.061,3.06
	C36.122,28.629,34.75,30,33.061,30"/>
<path fill="#005EB8" d="M30,60v-4.898c13.84,0,25.102-11.261,25.102-25.102S43.84,4.898,30,4.898
	C16.158,4.898,4.898,16.159,4.898,30H0C0,13.458,13.458,0,30,0s30,13.458,30,30S46.542,60,30,60"/>
<path fill="#6F6F6E" d="M373.964,50.373v-0.395c0-1.826-0.719-3.1-2.647-3.1c-1.776,0-2.987,1.319-2.987,3.107
	c0,2.005,1.188,3.166,3.407,3.166c0.658,0,1.438-0.146,1.92-0.348l-0.072-1.149c-0.42,0.237-1.066,0.396-1.656,0.396
	c-1.281,0-1.941-0.636-1.979-1.681L373.964,50.373L373.964,50.373z M369.945,49.438c0.035-0.769,0.469-1.562,1.381-1.562
	c0.913,0,1.152,0.806,1.152,1.562H369.945z M367.172,47.002h-1.654v6.021h1.654V47.002z M367.172,44.555h-1.654v1.33h1.654V44.555z
	 M360.25,51.311c-0.191-0.396-0.264-0.897-0.264-1.317c0-0.829,0.264-1.945,1.308-1.945c1.095,0,1.285,1.08,1.285,1.945
	c0,0.862-0.204,2.004-1.297,2.004C360.766,51.994,360.441,51.693,360.25,51.311 M360.034,55.617v-3.562
	c0.3,0.719,1.021,1.104,1.789,1.104c1.847,0,2.528-1.548,2.528-3.167c0-1.609-0.672-3.108-2.492-3.108
	c-0.808,0-1.6,0.408-1.937,1.142l-0.035-1.021h-1.569c0.037,0.519,0.061,1.031,0.061,1.751v6.864L360.034,55.617L360.034,55.617z
	 M356.986,53.025c-0.051-0.42-0.062-0.806-0.062-1.416v-2.39c0-1.765-1.162-2.341-2.781-2.341c-0.674,0-1.451,0.146-2.074,0.396
	l0.069,1.104c0.562-0.301,1.226-0.457,1.765-0.457c0.914,0,1.43,0.324,1.43,1.18v0.203c-0.229-0.014-0.492-0.022-0.721-0.022
	c-1.692,0-3.229,0.432-3.229,2.028c0,1.196,0.938,1.847,2.039,1.847c0.913,0,1.55-0.359,1.971-1.021l0.035,0.89H356.986
	L356.986,53.025z M355.331,50.157v0.252c0,0.889-0.468,1.718-1.479,1.718c-0.517,0-0.889-0.301-0.889-0.889
	c0-0.901,1.059-1.081,2.029-1.081H355.331L355.331,50.157z M349.125,53.025v-2.688c0-0.937,0.385-2.005,1.488-2.005
	c0.18,0,0.357,0.023,0.516,0.084l0.049-1.486c-0.154-0.049-0.301-0.061-0.479-0.061c-0.816,0-1.404,0.648-1.692,1.307l-0.034-1.175
	h-1.561c0.048,0.444,0.061,0.892,0.061,1.335v4.688h1.653L349.125,53.025L349.125,53.025z M346.341,50.373v-0.395
	c0-1.826-0.719-3.1-2.647-3.1c-1.777,0-2.988,1.319-2.988,3.107c0,2.005,1.188,3.166,3.408,3.166c0.66,0,1.438-0.146,1.919-0.348
	l-0.072-1.149c-0.419,0.237-1.065,0.396-1.653,0.396c-1.285,0-1.943-0.636-1.979-1.681L346.341,50.373L346.341,50.373z
	 M342.322,49.438c0.035-0.769,0.468-1.562,1.381-1.562c0.912,0,1.152,0.806,1.152,1.562H342.322z M335.686,53.025v-3.336
	c0-0.78,0.289-1.621,1.201-1.621c0.899,0,1.008,0.709,1.008,1.429v3.528h1.655v-3.912c0-1.381-0.601-2.231-2.016-2.231
	c-0.828,0-1.479,0.36-1.851,1.115v-3.622h-1.654v8.65H335.686L335.686,53.025z M332.975,51.826
	c-0.218,0.084-0.434,0.133-0.658,0.133c-0.59,0-0.723-0.396-0.723-0.913v-2.953h1.344v-1.091h-1.344v-1.763l-1.652,0.538v1.225
	h-1.079v1.091h1.079v2.931c0,1.262,0.322,2.137,1.701,2.137c0.47,0,0.946-0.084,1.381-0.229L332.975,51.826z M324.082,51.382
	c-0.204-0.384-0.3-0.899-0.3-1.392c0-0.913,0.323-1.981,1.381-1.981c1.081,0,1.381,1.058,1.381,1.981
	c0,1.02-0.323,2.039-1.381,2.039C324.646,52.029,324.311,51.768,324.082,51.382 M323.83,52.941c0.396,0.144,0.841,0.216,1.333,0.216
	c1.968,0,3.155-1.224,3.155-3.167c0-2.006-1.199-3.108-3.155-3.108c-1.849,0-3.155,1.14-3.155,3.108
	C322.007,51.441,322.655,52.486,323.83,52.941 M316.99,53.025v-3.336c0-0.78,0.287-1.621,1.201-1.621
	c0.897,0,1.009,0.709,1.009,1.429v3.528h1.651v-3.912c0-1.381-0.6-2.231-2.015-2.231c-0.828,0-1.478,0.36-1.851,1.115v-3.622h-1.653
	v8.65H316.99L316.99,53.025z M314.182,51.754c-0.42,0.182-0.805,0.24-1.225,0.24c-1.248,0-1.907-0.889-1.907-2.004
	c0-1.153,0.695-1.981,1.92-1.981c0.421,0,0.815,0.084,1.188,0.265l0.072-1.174c-0.528-0.156-0.984-0.218-1.599-0.218
	c-1.907,0-3.356,1.151-3.356,3.108c0,1.968,1.344,3.167,3.311,3.167c0.612,0,1.116-0.048,1.656-0.229L314.182,51.754z
	 M303.191,55.617c0.42,0.072,0.694,0.132,1.164,0.132c1.211,0,1.785-0.743,2.229-2.038l2.231-6.709h-1.633l-1.261,4.598
	l-1.271-4.598H302.9l2.193,6.24l-0.154,0.492c-0.182,0.525-0.469,0.852-1.03,0.852c-0.229,0-0.421-0.036-0.647-0.12L303.191,55.617z
	 M298.007,52.869c0.575,0.204,1.142,0.288,1.823,0.288c1.213,0,2.52-0.503,2.52-1.955c0-2.089-2.781-1.632-2.781-2.581
	c0-0.516,0.562-0.612,0.983-0.612c0.519,0,1.007,0.097,1.486,0.288l0.071-1.197c-0.469-0.134-1.066-0.229-1.654-0.229
	c-1.104,0-2.483,0.48-2.483,1.835c0,1.957,2.811,1.585,2.811,2.617c0,0.516-0.409,0.696-1.046,0.696
	c-0.563,0-1.127-0.136-1.654-0.408L298.007,52.869z M292.857,53.025v-2.952h1.104c1.684,0,3.189-0.731,3.189-2.591
	c0-1.812-1.51-2.461-3.201-2.461h-2.831v8.004H292.857z M292.846,46.209h0.732c1.117,0,1.789,0.336,1.789,1.285
	c0,1.199-0.938,1.381-1.896,1.381h-0.625V46.209z M281.999,51.334c-0.19-0.396-0.239-0.898-0.239-1.332
	c0-0.865,0.191-1.957,1.283-1.957c1.045,0,1.311,1.116,1.311,1.957c0,0.828-0.274,2.004-1.297,2.004
	C282.516,52.006,282.191,51.718,281.999,51.334 M286.02,53.025c-0.037-0.491-0.049-0.996-0.049-1.681v-6.973h-1.654v3.622
	c-0.301-0.721-1.045-1.115-1.812-1.115c-1.812,0-2.521,1.499-2.521,3.107c0,1.619,0.686,3.166,2.531,3.166
	c0.828,0,1.536-0.348,1.907-1.113l0.062,0.98h1.535V53.025L286.02,53.025z M274.966,53.025v-3.324c0-0.792,0.265-1.633,1.201-1.633
	c0.899,0,1.009,0.721,1.009,1.438v3.52h1.654v-3.9c0-1.38-0.588-2.243-2.039-2.243c-0.852,0-1.561,0.36-1.957,1.127l-0.023-1.007
	h-1.56c0.049,0.443,0.062,0.898,0.062,1.344v4.68H274.966L274.966,53.025z M271.871,53.025c-0.048-0.443-0.061-0.911-0.061-1.355
	v-4.668h-1.653v3.312c0,0.804-0.265,1.645-1.201,1.645c-0.899,0-0.997-0.72-0.997-1.439v-3.518h-1.652v3.889
	c0,1.381,0.573,2.27,2.024,2.27c0.854,0,1.549-0.372,1.944-1.141l0.037,1.006H271.871L271.871,53.025z M261.67,50.373v-0.395
	c0-1.826-0.719-3.1-2.65-3.1c-1.773,0-2.984,1.319-2.984,3.107c0,2.005,1.188,3.166,3.404,3.166c0.662,0,1.439-0.146,1.92-0.348
	l-0.069-1.149c-0.42,0.237-1.063,0.396-1.656,0.396c-1.28,0-1.942-0.636-1.979-1.681L261.67,50.373L261.67,50.373z M257.65,49.438
	c0.037-0.769,0.47-1.562,1.382-1.562c0.913,0,1.153,0.806,1.153,1.562H257.65z M254.878,47.002h-1.653v6.021h1.653V47.002z
	 M254.878,44.555h-1.653v1.33h1.653V44.555z M250.26,53.025v-2.688c0-0.937,0.385-2.005,1.487-2.005c0.181,0,0.36,0.023,0.517,0.084
	l0.049-1.486c-0.154-0.049-0.301-0.061-0.479-0.061c-0.812,0-1.4,0.648-1.689,1.307l-0.035-1.175h-1.562
	c0.051,0.444,0.062,0.892,0.062,1.335v4.688h1.654v0.002H250.26L250.26,53.025z M247.561,51.826
	c-0.217,0.084-0.434,0.133-0.66,0.133c-0.588,0-0.721-0.396-0.721-0.913v-2.953h1.344v-1.091h-1.344v-1.763l-1.654,0.538v1.225
	h-1.08v1.091h1.08v2.931c0,1.262,0.324,2.137,1.703,2.137c0.467,0,0.947-0.084,1.379-0.229L247.561,51.826z M242.664,53.025
	c-0.048-0.42-0.061-0.806-0.061-1.416v-2.39c0-1.765-1.162-2.341-2.783-2.341c-0.672,0-1.452,0.146-2.075,0.396l0.071,1.104
	c0.562-0.301,1.224-0.457,1.764-0.457c0.913,0,1.43,0.324,1.43,1.18v0.203c-0.229-0.014-0.492-0.022-0.721-0.022
	c-1.691,0-3.229,0.432-3.229,2.028c0,1.196,0.936,1.847,2.039,1.847c0.914,0,1.549-0.359,1.969-1.021l0.037,0.89H242.664
	L242.664,53.025z M241.009,50.157v0.252c0,0.889-0.469,1.718-1.478,1.718c-0.516,0-0.889-0.301-0.889-0.889
	c0-0.901,1.057-1.081,2.026-1.081H241.009L241.009,50.157z M235.98,47.002h-1.655v6.021h1.655V47.002z M235.98,44.555h-1.655v1.33
	h1.655V44.555z M228.959,53.025v-3.336c0-0.78,0.288-1.621,1.201-1.621c0.9,0,1.008,0.709,1.008,1.429v3.528h1.655v-3.912
	c0-1.381-0.601-2.231-2.015-2.231c-0.828,0-1.479,0.36-1.853,1.115v-3.622h-1.651v8.65H228.959L228.959,53.025z M226.152,51.754
	c-0.42,0.182-0.805,0.24-1.227,0.24c-1.246,0-1.906-0.889-1.906-2.004c0-1.153,0.693-1.981,1.92-1.981
	c0.42,0,0.813,0.084,1.188,0.265L226.2,47.1c-0.528-0.156-0.984-0.218-1.597-0.218c-1.908,0-3.358,1.151-3.358,3.108
	c0,1.968,1.343,3.167,3.312,3.167c0.611,0,1.115-0.048,1.655-0.229L226.152,51.754z M215.162,55.617
	c0.419,0.072,0.695,0.132,1.163,0.132c1.212,0,1.788-0.743,2.231-2.038l2.229-6.709h-1.635l-1.258,4.598l-1.271-4.598h-1.751
	l2.193,6.24l-0.154,0.492c-0.182,0.525-0.471,0.852-1.032,0.852c-0.229,0-0.42-0.036-0.646-0.12L215.162,55.617z M209.979,52.869
	c0.574,0.204,1.14,0.288,1.821,0.288c1.214,0,2.521-0.503,2.521-1.955c0-2.089-2.782-1.632-2.782-2.581
	c0-0.516,0.563-0.612,0.983-0.612c0.518,0,1.008,0.097,1.485,0.288l0.072-1.197c-0.468-0.134-1.065-0.229-1.654-0.229
	c-1.104,0-2.483,0.48-2.483,1.835c0,1.957,2.811,1.585,2.811,2.617c0,0.516-0.409,0.696-1.046,0.696
	c-0.562,0-1.127-0.136-1.655-0.408L209.979,52.869z M204.828,53.025v-2.952h1.105c1.68,0,3.188-0.731,3.188-2.591
	c0-1.812-1.514-2.461-3.203-2.461h-2.831v8.004H204.828z M204.816,46.209h0.729c1.116,0,1.789,0.336,1.789,1.285
	c0,1.199-0.938,1.381-1.896,1.381h-0.623V46.209z M196.477,53.025v-2.688c0-0.937,0.383-2.005,1.486-2.005
	c0.182,0,0.36,0.023,0.518,0.084l0.047-1.486c-0.153-0.049-0.299-0.061-0.479-0.061c-0.814,0-1.402,0.648-1.689,1.307l-0.036-1.175
	h-1.558c0.047,0.444,0.061,0.892,0.061,1.335v4.688h1.652v0.002H196.477L196.477,53.025z M190.068,44.555h-1.283v1.33h1.283V44.555z
	 M192.372,44.555h-1.283v1.33h1.283V44.555z M193.379,53.025c-0.048-0.443-0.061-0.911-0.061-1.355v-4.668h-1.653v3.312
	c0,0.804-0.265,1.645-1.201,1.645c-0.899,0-0.996-0.72-0.996-1.439v-3.518h-1.653v3.889c0,1.381,0.574,2.27,2.025,2.27
	c0.854,0,1.551-0.372,1.945-1.141l0.035,1.006H193.379L193.379,53.025z M185.7,53.025v-4.92h1.284v-1.104h-1.296V46.4
	c0-0.351,0.084-1.045,0.804-1.045c0.193,0,0.409,0.013,0.588,0.097l0.072-1.056c-0.371-0.131-0.792-0.146-1.176-0.146
	c-1.522,0-1.942,0.947-1.942,2.139V47h-1.116v1.104h1.116v4.92h1.666V53.025z M174.792,53.025v-3.062l2.34,3.062h2.017l-2.688-3.336
	l2.448-2.688h-1.932l-2.185,2.474v-5.101h-1.654v8.649h1.654V53.025z M171.637,47.002h-1.655v6.021h1.655V47.002z M171.637,44.555
	h-1.655v1.33h1.655V44.555z M164.617,53.025v-3.324c0-0.792,0.264-1.633,1.201-1.633c0.9,0,1.009,0.721,1.009,1.438v3.52h1.654v-3.9
	c0-1.38-0.587-2.243-2.039-2.243c-0.853,0-1.562,0.36-1.957,1.127l-0.024-1.007h-1.558c0.048,0.443,0.06,0.898,0.06,1.344v4.68
	H164.617L164.617,53.025z M161.46,47.002h-1.654v6.021h1.654V47.002z M161.46,44.555h-1.654v1.33h1.654V44.555z M158.305,44.373
	h-1.655v8.652h1.655V44.373z M150.588,53.025V49.21l3.061,3.815h2.22l-3.66-4.26l3.372-3.744h-2.1l-2.893,3.457v-3.457h-1.773v8.004
	H150.588z M144.038,50.373v-0.395c0-1.826-0.72-3.1-2.65-3.1c-1.777,0-2.988,1.319-2.988,3.107c0,2.005,1.187,3.166,3.408,3.166
	c0.66,0,1.439-0.146,1.919-0.348l-0.072-1.149c-0.419,0.237-1.067,0.396-1.655,0.396c-1.285,0-1.944-0.636-1.98-1.681
	L144.038,50.373L144.038,50.373z M140.018,49.438c0.036-0.769,0.468-1.562,1.381-1.562c0.912,0,1.152,0.806,1.152,1.562H140.018z
	 M136.07,53.025v-2.688c0-0.937,0.384-2.005,1.488-2.005c0.18,0,0.359,0.023,0.516,0.084l0.048-1.486
	c-0.156-0.049-0.3-0.061-0.479-0.061c-0.816,0-1.404,0.648-1.692,1.307l-0.036-1.175h-1.559c0.048,0.444,0.06,0.892,0.06,1.335
	v4.688h1.654V53.025L136.07,53.025z M129.89,44.555h-1.283v1.33h1.283V44.555z M132.194,44.555h-1.283v1.33h1.283V44.555z
	 M133.022,53.025c-0.048-0.42-0.061-0.806-0.061-1.416v-2.39c0-1.765-1.163-2.341-2.782-2.341c-0.674,0-1.453,0.146-2.076,0.396
	l0.072,1.104c0.562-0.301,1.223-0.457,1.763-0.457c0.913,0,1.429,0.324,1.429,1.18v0.203c-0.228-0.014-0.492-0.022-0.72-0.022
	c-1.693,0-3.229,0.432-3.229,2.028c0,1.196,0.936,1.847,2.039,1.847c0.913,0,1.549-0.359,1.97-1.021l0.035,0.89H133.022
	L133.022,53.025z M131.367,50.157v0.252c0,0.889-0.468,1.718-1.477,1.718c-0.517,0-0.889-0.301-0.889-0.889
	c0-0.901,1.057-1.081,2.029-1.081H131.367L131.367,50.157z M122.474,53.025v-3.324c0-0.792,0.264-1.633,1.201-1.633
	c0.899,0,1.008,0.721,1.008,1.438v3.52h1.654v-3.9c0-1.38-0.588-2.243-2.039-2.243c-0.852,0-1.561,0.36-1.956,1.127l-0.024-1.007
	h-1.559c0.048,0.443,0.06,0.898,0.06,1.344v4.68H122.474L122.474,53.025z M115.43,51.382c-0.204-0.384-0.301-0.899-0.301-1.392
	c0-0.913,0.324-1.981,1.382-1.981c1.079,0,1.381,1.058,1.381,1.981c0,1.02-0.325,2.039-1.381,2.039
	C115.994,52.029,115.658,51.768,115.43,51.382 M115.178,52.941c0.396,0.144,0.841,0.216,1.333,0.216
	c1.968,0,3.154-1.224,3.154-3.167c0-2.006-1.198-3.108-3.154-3.108c-1.85,0-3.155,1.14-3.155,3.108
	C113.356,51.441,114.002,52.486,115.178,52.941 M112.202,47.002h-1.655v6.021h1.655V47.002z M112.202,44.555h-1.655v1.33h1.655
	V44.555z M109.501,51.826c-0.216,0.084-0.432,0.133-0.659,0.133c-0.589,0-0.721-0.396-0.721-0.913v-2.953h1.344v-1.091h-1.344
	v-1.763l-1.653,0.538v1.225h-1.08v1.091h1.08v2.931c0,1.262,0.322,2.137,1.701,2.137c0.469,0,0.948-0.084,1.381-0.229
	L109.501,51.826z M104.606,53.025c-0.048-0.42-0.061-0.806-0.061-1.416v-2.39c0-1.765-1.163-2.341-2.782-2.341
	c-0.673,0-1.452,0.146-2.076,0.396l0.072,1.104c0.563-0.301,1.224-0.457,1.764-0.457c0.913,0,1.429,0.324,1.429,1.18v0.203
	c-0.228-0.014-0.492-0.022-0.721-0.022c-1.693,0-3.228,0.432-3.228,2.028c0,1.196,0.936,1.847,2.039,1.847
	c0.912,0,1.55-0.359,1.97-1.021l0.035,0.89H104.606L104.606,53.025z M102.952,50.157v0.252c0,0.889-0.468,1.718-1.477,1.718
	c-0.517,0-0.89-0.301-0.89-0.889c0-0.901,1.058-1.081,2.03-1.081H102.952L102.952,50.157z M98.377,51.826
	c-0.216,0.084-0.432,0.133-0.659,0.133c-0.589,0-0.721-0.396-0.721-0.913v-2.953h1.345v-1.091h-1.345v-1.763l-1.653,0.538v1.225
	h-1.08v1.091h1.08v2.931c0,1.262,0.323,2.137,1.701,2.137c0.469,0,0.948-0.084,1.381-0.229L98.377,51.826z M89.295,52.869
	c0.575,0.204,1.14,0.288,1.823,0.288c1.213,0,2.52-0.503,2.52-1.955c0-2.089-2.784-1.632-2.784-2.581
	c0-0.516,0.564-0.612,0.985-0.612c0.517,0,1.008,0.097,1.487,0.288l0.072-1.197c-0.468-0.134-1.067-0.229-1.656-0.229
	c-1.104,0-2.482,0.48-2.482,1.835c0,1.957,2.808,1.585,2.808,2.617c0,0.516-0.409,0.696-1.045,0.696
	c-0.564,0-1.128-0.136-1.655-0.408L89.295,52.869z M88.023,44.373h-1.654v8.652h1.654V44.373z M84.867,47.002h-1.654v6.021h1.654
	V47.002z M84.867,44.555h-1.654v1.33h1.654V44.555z M82.083,50.373v-0.395c0-1.826-0.719-3.1-2.65-3.1
	c-1.777,0-2.988,1.319-2.988,3.107c0,2.005,1.187,3.166,3.408,3.166c0.66,0,1.439-0.146,1.919-0.348L81.7,51.657
	c-0.419,0.239-1.067,0.396-1.655,0.396c-1.284,0-1.944-0.636-1.98-1.681L82.083,50.373L82.083,50.373z M78.063,49.438
	c0.036-0.769,0.468-1.562,1.381-1.562c0.912,0,1.152,0.806,1.152,1.562H78.063z M74.415,53.025v-6.588h2.508v-1.416h-6.802v1.416
	h2.508v6.588H74.415z"/>
<path fill="#00267F" d="M295.518,30.026V28.37h-4.843l4.808-5.49v-1.89h-7.486v1.656h4.662l-4.824,5.472v1.908H295.518z
	 M286.95,28.226c-0.324,0.126-0.648,0.198-0.99,0.198c-0.882,0-1.08-0.594-1.08-1.368v-4.428h2.017V20.99h-2.017v-2.646l-2.483,0.81
	v1.836h-1.618v1.638h1.618v4.392c0,1.89,0.485,3.204,2.559,3.204c0.702,0,1.422-0.126,2.066-0.342L286.95,28.226z M279.695,30.026
	c-0.071-0.63-0.09-1.206-0.09-2.124V24.32c0-2.646-1.746-3.51-4.176-3.51c-1.011,0-2.181,0.216-3.113,0.594l0.104,1.656
	c0.849-0.45,1.836-0.684,2.646-0.684c1.367,0,2.144,0.486,2.144,1.764v0.306c-0.342-0.018-0.737-0.036-1.08-0.036
	c-2.538,0-4.842,0.648-4.842,3.042c0,1.8,1.403,2.772,3.062,2.772c1.366,0,2.32-0.54,2.95-1.53l0.056,1.332H279.695z
	 M277.211,25.724v0.378c0,1.332-0.702,2.574-2.214,2.574c-0.774,0-1.332-0.45-1.332-1.332c0-1.35,1.584-1.62,3.042-1.62H277.211z
	 M269.759,17.048h-2.483v12.978h2.483V17.048z M259.463,27.452c-0.288-0.594-0.396-1.35-0.396-1.98c0-1.242,0.396-2.916,1.965-2.916
	c1.638,0,1.926,1.62,1.926,2.916c0,1.296-0.309,3.006-1.941,3.006C260.238,28.478,259.751,28.028,259.463,27.452 M259.139,33.914
	v-5.346c0.45,1.08,1.53,1.656,2.686,1.656c2.771,0,3.798-2.322,3.798-4.752c0-2.412-1.011-4.662-3.744-4.662
	c-1.206,0-2.396,0.612-2.896,1.71l-0.057-1.53h-2.355c0.055,0.774,0.091,1.548,0.091,2.628v10.296H259.139z M248.7,30.026V25.04
	c0-1.188,0.396-2.448,1.8-2.448c1.35,0,1.512,1.08,1.512,2.16v5.274h2.484v-5.85c0-2.07-0.883-3.366-3.061-3.366
	c-1.277,0-2.341,0.54-2.937,1.692l-0.036-1.512h-2.34c0.07,0.666,0.09,1.35,0.09,2.016v7.02H248.7z M244.615,26.048v-0.594
	c0-2.736-1.08-4.644-3.979-4.644c-2.663,0-4.481,1.98-4.481,4.662c0,3.006,1.781,4.752,5.111,4.752c0.988,0,2.158-0.216,2.881-0.522
	l-0.107-1.728c-0.63,0.36-1.604,0.594-2.484,0.594c-1.926,0-2.916-0.954-2.97-2.52H244.615z M238.584,24.644
	c0.055-1.152,0.702-2.34,2.07-2.34c1.367,0,1.728,1.206,1.728,2.34H238.584z M228.396,29.792c0.861,0.306,1.711,0.432,2.733,0.432
	c1.818,0,3.78-0.756,3.78-2.934c0-3.132-4.178-2.448-4.178-3.87c0-0.774,0.848-0.918,1.478-0.918c0.772,0,1.515,0.144,2.229,0.432
	l0.107-1.8c-0.701-0.198-1.602-0.342-2.482-0.342c-1.654,0-3.728,0.72-3.728,2.754c0,2.934,4.212,2.376,4.212,3.924
	c0,0.774-0.611,1.044-1.564,1.044c-0.848,0-1.69-0.198-2.482-0.612L228.396,29.792z M227.137,26.048v-0.594
	c0-2.736-1.08-4.644-3.979-4.644c-2.664,0-4.482,1.98-4.482,4.662c0,3.006,1.782,4.752,5.112,4.752c0.989,0,2.16-0.216,2.88-0.522
	l-0.107-1.728c-0.631,0.36-1.603,0.594-2.481,0.594c-1.929,0-2.916-0.954-2.972-2.52H227.137z M221.107,24.644
	c0.054-1.152,0.701-2.34,2.066-2.34c1.368,0,1.729,1.206,1.729,2.34H221.107z M217.039,20.99h-2.484v9.036h2.484V20.99z
	 M217.039,17.318h-2.484v1.998h2.484V17.318z M210.199,30.026v-4.032c0-1.404,0.576-3.006,2.23-3.006
	c0.271,0,0.54,0.036,0.772,0.126l0.069-2.232c-0.231-0.072-0.447-0.09-0.721-0.09c-1.224,0-2.104,0.972-2.537,1.962l-0.055-1.746
	h-2.34c0.072,0.666,0.09,1.332,0.09,1.998v7.02H210.199z M201.289,30.026v-5.058h4.807V23.15h-4.807v-3.294h5.021V18.02h-7.688
	v12.006H201.289z M180.031,30.026v-5.004c0-1.152,0.414-2.43,1.674-2.43c1.116,0,1.368,0.846,1.368,1.8v5.634h2.466v-5.004
	c0-1.152,0.414-2.43,1.674-2.43c1.098,0,1.387,0.846,1.387,1.8v5.634h2.483v-5.85c0-1.962-0.774-3.366-2.935-3.366
	c-1.134,0-2.357,0.684-2.792,1.782c-0.343-1.062-1.314-1.782-2.683-1.782c-1.296,0-2.286,0.558-2.844,1.692l-0.036-1.512h-2.34
	c0.072,0.666,0.09,1.35,0.09,2.016v7.02H180.031z M175.549,30.026c-0.072-0.63-0.09-1.206-0.09-2.124V24.32
	c0-2.646-1.746-3.51-4.176-3.51c-1.008,0-2.178,0.216-3.114,0.594l0.108,1.656c0.846-0.45,1.836-0.684,2.646-0.684
	c1.368,0,2.143,0.486,2.143,1.764v0.306c-0.343-0.018-0.738-0.036-1.08-0.036c-2.538,0-4.843,0.648-4.843,3.042
	c0,1.8,1.404,2.772,3.061,2.772c1.368,0,2.322-0.54,2.952-1.53l0.054,1.332H175.549z M173.066,25.724v0.378
	c0,1.332-0.702,2.574-2.215,2.574c-0.773,0-1.332-0.45-1.332-1.332c0-1.35,1.584-1.62,3.042-1.62H173.066z M154.94,30.026v-4.59
	l3.51,4.59h3.023l-4.031-5.004l3.672-4.032h-2.898l-3.275,3.708v-7.65h-2.484v12.978H154.94z M150.295,20.99h-2.484v9.036h2.484
	V20.99z M150.295,17.318h-2.484v1.998h2.484V17.318z M139.856,30.026V25.04c0-1.188,0.396-2.448,1.8-2.448
	c1.35,0,1.512,1.08,1.512,2.16v5.274h2.484v-5.85c0-2.07-0.883-3.366-3.061-3.366c-1.277,0-2.34,0.54-2.934,1.692l-0.036-1.512
	h-2.34c0.071,0.666,0.09,1.35,0.09,2.016v7.02H139.856z M135.212,20.99h-2.484v9.036h2.484V20.99z M135.212,17.318h-2.484v1.998
	h2.484V17.318z M130.569,17.048h-2.484v12.978h2.484V17.048z M120.453,30.026v-4.59l3.51,4.59h3.024l-4.032-5.004l3.672-4.032
	h-2.898l-3.275,3.708v-7.65h-2.484v12.978H120.453z M109.689,29.792c0.863,0.306,1.71,0.432,2.735,0.432
	c1.818,0,3.78-0.756,3.78-2.934c0-3.132-4.176-2.448-4.176-3.87c0-0.774,0.846-0.918,1.476-0.918c0.774,0,1.512,0.144,2.232,0.432
	l0.107-1.8c-0.702-0.198-1.602-0.342-2.483-0.342c-1.656,0-3.727,0.72-3.727,2.754c0,2.934,4.212,2.376,4.212,3.924
	c0,0.774-0.611,1.044-1.564,1.044c-0.847,0-1.692-0.198-2.484-0.612L109.689,29.792z M108.428,26.048v-0.594
	c0-2.736-1.08-4.644-3.978-4.644c-2.664,0-4.482,1.98-4.482,4.662c0,3.006,1.782,4.752,5.112,4.752c0.99,0,2.16-0.216,2.88-0.522
	l-0.108-1.728c-0.63,0.36-1.602,0.594-2.483,0.594c-1.926,0-2.916-0.954-2.97-2.52H108.428z M102.399,24.644
	c0.054-1.152,0.701-2.34,2.069-2.34c1.368,0,1.729,1.206,1.729,2.34H102.399z M92.374,27.362c-0.288-0.558-0.36-1.242-0.36-1.872
	c0-1.296,0.288-2.934,1.927-2.934c1.565,0,1.962,1.674,1.962,2.934c0,1.224-0.433,2.808-1.962,2.808
	C93.148,28.298,92.662,27.884,92.374,27.362 M90.087,33.626c1.098,0.342,2.25,0.486,3.402,0.486c3.042,0,4.842-1.566,4.842-4.663
	v-8.46h-2.412v1.494c-0.558-1.152-1.62-1.674-2.862-1.674c-2.664,0-3.708,2.25-3.708,4.662c0,2.304,1.044,4.554,3.673,4.554
	c1.151,0,2.195-0.558,2.825-1.548v0.972c0,1.818-0.899,2.953-2.897,2.953c-0.99,0-1.908-0.217-2.754-0.667L90.087,33.626z
	 M87.874,30.026c-0.072-0.63-0.09-1.206-0.09-2.124V24.32c0-2.646-1.746-3.51-4.176-3.51c-1.009,0-2.179,0.216-3.114,0.594
	l0.107,1.656c0.847-0.45,1.837-0.684,2.646-0.684c1.368,0,2.142,0.486,2.142,1.764v0.306c-0.342-0.018-0.737-0.036-1.08-0.036
	c-2.537,0-4.842,0.648-4.842,3.042c0,1.8,1.404,2.772,3.061,2.772c1.368,0,2.321-0.54,2.952-1.53l0.054,1.332H87.874z
	 M85.389,25.724v0.378c0,1.332-0.701,2.574-2.214,2.574c-0.773,0-1.332-0.45-1.332-1.332c0-1.35,1.584-1.62,3.042-1.62H85.389z
	 M76.624,30.026v-9.882h3.762V18.02H70.179v2.124h3.763v9.882H76.624z"/>
<text transform="matrix(1 0 0 1 205.0732 -58.1768)" fill="#6F6F6E" font-family="'FrutigerNextLT-Bold'" font-size="7.5"> </text>
<g>
	<path fill="#6F6F6E" d="M77.975,69.016v-3.91c0-0.803-0.288-1.438-1.188-1.438c-1.091,0-1.487,1.078-1.487,2.121v3.227h-0.875
		v-3.91c0-0.803-0.276-1.438-1.176-1.438c-1.091,0-1.499,1.078-1.499,2.121v3.227h-0.875v-4.566c0-0.471-0.012-0.938-0.06-1.404
		h0.804l0.036,1.031c0.408-0.779,1.007-1.15,1.787-1.15c0.984,0,1.595,0.623,1.739,1.246c0.276-0.74,1.055-1.246,1.811-1.246
		c1.223,0,1.859,0.863,1.859,2.027v4.062H77.975z"/>
	<path fill="#6F6F6E" d="M80.595,61.713v-1.045h0.875v1.045H80.595z M80.595,69.016v-5.973h0.875v5.973H80.595z"/>
	<path fill="#6F6F6E" d="M85.046,69.148c-1.223,0-1.379-0.891-1.379-1.979v-3.442H82.54v-0.685h1.127v-1.344L84.53,61.4v1.643h1.354
		v0.684H84.53v3.67c0,0.527,0.144,0.996,0.768,0.996c0.24,0,0.456-0.061,0.671-0.156l0.048,0.732
		C85.718,69.088,85.358,69.148,85.046,69.148z"/>
	<path fill="#6F6F6E" d="M96.095,69.016l-0.828-2.17h-3.921l-0.852,2.17H89.57l3.19-8h1.115l3.202,8H96.095z M93.313,61.783
		l-1.691,4.295h3.358L93.313,61.783z"/>
	<path fill="#6F6F6E" d="M105.107,69.016v-3.91c0-0.803-0.288-1.438-1.188-1.438c-1.092,0-1.487,1.078-1.487,2.121v3.227h-0.876
		v-3.91c0-0.803-0.275-1.438-1.175-1.438c-1.091,0-1.499,1.078-1.499,2.121v3.227h-0.875v-4.566c0-0.471-0.012-0.938-0.06-1.404
		h0.804l0.036,1.031c0.408-0.779,1.007-1.15,1.787-1.15c0.983,0,1.596,0.623,1.739,1.246c0.275-0.74,1.056-1.246,1.811-1.246
		c1.224,0,1.859,0.863,1.859,2.027v4.062H105.107z"/>
	<path fill="#6F6F6E" d="M110.425,69.148c-0.828,0-1.487-0.373-1.871-1.127l-0.024,0.994h-0.803v-8.646h0.875v3.682
		c0.3-0.695,1.092-1.127,1.835-1.127c1.823,0,2.423,1.498,2.423,3.082C112.86,67.553,112.2,69.148,110.425,69.148z M110.257,63.668
		c-1.247,0-1.691,1.295-1.691,2.338s0.42,2.398,1.691,2.398c1.331,0,1.655-1.307,1.655-2.398
		C111.913,64.902,111.613,63.668,110.257,63.668z"/>
	<path fill="#6F6F6E" d="M118.164,69.016l-0.023-1.031c-0.42,0.758-1.056,1.164-1.931,1.164c-1.523,0-1.991-1.029-1.991-2.408
		v-3.695h0.875v3.539c0,0.946,0.181,1.812,1.319,1.812c1.248,0,1.632-1.068,1.632-2.137v-3.215h0.863v4.57
		c0,0.467,0.012,0.936,0.06,1.4H118.164z"/>
	<path fill="#6F6F6E" d="M120.663,69.016V60.37h0.875v8.646H120.663z"/>
	<path fill="#6F6F6E" d="M126.661,69.016l-0.036-0.959c-0.336,0.695-1.115,1.092-1.859,1.092c-1.067,0-1.954-0.541-1.954-1.689
		c0-1.535,1.463-2.074,3.298-2.074h0.468v-0.287c0-0.91-0.36-1.477-1.344-1.477c-0.611,0-1.187,0.133-1.715,0.479l-0.072-0.781
		c0.504-0.227,1.271-0.395,1.823-0.395c1.487,0,2.171,0.744,2.171,2.23v2.59c0,0.445,0.012,0.863,0.072,1.271H126.661
		L126.661,69.016z M126.577,66.018h-0.168c-1.067,0-2.698,0.084-2.698,1.404c0,0.695,0.563,1.018,1.211,1.018
		c1.271,0,1.655-0.945,1.655-2.062V66.018z"/>
	<path fill="#6F6F6E" d="M133.044,69.016v-3.537c0-0.945-0.204-1.811-1.344-1.811c-1.247,0-1.631,1.066-1.631,2.135v3.213h-0.875
		v-4.566c0-0.471-0.013-0.938-0.061-1.404h0.804l0.036,1.031c0.42-0.758,1.056-1.15,1.931-1.15c1.523,0,2.003,1.01,2.003,2.389
		v3.705h-0.863V69.016z"/>
	<path fill="#6F6F6E" d="M135.146,69.016v-0.707l3.37-4.568h-3.237v-0.695h4.222v0.709l-3.37,4.566h3.394v0.695H135.146z"/>
	<path fill="#6F6F6E" d="M147.923,69.016l-0.023-1.031c-0.42,0.758-1.056,1.164-1.931,1.164c-1.522,0-1.991-1.029-1.991-2.408
		v-3.695h0.875v3.539c0,0.946,0.181,1.812,1.319,1.812c1.248,0,1.632-1.068,1.632-2.137v-3.215h0.863v4.57
		c0,0.467,0.012,0.936,0.06,1.4H147.923z"/>
	<path fill="#6F6F6E" d="M154.272,69.016v-3.537c0-0.945-0.204-1.811-1.344-1.811c-1.247,0-1.631,1.066-1.631,2.135v3.213h-0.875
		v-4.566c0-0.471-0.013-0.938-0.061-1.404h0.804l0.036,1.031c0.42-0.758,1.056-1.15,1.931-1.15c1.523,0,2.003,1.01,2.003,2.389
		v3.705h-0.863V69.016z"/>
	<path fill="#6F6F6E" d="M160.908,69.016l-0.072-0.994c-0.384,0.754-1.043,1.127-1.871,1.127c-1.774,0-2.435-1.596-2.435-3.143
		c0-1.584,0.66-3.082,2.459-3.082c0.743,0,1.499,0.432,1.799,1.127v-3.682h0.875v6.752c0,0.648,0.024,1.271,0.061,1.895H160.908z
		 M159.121,63.668c-1.355,0-1.655,1.246-1.655,2.35c0,1.092,0.336,2.388,1.667,2.388c1.271,0,1.68-1.345,1.68-2.388
		S160.368,63.668,159.121,63.668z"/>
	<path fill="#6F6F6E" d="M168.325,69.148c-0.648,0-1.319-0.084-1.919-0.336l0.06-0.924c0.563,0.348,1.188,0.469,1.847,0.469
		c0.972,0,1.751-0.445,1.751-1.488c0-0.719-0.695-1.127-1.427-1.512l-0.827-0.443c-0.78-0.42-1.464-0.959-1.464-1.918
		c0-1.451,1.367-2.1,2.663-2.1c0.552,0,1.104,0.07,1.619,0.252L170.555,62c-0.443-0.229-1.044-0.312-1.535-0.312
		c-0.84,0-1.703,0.312-1.703,1.271c0,0.625,0.563,0.984,1.199,1.32l0.828,0.443c0.887,0.467,1.702,1.02,1.702,2.135
		C171.046,68.357,169.788,69.148,168.325,69.148z"/>
	<path fill="#6F6F6E" d="M175.848,69.016l-0.036-0.959c-0.336,0.695-1.115,1.092-1.859,1.092c-1.067,0-1.954-0.541-1.954-1.689
		c0-1.535,1.463-2.074,3.298-2.074h0.468v-0.287c0-0.91-0.36-1.477-1.344-1.477c-0.611,0-1.187,0.133-1.715,0.479l-0.072-0.781
		c0.504-0.227,1.271-0.395,1.823-0.395c1.487,0,2.171,0.744,2.171,2.23v2.59c0,0.445,0.012,0.863,0.072,1.271H175.848
		L175.848,69.016z M175.764,66.018h-0.168c-1.067,0-2.698,0.084-2.698,1.404c0,0.695,0.563,1.018,1.211,1.018
		c1.271,0,1.655-0.945,1.655-2.062V66.018z"/>
	<path fill="#6F6F6E" d="M180.875,69.148c-1.835,0-2.854-1.404-2.854-3.145c0-1.773,1.115-3.082,2.938-3.082
		c0.492,0,0.995,0.098,1.463,0.252l-0.071,0.779c-0.384-0.182-0.816-0.303-1.248-0.303c-1.427,0-2.146,1.01-2.146,2.354
		c0,1.262,0.72,2.41,2.087,2.41c0.456,0,0.899-0.105,1.319-0.273l0.06,0.777C181.919,69.088,181.403,69.148,180.875,69.148z"/>
	<path fill="#6F6F6E" d="M187.547,69.016v-3.549c0-0.947-0.204-1.799-1.343-1.799c-1.235,0-1.631,1.066-1.631,2.121v3.227h-0.875
		V60.37h0.875v3.682c0.384-0.756,0.995-1.127,1.847-1.127c1.463,0,1.991,1.009,1.991,2.388v3.705h-0.864V69.016z"/>
	<path fill="#6F6F6E" d="M192.455,69.016h-1.031l-2.002-5.973h0.947l1.596,5.205l1.605-5.205h0.912L192.455,69.016z"/>
	<path fill="#6F6F6E" d="M196.033,66.27c0,1.164,0.66,2.17,1.918,2.17c0.518,0,1.248-0.152,1.691-0.418l0.07,0.814
		c-0.551,0.217-1.246,0.312-1.846,0.312c-1.934,0-2.748-1.355-2.748-3.145c0-1.534,0.938-3.082,2.543-3.082
		c1.689,0,2.361,1.393,2.361,2.986v0.357h-3.991L196.033,66.27L196.033,66.27z M197.676,63.619c-1.092,0-1.643,1.188-1.643,2.002
		h3.105C199.139,64.699,198.768,63.619,197.676,63.619z"/>
	<path fill="#6F6F6E" d="M204.203,63.848c-0.156-0.049-0.324-0.072-0.479-0.072c-1.227,0-1.479,1.346-1.479,2.279v2.961h-0.875
		v-4.566c0-0.471-0.014-0.938-0.062-1.404h0.807l0.047,1.127c0.238-0.609,0.84-1.246,1.584-1.246c0.168,0,0.336,0,0.504,0.049
		L204.203,63.848z"/>
	<path fill="#6F6F6E" d="M206.568,69.148c-0.576,0-1.164-0.072-1.703-0.275l0.072-0.816c0.479,0.252,1.043,0.371,1.582,0.371
		c0.672,0,1.248-0.322,1.248-0.994c0-1.451-2.893-1.045-2.893-2.879c0-1.152,1.064-1.631,2.051-1.631
		c0.492,0,1.031,0.096,1.486,0.264l-0.07,0.73c-0.385-0.166-0.924-0.287-1.344-0.287c-0.576,0-1.225,0.18-1.225,0.912
		c0,1.115,2.891,0.863,2.891,2.865C208.666,68.561,207.623,69.148,206.568,69.148z"/>
	<path fill="#6F6F6E" d="M211.812,69.148c-1.227,0-1.381-0.891-1.381-1.979v-3.442h-1.127v-0.685h1.127v-1.344l0.861-0.3v1.644
		h1.354v0.685h-1.354v3.67c0,0.526,0.146,0.996,0.77,0.996c0.239,0,0.457-0.062,0.672-0.156l0.049,0.731
		C212.482,69.088,212.123,69.148,211.812,69.148z"/>
	<path fill="#6F6F6E" d="M217.295,69.016l-0.037-0.959c-0.336,0.695-1.115,1.092-1.859,1.092c-1.064,0-1.953-0.541-1.953-1.689
		c0-1.535,1.465-2.074,3.299-2.074h0.469v-0.287c0-0.91-0.359-1.477-1.344-1.477c-0.611,0-1.188,0.133-1.717,0.479l-0.07-0.781
		c0.504-0.227,1.271-0.395,1.82-0.395c1.488,0,2.174,0.744,2.174,2.23v2.59c0,0.445,0.012,0.863,0.07,1.271H217.295L217.295,69.016z
		 M217.211,66.018h-0.168c-1.068,0-2.699,0.084-2.699,1.404c0,0.695,0.564,1.018,1.211,1.018c1.271,0,1.656-0.945,1.656-2.062
		V66.018z M214.619,61.713v-1.045h0.793v1.045H214.619z M216.479,61.713v-1.045h0.791v1.045H216.479z"/>
	<path fill="#6F6F6E" d="M223.678,69.016v-3.537c0-0.945-0.203-1.811-1.344-1.811c-1.246,0-1.631,1.066-1.631,2.135v3.213h-0.875
		v-4.566c0-0.471-0.012-0.938-0.061-1.404h0.805l0.035,1.031c0.42-0.758,1.057-1.15,1.932-1.15c1.523,0,2.002,1.01,2.002,2.389
		v3.705h-0.863V69.016z"/>
	<path fill="#6F6F6E" d="M230.314,69.016l-0.072-0.994c-0.383,0.754-1.043,1.127-1.871,1.127c-1.773,0-2.434-1.596-2.434-3.143
		c0-1.584,0.66-3.082,2.459-3.082c0.742,0,1.498,0.432,1.799,1.127v-3.682h0.875v6.752c0,0.648,0.021,1.271,0.061,1.895H230.314z
		 M228.527,63.668c-1.355,0-1.654,1.246-1.654,2.35c0,1.092,0.336,2.388,1.666,2.388c1.271,0,1.68-1.345,1.68-2.388
		S229.775,63.668,228.527,63.668z"/>
	<path fill="#6F6F6E" d="M232.812,61.713v-1.045h0.875v1.045H232.812z M232.812,69.016v-5.973h0.875v5.973H232.812z"/>
	<path fill="#6F6F6E" d="M237.406,71.738c-0.623,0-1.26-0.119-1.859-0.312l0.072-0.852c0.527,0.264,1.127,0.432,1.729,0.432
		c1.438,0,1.979-0.973,1.979-2.277V67.96c-0.358,0.66-1.104,1.056-1.849,1.056c-1.765,0-2.41-1.548-2.41-3.011
		c0-1.584,0.673-3.082,2.435-3.082c0.84,0,1.488,0.371,1.871,1.127v-1.008h0.828v5.674C240.201,70.576,239.35,71.738,237.406,71.738
		z M237.67,63.668c-1.355,0-1.666,1.246-1.666,2.35c0,1.031,0.324,2.256,1.654,2.256c1.271,0,1.691-1.26,1.691-2.256
		C239.35,64.975,238.918,63.668,237.67,63.668z"/>
	<path fill="#6F6F6E" d="M242.496,66.27c0,1.164,0.66,2.17,1.918,2.17c0.518,0,1.248-0.152,1.691-0.418l0.07,0.814
		c-0.551,0.217-1.244,0.312-1.846,0.312c-1.934,0-2.748-1.355-2.748-3.145c0-1.534,0.938-3.082,2.543-3.082
		c1.689,0,2.363,1.393,2.363,2.986v0.357h-3.993L242.496,66.27L242.496,66.27z M244.139,63.619c-1.092,0-1.643,1.188-1.643,2.002
		h3.105C245.602,64.699,245.23,63.619,244.139,63.619z"/>
	<path fill="#6F6F6E" d="M251.686,69.016v-3.537c0-0.945-0.203-1.811-1.344-1.811c-1.246,0-1.631,1.066-1.631,2.135v3.213h-0.875
		v-4.566c0-0.471-0.012-0.938-0.061-1.404h0.805l0.035,1.031c0.42-0.758,1.057-1.15,1.932-1.15c1.523,0,2.002,1.01,2.002,2.389
		v3.705h-0.863V69.016z"/>
	<path fill="#6F6F6E" d="M257.002,69.148c-0.828,0-1.486-0.373-1.871-1.127l-0.023,0.994h-0.803v-8.646h0.875v3.682
		c0.299-0.695,1.092-1.127,1.834-1.127c1.824,0,2.424,1.498,2.424,3.082C259.438,67.553,258.777,69.148,257.002,69.148z
		 M256.834,63.668c-1.246,0-1.691,1.295-1.691,2.338s0.42,2.398,1.691,2.398c1.332,0,1.656-1.307,1.656-2.398
		C258.49,64.902,258.189,63.668,256.834,63.668z"/>
	<path fill="#6F6F6E" d="M264.754,69.016l-0.047-1.031c-0.432,0.758-1.033,1.164-1.92,1.164c-1.523,0-1.99-1.02-1.99-2.396v-3.707
		h0.875v3.553c0,0.945,0.18,1.811,1.318,1.811c1.248,0,1.633-1.08,1.633-2.135v-3.229h0.863v4.57c0,0.479,0.012,0.945,0.059,1.4
		H264.754z M261.828,61.713v-1.045h0.791v1.045H261.828z M263.688,61.713v-1.045h0.791v1.045H263.688z"/>
	<path fill="#6F6F6E" d="M270.07,63.848c-0.156-0.049-0.324-0.072-0.479-0.072c-1.225,0-1.477,1.346-1.477,2.279v2.961h-0.875
		v-4.566c0-0.471-0.013-0.938-0.062-1.404h0.806l0.047,1.127c0.24-0.609,0.841-1.246,1.585-1.246c0.168,0,0.336,0,0.504,0.049
		L270.07,63.848z"/>
	<path fill="#6F6F6E" d="M273.479,69.148c-1.857,0-2.795-1.416-2.795-3.145c0-1.715,1.031-3.082,2.795-3.082
		c1.871,0,2.795,1.318,2.795,3.082C276.273,67.732,275.326,69.148,273.479,69.148z M273.479,63.654
		c-1.316,0-1.857,1.199-1.857,2.352c0,1.15,0.541,2.41,1.857,2.41c1.32,0,1.859-1.246,1.859-2.41
		C275.338,64.818,274.834,63.654,273.479,63.654z"/>
</g>
<g>
	<path fill="#6F6F6E" d="M70.664,90.889c0.564,0.348,1.175,0.468,1.847,0.468c0.911,0,1.631-0.396,1.631-1.451
		c0-0.84-0.636-1.235-1.379-1.619l-0.648-0.349c-0.768-0.419-1.379-0.911-1.379-1.967c0-1.451,1.284-2.074,2.579-2.074
		c0.564,0,1.056,0.084,1.547,0.287l-0.108,0.852c-0.432-0.239-0.936-0.348-1.427-0.348c-0.839,0-1.619,0.288-1.619,1.247
		c0,0.66,0.479,1.032,1.115,1.367l0.648,0.349c0.899,0.479,1.655,0.971,1.655,2.194c0,1.499-1.235,2.303-2.603,2.303
		c-0.684,0-1.355-0.096-1.967-0.372L70.664,90.889z"/>
	<path fill="#6F6F6E" d="M80.706,91.92c-0.516,0.18-1.02,0.228-1.547,0.228c-1.835,0-2.854-1.403-2.854-3.143
		c0-1.774,1.115-3.082,2.938-3.082c0.492,0,0.996,0.096,1.463,0.252l-0.072,0.779c-0.384-0.18-0.815-0.3-1.247-0.3
		c-1.439,0-2.147,1.008-2.147,2.351c0,1.26,0.708,2.411,2.087,2.411c0.468,0,0.899-0.096,1.319-0.276L80.706,91.92z"/>
	<path fill="#6F6F6E" d="M81.98,92.016v-8.647h0.875v3.683c0.384-0.756,0.996-1.128,1.847-1.128c1.463,0,1.991,1.008,1.991,2.387
		v3.706H85.83v-3.55c0-0.947-0.192-1.799-1.343-1.799c-1.235,0-1.631,1.067-1.631,2.122v3.227H81.98z"/>
	<path fill="#6F6F6E" d="M89.623,92.016l-1.895-5.973h0.936l1.523,5.157l1.547-5.157h1.043l1.547,5.157l1.511-5.157h0.839
		l-1.859,5.973h-1.067l-1.523-5.146l-1.547,5.146H89.623z"/>
	<path fill="#6F6F6E" d="M98.228,89.138c0,1.15,0.612,2.303,2.111,2.303c0.576,0,1.199-0.168,1.643-0.456l0.036,0.779
		c-0.516,0.252-1.116,0.384-1.679,0.384c-2.063,0-3.022-1.355-3.022-3.143c0-1.522,0.875-3.082,2.663-3.082
		c1.859,0,2.387,1.487,2.387,3.07v0.145H98.228z M101.514,88.489c-0.06-0.815-0.36-1.871-1.523-1.871
		c-1.14,0-1.728,1.02-1.763,1.871H101.514z"/>
	<path fill="#6F6F6E" d="M103.592,92.016v-4.569c0-0.468-0.012-0.936-0.06-1.403h0.804l0.048,1.127
		c0.228-0.611,0.852-1.247,1.583-1.247c0.18,0,0.324,0,0.504,0.048l-0.048,0.876c-0.156-0.048-0.324-0.072-0.48-0.072
		c-1.211,0-1.475,1.344-1.475,2.279v2.962H103.592z"/>
	<path fill="#6F6F6E" d="M107.527,94.606v-6.561c0-0.708-0.024-1.331-0.06-2.003h0.828l0.048,1.043
		c0.324-0.707,1.104-1.163,1.895-1.163c1.823,0,2.423,1.499,2.423,3.082c0,1.535-0.66,3.143-2.435,3.143
		c-0.78,0-1.523-0.396-1.823-1.104v3.562H107.527z M110.058,91.404c1.331,0,1.655-1.308,1.655-2.399c0-1.103-0.3-2.338-1.655-2.338
		c-1.248,0-1.691,1.283-1.691,2.338c0,0.528,0.108,1.116,0.36,1.596C109.002,91.068,109.422,91.404,110.058,91.404z"/>
	<path fill="#6F6F6E" d="M114.895,89.581c0,0.947,0.18,1.811,1.319,1.811c1.247,0,1.631-1.079,1.631-2.135v-3.214h0.864v4.569
		c0,0.468,0.012,0.936,0.06,1.403h-0.804l-0.024-1.031c-0.42,0.768-1.056,1.163-1.931,1.163c-1.523,0-1.991-1.02-1.991-2.41v-3.694
		h0.875V89.581z"/>
	<path fill="#6F6F6E" d="M120.463,92.016v-4.569c0-0.468-0.012-0.936-0.06-1.403h0.804l0.036,1.031
		c0.419-0.768,1.067-1.151,1.931-1.151c1.535,0,2.003,1.008,2.003,2.387v3.706h-0.863v-3.538c0-0.947-0.192-1.811-1.343-1.811
		c-1.248,0-1.631,1.079-1.631,2.135v3.214H120.463z"/>
	<path fill="#6F6F6E" d="M126.931,92.016v-8.647h0.875v5.146l2.531-2.471h1.091l-2.747,2.639l3.07,3.334h-1.151l-2.794-3.118v3.118
		H126.931z"/>
	<path fill="#6F6F6E" d="M135.485,91.968c-0.3,0.132-0.648,0.18-0.972,0.18c-1.223,0-1.379-0.888-1.379-1.979v-3.442h-1.127v-0.684
		h1.127v-1.344l0.864-0.3v1.644h1.355v0.684h-1.355v3.67c0,0.527,0.144,0.995,0.768,0.995c0.24,0,0.444-0.06,0.671-0.155
		L135.485,91.968z"/>
	<path fill="#6F6F6E" d="M137.143,89.138c0,1.15,0.612,2.303,2.111,2.303c0.576,0,1.199-0.168,1.643-0.456l0.036,0.779
		c-0.516,0.252-1.116,0.384-1.679,0.384c-2.063,0-3.022-1.355-3.022-3.143c0-1.522,0.875-3.082,2.663-3.082
		c1.859,0,2.387,1.487,2.387,3.07v0.145H137.143z M140.429,88.489c-0.06-0.815-0.36-1.871-1.523-1.871
		c-1.14,0-1.728,1.02-1.763,1.871H140.429z"/>
	<path fill="#6F6F6E" d="M142.747,87.11v-1.067h1.032v1.067H142.747z M142.747,92.016v-1.067h1.032v1.067H142.747z"/>
	<path fill="#6F6F6E" d="M149.155,92.016v-8h2.087c2.555,0,4.138,1.284,4.138,3.887c0,2.83-1.931,4.113-4.582,4.113H149.155z
		 M150.102,91.236h0.672c2.255,0,3.61-0.996,3.61-3.334c0-2.016-1.151-3.106-3.178-3.106h-1.104V91.236z"/>
	<path fill="#6F6F6E" d="M157.35,89.138c0,1.15,0.611,2.303,2.111,2.303c0.576,0,1.199-0.168,1.643-0.456l0.036,0.779
		c-0.516,0.252-1.116,0.384-1.679,0.384c-2.063,0-3.022-1.355-3.022-3.143c0-1.522,0.875-3.082,2.663-3.082
		c1.859,0,2.387,1.487,2.387,3.07v0.145H157.35z M160.636,88.489c-0.06-0.815-0.36-1.871-1.523-1.871
		c-1.139,0-1.727,1.02-1.763,1.871H160.636z"/>
	<path fill="#6F6F6E" d="M162.714,94.606v-6.561c0-0.708-0.024-1.331-0.06-2.003h0.828l0.048,1.043
		c0.324-0.707,1.104-1.163,1.895-1.163c1.823,0,2.423,1.499,2.423,3.082c0,1.535-0.66,3.143-2.435,3.143
		c-0.78,0-1.523-0.396-1.823-1.104v3.562H162.714z M165.245,91.404c1.331,0,1.655-1.308,1.655-2.399c0-1.103-0.3-2.338-1.655-2.338
		c-1.248,0-1.691,1.283-1.691,2.338c0,0.528,0.108,1.116,0.36,1.596C164.189,91.068,164.609,91.404,165.245,91.404z"/>
	<path fill="#6F6F6E" d="M169.23,92.016v-4.569c0-0.468-0.012-0.936-0.06-1.403h0.804l0.048,1.127
		c0.228-0.611,0.852-1.247,1.583-1.247c0.18,0,0.324,0,0.504,0.048l-0.048,0.876c-0.156-0.048-0.324-0.072-0.48-0.072
		c-1.211,0-1.475,1.344-1.475,2.279v2.962H169.23z"/>
	<path fill="#6F6F6E" d="M173.55,89.138c0,1.15,0.611,2.303,2.111,2.303c0.576,0,1.199-0.168,1.643-0.456l0.036,0.779
		c-0.516,0.252-1.116,0.384-1.679,0.384c-2.063,0-3.022-1.355-3.022-3.143c0-1.522,0.875-3.082,2.663-3.082
		c1.859,0,2.387,1.487,2.387,3.07v0.145H173.55z M176.836,88.489c-0.06-0.815-0.36-1.871-1.523-1.871
		c-1.139,0-1.727,1.02-1.763,1.871H176.836z"/>
	<path fill="#6F6F6E" d="M178.651,91.056c0.479,0.252,0.923,0.372,1.463,0.372c0.672,0,1.14-0.323,1.14-0.995
		c0-1.451-2.579-1.031-2.579-2.854c0-1.199,0.996-1.655,1.931-1.655c0.492,0,0.936,0.096,1.355,0.252l-0.12,0.756
		c-0.372-0.18-0.803-0.3-1.223-0.3c-0.468,0-1.067,0.18-1.067,0.899c0,1.199,2.603,0.827,2.603,2.83
		c0,1.151-0.972,1.787-2.027,1.787c-0.576,0-1.104-0.072-1.583-0.275L178.651,91.056z"/>
	<path fill="#6F6F6E" d="M183.318,91.056c0.479,0.252,0.923,0.372,1.463,0.372c0.672,0,1.14-0.323,1.14-0.995
		c0-1.451-2.579-1.031-2.579-2.854c0-1.199,0.995-1.655,1.931-1.655c0.492,0,0.936,0.096,1.355,0.252l-0.12,0.756
		c-0.372-0.18-0.803-0.3-1.223-0.3c-0.468,0-1.067,0.18-1.067,0.899c0,1.199,2.603,0.827,2.603,2.83
		c0,1.151-0.972,1.787-2.027,1.787c-0.576,0-1.104-0.072-1.583-0.275L183.318,91.056z"/>
	<path fill="#6F6F6E" d="M188.25,84.712v-1.044h0.875v1.044H188.25z M188.25,92.016v-5.973h0.875v5.973H188.25z"/>
	<path fill="#6F6F6E" d="M190.506,89.005c0-1.715,1.02-3.082,2.795-3.082c1.871,0,2.795,1.319,2.795,3.082
		c0,1.728-0.947,3.143-2.795,3.143c-0.467,0-0.875-0.084-1.223-0.24C191.033,91.404,190.506,90.312,190.506,89.005z M193.301,91.416
		c1.307,0,1.859-1.26,1.859-2.411c0-1.199-0.516-2.351-1.859-2.351c-1.318,0-1.859,1.199-1.859,2.351
		c0,0.576,0.133,1.176,0.432,1.644C192.174,91.092,192.641,91.416,193.301,91.416z"/>
	<path fill="#6F6F6E" d="M197.479,92.016v-4.569c0-0.468-0.014-0.936-0.061-1.403h0.803l0.037,1.031
		c0.42-0.768,1.066-1.151,1.93-1.151c1.535,0,2.004,1.008,2.004,2.387v3.706h-0.863v-3.538c0-0.947-0.193-1.811-1.344-1.811
		c-1.248,0-1.631,1.079-1.631,2.135v3.214H197.479z"/>
	<path fill="#6F6F6E" d="M203.527,93.551l0.695-2.603h1.008l-0.996,2.603H203.527z"/>
	<path fill="#6F6F6E" d="M209.623,92.016l3.189-8h1.115l3.203,8h-0.984l-0.826-2.171h-3.922l-0.852,2.171H209.623z M211.674,89.077
		h3.357l-1.666-4.294L211.674,89.077z"/>
	<path fill="#6F6F6E" d="M218.059,92.016v-4.569c0-0.468-0.014-0.936-0.061-1.403h0.803l0.037,1.031
		c0.42-0.768,1.066-1.151,1.93-1.151c1.535,0,2.004,1.008,2.004,2.387v3.706h-0.863v-3.538c0-0.947-0.193-1.811-1.344-1.811
		c-1.248,0-1.631,1.079-1.631,2.135v3.214H218.059z"/>
	<path fill="#6F6F6E" d="M224.717,93.575c0.527,0.275,1.115,0.432,1.729,0.432c1.438,0,1.979-0.983,1.979-2.279V90.96
		c-0.373,0.672-1.092,1.056-1.848,1.056c-1.775,0-2.41-1.535-2.41-3.011c0-1.583,0.672-3.082,2.434-3.082
		c0.852,0,1.488,0.36,1.871,1.128v-1.008h0.828v5.673c0,1.859-0.84,3.022-2.795,3.022c-0.623,0-1.246-0.12-1.859-0.312
		L224.717,93.575z M226.756,91.272c1.283,0,1.691-1.248,1.691-2.255c0-1.044-0.443-2.351-1.68-2.351
		c-1.342,0-1.666,1.247-1.666,2.351c0,0.516,0.084,1.079,0.324,1.511C225.678,90.96,226.084,91.272,226.756,91.272z"/>
	<path fill="#6F6F6E" d="M230.777,91.056c0.48,0.252,0.924,0.372,1.463,0.372c0.672,0,1.139-0.323,1.139-0.995
		c0-1.451-2.578-1.031-2.578-2.854c0-1.199,0.996-1.655,1.932-1.655c0.492,0,0.936,0.096,1.355,0.252l-0.121,0.756
		c-0.371-0.18-0.803-0.3-1.223-0.3c-0.469,0-1.068,0.18-1.068,0.899c0,1.199,2.604,0.827,2.604,2.83
		c0,1.151-0.971,1.787-2.027,1.787c-0.576,0-1.104-0.072-1.582-0.275L230.777,91.056z"/>
	<path fill="#6F6F6E" d="M238.516,91.968c-0.301,0.132-0.648,0.18-0.971,0.18c-1.225,0-1.381-0.888-1.381-1.979v-3.442h-1.127
		v-0.684h1.127v-1.344l0.863-0.3v1.644h1.355v0.684h-1.355v3.67c0,0.527,0.145,0.995,0.768,0.995c0.24,0,0.445-0.06,0.672-0.155
		L238.516,91.968z"/>
	<path fill="#6F6F6E" d="M243.748,89.581c0,0.947,0.182,1.811,1.32,1.811c1.248,0,1.631-1.079,1.631-2.135v-3.214h0.863v4.569
		c0,0.468,0.012,0.936,0.061,1.403h-0.805l-0.023-1.031c-0.42,0.768-1.055,1.163-1.93,1.163c-1.523,0-1.992-1.02-1.992-2.41v-3.694
		h0.875V89.581z"/>
	<path fill="#6F6F6E" d="M249.318,92.016v-4.569c0-0.468-0.014-0.936-0.061-1.403h0.803l0.037,1.031
		c0.42-0.768,1.066-1.151,1.93-1.151c1.535,0,2.004,1.008,2.004,2.387v3.706h-0.863v-3.538c0-0.947-0.193-1.811-1.344-1.811
		c-1.248,0-1.631,1.079-1.631,2.135v3.214H249.318z"/>
	<path fill="#6F6F6E" d="M259.803,92.016l-0.072-0.995c-0.383,0.768-1.043,1.127-1.871,1.127c-1.773,0-2.434-1.607-2.434-3.143
		c0-1.583,0.672-3.082,2.459-3.082c0.754,0,1.498,0.42,1.799,1.128v-3.683h0.875v6.753c0,0.659,0.023,1.271,0.061,1.895H259.803z
		 M258.027,91.404c1.271,0,1.68-1.344,1.68-2.387c0-1.044-0.443-2.351-1.691-2.351c-1.355,0-1.654,1.247-1.654,2.351
		c0,0.539,0.084,1.139,0.336,1.606C256.949,91.068,257.355,91.404,258.027,91.404z"/>
	<path fill="#6F6F6E" d="M264.988,92.016v-0.792l4.174-6.416h-4.029v-0.792h5.061v0.792l-4.137,6.416h4.234v0.792H264.988z"/>
	<path fill="#6F6F6E" d="M272.656,92.016l-1.895-5.973h0.936l1.521,5.157l1.549-5.157h1.043l1.547,5.157l1.512-5.157h0.838
		l-1.857,5.973h-1.068l-1.523-5.146l-1.547,5.146H272.656z"/>
	<path fill="#6F6F6E" d="M284.115,92.016l-0.037-0.96c-0.348,0.768-1.104,1.092-1.859,1.092c-1.066,0-1.953-0.563-1.953-1.775
		c0-1.535,1.342-1.99,3.094-1.99h0.672v-0.288c0-0.911-0.348-1.476-1.344-1.476c-0.611,0-1.176,0.168-1.691,0.504l-0.072-0.779
		c0.516-0.252,1.236-0.42,1.799-0.42c1.5,0,2.172,0.731,2.172,2.23v2.591c0,0.444,0.012,0.852,0.072,1.271H284.115z M283.586,89.018
		c-1.115,0-2.422,0.12-2.422,1.319c0,0.803,0.564,1.104,1.152,1.104c1.27,0,1.715-0.96,1.715-2.063v-0.359H283.586z"/>
	<path fill="#6F6F6E" d="M286.648,92.016v-4.569c0-0.468-0.012-0.936-0.061-1.403h0.805l0.035,1.031
		c0.42-0.768,1.068-1.151,1.932-1.151c1.535,0,2.002,1.008,2.002,2.387v3.706h-0.863v-3.538c0-0.947-0.191-1.811-1.344-1.811
		c-1.246,0-1.631,1.079-1.631,2.135v3.214H286.648z"/>
	<path fill="#6F6F6E" d="M293.309,93.575c0.527,0.275,1.115,0.432,1.727,0.432c1.439,0,1.979-0.983,1.979-2.279V90.96
		c-0.371,0.672-1.092,1.056-1.846,1.056c-1.775,0-2.412-1.535-2.412-3.011c0-1.583,0.672-3.082,2.436-3.082
		c0.852,0,1.486,0.36,1.871,1.128v-1.008h0.826v5.673c0,1.859-0.838,3.022-2.793,3.022c-0.625,0-1.248-0.12-1.859-0.312
		L293.309,93.575z M295.348,91.272c1.283,0,1.689-1.248,1.689-2.255c0-1.044-0.443-2.351-1.678-2.351
		c-1.344,0-1.668,1.247-1.668,2.351c0,0.516,0.084,1.079,0.324,1.511C294.268,90.96,294.676,91.272,295.348,91.272z"/>
</g>
</svg>
