<?xml version="1.0" encoding="utf-8"?>
<!-- Generator: Adobe Illustrator 15.1.0, SVG Export Plug-In . SVG Version: 6.00 Build 0)  -->
<!DOCTYPE svg PUBLIC "-//W3C//DTD SVG 1.1//EN" "http://www.w3.org/Graphics/SVG/1.1/DTD/svg11.dtd">
<svg version="1.1" id="Layer_1" xmlns="http://www.w3.org/2000/svg" xmlns:xlink="http://www.w3.org/1999/xlink" x="0px" y="0px"
	 width="80px" height="80px" viewBox="0 0 80 80" enable-background="new 0 0 80 80" xml:space="preserve">
<path fill="#003797" d="M40,59.592c-10.803,0-19.592-8.789-19.592-19.592c0-10.803,8.789-19.592,19.592-19.592
	c10.804,0,19.592,8.789,19.592,19.592h-6.53c0-7.202-5.859-13.061-13.062-13.061c-7.202,0-13.062,5.859-13.062,13.061
	c0,7.203,5.86,13.061,13.062,13.061V59.592z"/>
<path fill="#0047B6" d="M61.069,61.068l-4.618-4.618c9.071-9.07,9.071-23.831-0.001-32.902c-4.393-4.394-10.235-6.814-16.449-6.814
	c-6.215,0-12.058,2.42-16.452,6.814l-4.618-4.618c5.627-5.627,13.11-8.727,21.069-8.727c7.959,0,15.44,3.1,21.068,8.727
	c5.627,5.628,8.727,13.11,8.727,21.069C69.796,47.959,66.696,55.44,61.069,61.068"/>
<path fill="#005EB8" d="M40,80v-6.531c18.455,0,33.47-15.014,33.47-33.469S58.455,6.531,40,6.531C21.545,6.531,6.53,21.545,6.53,40
	H0C0,17.944,17.944,0,40,0c22.057,0,40,17.944,40,40C80,62.056,62.057,80,40,80"/>
<path fill="#00267F" d="M44.082,40C41.83,40,40,38.172,40,35.918c0-2.258,1.83-4.081,4.082-4.081c2.253,0,4.082,1.823,4.082,4.081
	C48.164,38.172,46.335,40,44.082,40"/>
</svg>
