<?xml version="1.0" standalone="no"?>
<!DOCTYPE svg PUBLIC "-//W3C//DTD SVG 1.1//EN" "http://www.w3.org/Graphics/SVG/1.1/DTD/svg11.dtd" >
<svg xmlns="http://www.w3.org/2000/svg">
<metadata></metadata>
<defs>
<font id="frutiger_next_probold" horiz-adv-x="1204" >
<font-face units-per-em="2048" ascent="1477" descent="-571" />
<missing-glyph horiz-adv-x="602" />
<glyph unicode="&#xfb01;" horiz-adv-x="1273" d="M35 840v188h190v105q0 81 16 143.5t52 114t103 79t161 27.5q135 0 201 -24l-13 -181q-38 17 -100 17q-43 0 -72.5 -18.5t-42.5 -49.5t-17.5 -57t-4.5 -54v-102h221v-188h-219v-840h-285v840h-190zM864 0v1028h283v-1028h-283zM864 1219v227h283v-227h-283z" />
<glyph unicode="&#xfb02;" horiz-adv-x="1273" d="M35 840v188h190v105q0 81 16 143.5t52 114t103 79t161 27.5q135 0 201 -24l-13 -181q-38 17 -100 17q-43 0 -72.5 -18.5t-42.5 -49.5t-17.5 -57t-4.5 -54v-102h221v-188h-219v-840h-285v840h-190zM864 0v1477h283v-1477h-283z" />
<glyph horiz-adv-x="2048" />
<glyph horiz-adv-x="2048" />
<glyph horiz-adv-x="682" />
<glyph unicode="&#xd;" horiz-adv-x="0" />
<glyph unicode=" "  horiz-adv-x="602" />
<glyph unicode="&#x09;" horiz-adv-x="602" />
<glyph unicode="&#xa0;" horiz-adv-x="602" />
<glyph unicode="!" horiz-adv-x="598" d="M141 1366h318l-47 -973h-224zM164 0v246h272v-246h-272z" />
<glyph unicode="&#x22;" horiz-adv-x="960" d="M199 940v426h204v-426h-204zM557 940v426h207v-426h-207z" />
<glyph unicode="#" d="M74 397v162h178l39 250h-156v162h178l60 395h172l-60 -395h322l57 395h172l-57 -395h154v-162h-179l-39 -250h156v-162h-178l-57 -397h-172l57 397h-320l-59 -397h-172l59 397h-155zM424 559h319l39 250h-319z" />
<glyph unicode="$" d="M141 995q0 87 31.5 156t87 113.5t122.5 71.5t148 40v209h170v-199q170 -3 306 -43l-13 -225q-123 60 -295 60q-47 0 -90.5 -7.5t-86 -24.5t-68 -52t-25.5 -84q0 -26 14.5 -51t32.5 -42t51.5 -36.5t54 -29.5t56.5 -26l147 -63q51 -22 89 -43t79 -54t67 -69.5t43 -88.5 t17 -114q0 -92 -31.5 -165.5t-87.5 -121.5t-126.5 -77.5t-155.5 -42.5v-207h-170v198q-188 3 -356 60l12 233q152 -82 364 -82q50 0 94.5 10t83.5 31t62 59.5t23 90.5q0 28 -14 54t-32.5 44.5t-56 40.5t-64.5 34.5t-77 35.5l-139 63q-58 28 -100.5 56.5t-83 69.5t-62 96 t-21.5 122z" />
<glyph unicode="%" horiz-adv-x="2007" d="M121 965q0 66 11 125.5t37.5 114.5t66.5 94.5t101 63t138 23.5q97 0 167.5 -35t109.5 -96.5t57 -133t18 -156.5q0 -67 -10.5 -126t-36.5 -114.5t-65 -95t-100.5 -63t-139.5 -23.5q-102 0 -170 35q-184 101 -184 387zM330 965q0 -126 22 -193q30 -92 123 -92q39 0 67 17.5 t43 43.5t23.5 67t10.5 75.5t2 81.5q0 40 -1.5 70.5t-6.5 65.5t-15 59.5t-25.5 46t-40.5 32t-57 10.5q-38 0 -65.5 -16.5t-42.5 -42t-23.5 -65.5t-11 -75.5t-2.5 -84.5zM485 -49l867 1464h174l-869 -1464h-172zM1180 399q0 84 18.5 156.5t58 133.5t110 96.5t165.5 35.5 q77 0 138.5 -23.5t101 -63.5t66 -95t37.5 -114t11 -126t-11 -126t-37 -114.5t-65.5 -95t-101 -63t-139.5 -23.5q-102 0 -170 35q-182 100 -182 387zM1386 399q0 -122 23 -192q30 -92 123 -92q48 0 79 24t44.5 70t17.5 87.5t4 102.5q0 41 -1.5 71t-6.5 65t-15 59.5t-25.5 46 t-40 32.5t-56.5 11t-56.5 -11t-40 -32t-25.5 -46t-15 -60t-7 -65.5t-2 -70.5z" />
<glyph unicode="&#x26;" horiz-adv-x="1445" d="M92 371q0 137 94.5 228t237.5 103q-138 17 -214.5 98t-76.5 199q0 124 74.5 212.5t201 131.5t291.5 43q214 0 381 -53l-10 -209q-167 74 -371 74q-74 0 -139 -22t-109 -69t-44 -110q0 -111 73.5 -156.5t220.5 -45.5h220v125h270v-125h217v-183h-217v-571 q-81 -25 -232.5 -44.5t-257.5 -19.5q-103 0 -190 11.5t-166 39.5t-134 72t-87.5 113t-32.5 158zM379 383q0 -213 323 -213q120 0 220 31v411h-220q-147 0 -235 -55.5t-88 -173.5z" />
<glyph unicode="'" horiz-adv-x="602" d="M199 940v426h204v-426h-204z" />
<glyph unicode="(" horiz-adv-x="608" d="M98 608q0 220 80 433t219 436h209q-123 -228 -191.5 -440t-68.5 -429q0 -400 260 -870h-209q-140 223 -219.5 436t-79.5 434z" />
<glyph unicode=")" horiz-adv-x="608" d="M4 -262q260 470 260 870q0 217 -68.5 429t-191.5 440h209q139 -221 218 -434.5t79 -434.5q0 -219 -79 -433t-218 -437h-209z" />
<glyph unicode="*" horiz-adv-x="884" d="M76 1022l55 188l244 -114l-29 270h197l-29 -270l242 114l53 -188l-250 -66l168 -217l-162 -104l-123 239l-127 -239l-161 104l176 217z" />
<glyph unicode="+" d="M70 422v209h426v422h215v-422h426v-209h-426v-422h-215v422h-426z" />
<glyph unicode="," horiz-adv-x="602" d="M61 -262l121 508h267l-193 -508h-195z" />
<glyph unicode="-" horiz-adv-x="681" d="M84 528v213h516v-213h-516z" />
<glyph unicode="." horiz-adv-x="602" d="M164 0v246h274v-246h-274z" />
<glyph unicode="/" horiz-adv-x="647" d="M-53 0l536 1366h217l-534 -1366h-219z" />
<glyph unicode="0" d="M74 682q0 110 16 207.5t54.5 190t97 159t151 107t209.5 40.5q116 0 208.5 -40.5t152 -107.5t98.5 -159.5t55.5 -190t16.5 -206.5q0 -110 -15.5 -207.5t-54 -190.5t-97.5 -159.5t-152.5 -107t-211.5 -40.5q-151 0 -256 60q-272 162 -272 645zM369 682q0 -231 34 -338 q53 -168 199 -168q52 0 92 21t65 61t41.5 85.5t24.5 108t10.5 114t2.5 116.5q0 59 -2 105.5t-8 101t-16 95.5t-28 81t-42 66t-60 41.5t-80 15.5q-51 0 -90.5 -20t-64 -58.5t-41 -83.5t-24 -107t-10.5 -115.5t-3 -121.5z" />
<glyph unicode="1" d="M186 1071l406 295h252v-1366h-291v1071l-264 -203z" />
<glyph unicode="2" d="M96 0v219l459 420q104 95 148.5 170t44.5 149q0 103 -77.5 158t-185.5 55q-149 0 -340 -90l-10 222q231 83 404 83q79 0 150 -12.5t136.5 -42t113 -74t75.5 -112t28 -152.5q0 -133 -73 -247t-236 -263l-299 -274h625v-209h-963z" />
<glyph unicode="3" d="M92 31l12 207q160 -62 359 -62q62 0 115 12t97 37t69.5 69.5t25.5 104.5t-28.5 103.5t-77 67t-103 34t-117.5 10.5h-174v187h148q73 0 129 9.5t104.5 31.5t74.5 64t26 102q0 52 -25 89.5t-68.5 56t-88.5 26.5t-97 8q-172 0 -336 -64l-12 203q186 59 387 59q74 0 144 -9.5 t142 -35t125 -64.5t87 -102.5t34 -144.5q0 -125 -73 -204t-201 -111q130 -21 215.5 -107t85.5 -211q0 -92 -34 -165.5t-89.5 -120.5t-132.5 -78t-157.5 -43.5t-168.5 -12.5q-224 0 -397 54z" />
<glyph unicode="4" d="M51 289v239l611 838h309v-868h196v-209h-196v-289h-283v289h-637zM264 492h428v616z" />
<glyph unicode="5" d="M127 31l12 215q138 -56 310 -56q70 0 127 13.5t103 42t71.5 78.5t25.5 118q0 64 -25.5 110.5t-72 72.5t-102.5 37.5t-125 11.5q-138 0 -289 -45l14 737h836v-203h-572l-14 -327q63 16 166 16q80 0 149 -13t132 -43t107.5 -76t70.5 -116t26 -158q0 -93 -32.5 -171 t-88.5 -132t-130.5 -92t-157 -56t-170.5 -18q-212 0 -371 54z" />
<glyph unicode="6" d="M88 618q0 230 74 402t226.5 270.5t369.5 98.5q147 0 299 -35l-13 -209q-125 45 -270 45q-99 0 -176 -36t-124.5 -99t-73 -142t-27.5 -170q51 68 137 103t180 35q202 0 324.5 -115.5t122.5 -314.5q0 -217 -147.5 -345.5t-373.5 -128.5q-250 0 -389 165.5t-139 475.5z M385 455q0 -119 61 -195q69 -86 179 -86q115 0 176 72t61 192q0 116 -61 186t-176 70q-116 0 -178 -63t-62 -176z" />
<glyph unicode="7" d="M102 1135v231h977v-231l-512 -1135h-336l557 1135h-686z" />
<glyph unicode="8" d="M66 354q0 150 79 232q83 83 220 123q-125 44 -192 119.5t-67 199.5q0 73 32 134.5t84 101.5t118 68.5t132.5 41t129.5 12.5q89 0 172 -18t159 -57t122.5 -111t46.5 -168q0 -119 -72.5 -198.5t-195.5 -124.5q146 -44 225.5 -128.5t79.5 -226.5q0 -80 -33.5 -145.5 t-87.5 -108t-125.5 -71t-144 -40.5t-146.5 -12q-95 0 -185.5 21t-171.5 63.5t-130 118t-49 174.5zM354 383q0 -102 70 -159.5t178 -57.5q109 0 179.5 58t70.5 161q0 72 -45 125.5t-117 85.5q-41 20 -88 35q-106 -27 -177 -91t-71 -157zM383 1022q0 -125 137 -197 q40 -18 84 -30q93 28 155 85t62 142q0 87 -64 136.5t-155 49.5q-90 0 -154.5 -51t-64.5 -135z" />
<glyph unicode="9" d="M68 920q0 144 70.5 251.5t187.5 161t262 53.5q250 0 389 -165.5t139 -475.5q0 -172 -43 -312.5t-125 -243t-210.5 -158.5t-291.5 -56q-147 0 -299 35l13 209q125 -45 270 -45q99 0 176 36t124.5 99t73 142t27.5 170q-51 -68 -137 -103t-180 -35q-201 0 -323.5 118 t-122.5 319zM342 926q0 -114 59 -185t179 -71q116 0 177.5 62.5t61.5 176.5q0 115 -64 198t-175 83q-115 0 -176.5 -72.5t-61.5 -191.5z" />
<glyph unicode=":" horiz-adv-x="602" d="M164 0v246h274v-246h-274zM164 782v246h274v-246h-274z" />
<glyph unicode=";" horiz-adv-x="602" d="M61 -262l121 508h267l-193 -508h-195zM164 782v246h272v-246h-272z" />
<glyph unicode="&#x3c;" d="M70 414v221l1067 422v-221l-824 -312l824 -309v-221z" />
<glyph unicode="=" d="M70 203v207h1067v-207h-1067zM70 639v209h1067v-209h-1067z" />
<glyph unicode="&#x3e;" d="M68 -6v221l823 309l-823 312v221l1067 -422v-221z" />
<glyph unicode="?" horiz-adv-x="925" d="M61 1327q194 59 351 59q67 0 129.5 -11.5t121 -37.5t102 -64t69.5 -96.5t26 -129.5q0 -62 -19.5 -115t-50 -92.5t-68 -75.5t-75 -71.5t-68 -73t-50 -87.5t-19.5 -108v-31h-242v27q0 72 16.5 132t43 100.5t58 75t63.5 64.5t58.5 60t43 69.5t16.5 86.5q0 82 -63 122.5 t-152 40.5q-126 0 -278 -57zM252 0v246h274v-246h-274z" />
<glyph unicode="@" horiz-adv-x="2201" d="M121 451q0 233 80.5 429t221.5 331t338 210.5t425 75.5q190 0 353 -55t284 -157.5t189.5 -258.5t68.5 -348q0 -150 -44.5 -281.5t-119.5 -223t-176.5 -144t-214.5 -52.5q-114 0 -185 58t-84 178q-68 -122 -153 -179t-201 -57q-140 0 -227.5 96t-87.5 259q0 149 47.5 280 t133.5 228t213 153t278 56q164 0 335 -52l-135 -620q-10 -52 -10 -98q0 -63 29.5 -98.5t87.5 -35.5q123 0 213 143.5t90 379.5q0 159 -54 284t-149.5 203.5t-222 119t-275.5 40.5q-177 0 -330 -62.5t-263 -174t-173 -273t-63 -352.5q0 -345 213.5 -540.5t587.5 -195.5 q164 0 306.5 28.5t297.5 92.5l18 -192q-307 -111 -645 -111q-299 0 -524.5 110.5t-349 318.5t-123.5 487zM827 356q0 -93 40 -143.5t112 -50.5q98 0 173.5 98t109.5 252l73 340q-49 12 -104 12q-91 0 -169.5 -47t-128.5 -121.5t-78 -163.5t-28 -176z" />
<glyph unicode="A" horiz-adv-x="1431" d="M-4 0l520 1366h397l523 -1366h-316l-121 342h-581l-123 -342h-299zM479 549h457l-225 625z" />
<glyph unicode="B" horiz-adv-x="1282" d="M150 0v1366h557q71 0 133 -9.5t121.5 -34t102 -62t68 -97t25.5 -135.5q0 -128 -70 -208.5t-198 -110.5q136 -25 219.5 -107.5t83.5 -216.5q0 -94 -31.5 -164t-81.5 -111.5t-124 -67t-146 -34t-160 -8.5h-499zM440 186h144q45 0 85 5.5t80.5 20t69.5 37.5t47.5 61t18.5 87 q0 217 -314 217h-131v-428zM440 788h146q54 0 99.5 9.5t85.5 31.5t62.5 63t22.5 99q0 68 -37 112t-89.5 60.5t-119.5 16.5h-170v-392z" />
<glyph unicode="C" horiz-adv-x="1234" d="M82 682q0 156 58 289t158.5 223.5t237.5 141t293 50.5q178 0 342 -49l-12 -227q-132 55 -282 55q-216 0 -347 -134t-131 -349q0 -222 125 -352.5t346 -130.5q165 0 293 57l13 -221q-147 -58 -347 -58q-165 0 -302.5 47t-236 135t-153.5 222t-55 301z" />
<glyph unicode="D" horiz-adv-x="1433" d="M150 0v1366h479q341 0 532 -167t191 -497q0 -172 -56 -306.5t-157 -220.5t-239.5 -130.5t-307.5 -44.5h-442zM453 209h96q239 0 362 128t123 365q0 216 -117 335.5t-333 119.5h-131v-948z" />
<glyph unicode="E" horiz-adv-x="1142" d="M150 0v1366h890v-209h-594v-358h568v-207h-568v-383h613v-209h-909z" />
<glyph unicode="F" horiz-adv-x="1089" d="M150 0v1366h874v-209h-571v-375h546v-207h-546v-575h-303z" />
<glyph unicode="G" horiz-adv-x="1427" d="M82 682q0 131 41.5 245t115.5 197t173.5 143t216.5 89.5t243 29.5q226 0 398 -61l-13 -229q-153 75 -344 75q-230 0 -372 -130t-142 -359q0 -221 118.5 -355t340.5 -134q101 0 168 20v348h-266v199h534v-705q-179 -78 -446 -78q-131 0 -247 28.5t-211 86.5t-163.5 141.5 t-106.5 198t-38 250.5z" />
<glyph unicode="H" horiz-adv-x="1445" d="M150 0v1366h303v-545h542v545h303v-1366h-303v578h-542v-578h-303z" />
<glyph unicode="I" horiz-adv-x="600" d="M150 0v1366h303v-1366h-303z" />
<glyph unicode="J" horiz-adv-x="768" d="M10 10l10 223q48 -22 115 -22q99 0 148 60.5t49 160.5v934h303v-979q0 -193 -104 -301.5t-295 -108.5q-123 0 -226 33z" />
<glyph unicode="K" horiz-adv-x="1357" d="M150 0v1366h303v-590l493 590h359l-576 -639l625 -727h-379l-522 651v-651h-303z" />
<glyph unicode="L" horiz-adv-x="1077" d="M150 0v1366h303v-1124h587v-242h-890z" />
<glyph unicode="M" horiz-adv-x="1914" d="M150 0v1366h452l359 -1038l354 1038h452v-1366h-280v1171l-402 -1171h-266l-401 1171v-1171h-268z" />
<glyph unicode="N" horiz-adv-x="1513" d="M150 0v1366h442l506 -1118v1118h268v-1366h-444l-504 1116v-1116h-268z" />
<glyph unicode="O" horiz-adv-x="1505" d="M82 682q0 210 77.5 368t230 247t362.5 89q320 0 495.5 -189.5t175.5 -514.5q0 -321 -176.5 -513t-494.5 -192q-164 0 -291 50q-185 76 -282 244.5t-97 410.5zM399 682q0 -197 76 -330q97 -164 277 -164q78 0 140 30t101.5 78.5t65.5 114t36.5 132.5t10.5 139t-10.5 139 t-36.5 132.5t-65.5 114t-101.5 78.5t-140 30q-77 0 -139 -30.5t-101 -79.5t-65.5 -115t-37 -132.5t-10.5 -136.5z" />
<glyph unicode="P" horiz-adv-x="1234" d="M150 0v1366h483q90 0 168.5 -13.5t149 -45.5t120.5 -79.5t79.5 -119.5t29.5 -162q0 -115 -44 -202t-121.5 -138.5t-173 -76.5t-206.5 -25h-189v-504h-296zM444 709h107q55 0 97.5 4.5t86.5 19.5t73 39.5t47.5 68.5t18.5 103q0 117 -77.5 168t-227.5 51h-125v-454z" />
<glyph unicode="Q" horiz-adv-x="1499" d="M82 682q0 210 77.5 368t230 247t362.5 89q320 0 495.5 -189.5t175.5 -514.5q0 -219 -82.5 -384t-240.5 -243l291 -317h-351l-219 244q-25 -5 -35 -5h-34q-215 0 -367 88t-227.5 245.5t-75.5 371.5zM399 682q0 -197 76 -330q97 -164 277 -164q78 0 140 30t101.5 78.5 t65.5 114t36.5 132.5t10.5 139t-10.5 139t-36.5 132.5t-65.5 114t-101.5 78.5t-140 30q-77 0 -139 -30.5t-101 -79.5t-65.5 -115t-37 -132.5t-10.5 -136.5z" />
<glyph unicode="R" horiz-adv-x="1288" d="M150 0v1366h540q74 0 141 -11t130 -37t109 -66t73.5 -102.5t27.5 -141.5q0 -142 -87 -225.5t-228 -110.5q85 -20 131.5 -70.5t91.5 -161.5l174 -440h-327l-123 342q-25 69 -43 106t-46 66.5t-64.5 40t-92.5 10.5h-111v-565h-296zM444 768h138q56 0 103.5 10.5t90 33 t66.5 65t24 100.5q0 46 -15 80t-39.5 54t-61.5 32t-74.5 16t-85.5 4h-146v-395z" />
<glyph unicode="S" horiz-adv-x="1128" d="M117 981q0 76 23 138.5t63 106t91 75.5t111 50t117.5 26.5t116.5 8.5q208 0 322 -43l-11 -235q-138 59 -291 59q-43 0 -81.5 -7.5t-75.5 -24.5t-58.5 -50.5t-21.5 -80.5q0 -61 50.5 -102t145.5 -79l91 -37q59 -24 103.5 -47t87.5 -56.5t70.5 -72t44.5 -92t17 -117.5 q0 -94 -32.5 -169t-85 -121.5t-124 -77.5t-143 -43.5t-147.5 -12.5q-200 0 -381 56l14 239q175 -77 344 -77q43 0 82.5 8.5t76.5 28t59 55.5t22 86q0 69 -53.5 115t-176.5 96l-110 47q-120 51 -190 132.5t-70 217.5z" />
<glyph unicode="T" horiz-adv-x="1202" d="M20 1124v242h1162v-242h-428v-1124h-305v1124h-429z" />
<glyph unicode="U" horiz-adv-x="1425" d="M135 502v864h303v-854q0 -90 27 -158.5t90 -111.5t156 -43q139 0 208.5 85.5t69.5 225.5v856h303v-852q0 -130 -44 -233t-123 -169t-184.5 -100.5t-231.5 -34.5q-170 0 -297.5 57t-202 176.5t-74.5 291.5z" />
<glyph unicode="V" horiz-adv-x="1353" d="M-2 1366h321l363 -1073l369 1073h307l-510 -1366h-350z" />
<glyph unicode="W" horiz-adv-x="2023" d="M14 1366h293l264 -1085l295 1085h312l290 -1085l267 1085h276l-364 -1366h-338l-297 1087l-291 -1087h-340z" />
<glyph unicode="X" horiz-adv-x="1390" d="M4 0l500 711l-447 655h346l314 -500l309 500h322l-455 -655l496 -711h-359l-344 553l-350 -553h-332z" />
<glyph unicode="Y" horiz-adv-x="1288" d="M-14 1366h331l336 -631l332 631h320l-512 -856v-510h-304v510z" />
<glyph unicode="Z" horiz-adv-x="1150" d="M53 0v240l697 905h-672v221h1001v-242l-684 -903h703v-221h-1045z" />
<glyph unicode="[" horiz-adv-x="630" d="M158 -262v1739h454v-174h-221v-1389h221v-176h-454z" />
<glyph unicode="\" horiz-adv-x="645" d="M-53 1366h219l534 -1366h-217z" />
<glyph unicode="]" horiz-adv-x="630" d="M20 -86h224v1389h-224v174h455v-1739h-455v176z" />
<glyph unicode="^" horiz-adv-x="1228" d="M156 489l360 877h199l360 -877h-229l-234 625l-227 -625h-229z" />
<glyph unicode="_" horiz-adv-x="1024" d="M0 -154h1024v-102h-1024v102z" />
<glyph unicode="`" horiz-adv-x="538" d="M-47 1473h283l147 -279h-201z" />
<glyph unicode="a" horiz-adv-x="1122" d="M57 293q0 346 551 346q45 0 123 -4v35q0 106 -61.5 153t-182.5 47q-156 0 -301 -77l-12 188q168 68 354 68q476 0 476 -400v-407q0 -152 10 -242h-266l-7 152q-112 -175 -335 -175q-148 0 -248.5 84t-100.5 232zM328 305q0 -73 41.5 -112t109.5 -39q122 0 187 84.5 t65 207.5v43h-57q-346 0 -346 -184z" />
<glyph unicode="b" horiz-adv-x="1218" d="M129 0v1477h283v-619q37 90 123 140.5t188 50.5q91 0 163.5 -29t121 -78.5t81 -118.5t46.5 -144.5t14 -160.5q0 -86 -14.5 -162.5t-47.5 -146.5t-81.5 -121t-122.5 -81t-166 -30q-109 0 -194.5 48t-131.5 143l-4 -168h-258zM403 518q0 -130 46 -225q59 -117 176 -117 q53 0 94 22t64.5 55.5t38 81t19.5 91t5 92.5q0 332 -219 332q-51 0 -91.5 -21.5t-64.5 -54.5t-40 -78.5t-22 -88.5t-6 -89z" />
<glyph unicode="c" horiz-adv-x="974" d="M70 518q0 163 75.5 285t204.5 184t293 62q149 0 272 -37l-12 -201q-91 45 -203 45q-154 0 -240.5 -93.5t-86.5 -244.5q0 -149 85.5 -245.5t239.5 -96.5q114 0 209 41l11 -201q-116 -39 -283 -39q-255 0 -410 146t-155 395z" />
<glyph unicode="d" horiz-adv-x="1218" d="M70 518q0 107 24.5 199.5t74 168t134.5 119.5t197 44q101 0 186.5 -50.5t122.5 -140.5v619h283v-1190q0 -175 8 -287h-262l-11 168q-46 -95 -131 -143t-194 -48q-92 0 -166 30t-122.5 81t-81.5 121t-47.5 146.5t-14.5 162.5zM373 516q0 -143 41 -227q58 -115 180 -115 q50 0 89.5 22.5t63.5 57t40 81.5t22 91t6 90q0 59 -10.5 113.5t-34 106.5t-69.5 83t-109 31q-219 0 -219 -334z" />
<glyph unicode="e" horiz-adv-x="1095" d="M70 518q0 231 142.5 381t367.5 150q121 0 209.5 -38.5t141 -110t77 -166t24.5 -214.5v-67h-686q5 -136 91 -211.5t247 -75.5q75 0 152 18t131 49l12 -196q-62 -26 -153 -43t-175 -17q-282 0 -431.5 141t-149.5 400zM346 612h432q0 53 -9 97t-30 84t-61 63t-96 23 q-109 0 -170 -79t-66 -188z" />
<glyph unicode="f" horiz-adv-x="745" d="M35 840v188h190v105q0 81 16 143.5t52 114t103 79t161 27.5q135 0 201 -24l-13 -181q-38 17 -100 17q-43 0 -72.5 -18.5t-42.5 -49.5t-17.5 -57t-4.5 -54v-102h221v-188h-219v-840h-285v840h-190z" />
<glyph unicode="g" horiz-adv-x="1218" d="M70 518q0 84 14.5 160.5t47 145t80.5 118t120 78.5t160 29q109 0 194 -48t131 -143v170h275v-962q0 -261 -144 -396t-407 -135q-211 0 -387 55l12 215q141 -75 313 -75q166 0 248 88t82 248v110q-54 -84 -138.5 -130t-183.5 -46q-108 0 -190.5 43.5t-130.5 118t-72 164.5 t-24 192zM373 516q0 -135 41 -213q59 -106 178 -106q62 0 107.5 29.5t69.5 78.5t35 101.5t11 109.5q0 59 -10.5 113.5t-34 106.5t-69.5 83t-109 31q-219 0 -219 -334z" />
<glyph unicode="h" horiz-adv-x="1198" d="M129 0v1477h283v-619q93 191 315 191q344 0 344 -381v-668h-283v602q0 42 -3 73t-13.5 65.5t-28.5 56t-50 35.5t-77 14q-56 0 -97.5 -24t-63.5 -65t-32.5 -88t-10.5 -100v-569h-283z" />
<glyph unicode="i" horiz-adv-x="538" d="M129 0v1028h283v-1028h-283zM129 1219v227h283v-227h-283z" />
<glyph unicode="j" horiz-adv-x="548" d="M-70 -446l13 198q34 -12 73 -12q123 0 123 168v1120h283v-1149q0 -76 -16 -136.5t-49.5 -108t-91.5 -73.5t-136 -26q-113 0 -199 19zM139 1219v227h283v-227h-283z" />
<glyph unicode="k" horiz-adv-x="1161" d="M129 0v1477h283v-871l372 422h330l-418 -459l459 -569h-344l-399 522v-522h-283z" />
<glyph unicode="l" horiz-adv-x="538" d="M129 0v1477h283v-1477h-283z" />
<glyph unicode="m" horiz-adv-x="1796" d="M119 1028h266l4 -172q94 193 324 193q115 0 195 -55t110 -148q36 91 126.5 147t190.5 56q334 0 334 -383v-666h-283v641q0 205 -157 205q-51 0 -89.5 -24.5t-60 -65.5t-31.5 -88t-10 -99v-569h-280v641q0 44 -7 78.5t-23.5 64.5t-48 46t-77.5 16q-51 0 -89.5 -24.5 t-59.5 -65.5t-31 -88t-10 -99v-569h-283v799q0 134 -10 229z" />
<glyph unicode="n" horiz-adv-x="1198" d="M119 1028h266l4 -172q50 96 136.5 144.5t197.5 48.5q348 0 348 -383v-666h-283v600q0 42 -3 73.5t-13.5 66t-28.5 56t-50 36t-77 14.5q-57 0 -98.5 -24t-63.5 -65.5t-32 -88t-10 -101.5v-567h-283v799q0 134 -10 229z" />
<glyph unicode="o" horiz-adv-x="1214" d="M70 518q0 248 148.5 389.5t389.5 141.5q253 0 396 -138.5t143 -392.5q0 -250 -144 -395.5t-395 -145.5q-126 0 -227 37q-151 59 -231 188.5t-80 315.5zM373 518q0 -141 51 -237q66 -111 184 -111q52 0 93.5 19.5t67.5 52.5t43.5 78.5t24.5 94t7 103.5q0 64 -11.5 120.5 t-37 107t-73.5 80.5t-114 30q-64 0 -112 -30t-73.5 -81t-37.5 -107.5t-12 -119.5z" />
<glyph unicode="p" horiz-adv-x="1218" d="M119 1028h268l6 -174q42 91 133 143t197 52q91 0 163.5 -29t121 -78.5t81 -118.5t46.5 -144.5t14 -160.5q0 -86 -14.5 -162.5t-47.5 -146.5t-81.5 -121t-122.5 -81t-166 -30q-101 0 -184.5 49.5t-120.5 139.5v-608h-283v1171q0 152 -10 299zM403 518q0 -130 46 -225 q59 -117 176 -117q53 0 94 22t64.5 55.5t38 81t19.5 91t5 92.5q0 332 -219 332q-51 0 -91.5 -21.5t-64.5 -54.5t-40 -78.5t-22 -88.5t-6 -89z" />
<glyph unicode="q" horiz-adv-x="1218" d="M70 518q0 107 24.5 199.5t73.5 168t133.5 119.5t194.5 44q233 0 329 -191l2 170h265v-1470h-283v610q-37 -90 -121.5 -140.5t-185.5 -50.5q-92 0 -166 30t-122.5 81t-81.5 121t-47.5 146.5t-14.5 162.5zM373 520q0 -143 41 -227q57 -117 180 -117q62 0 107.5 33t69 87 t34 110t10.5 114t-10.5 112t-34 106t-69.5 83t-109 31q-219 0 -219 -332z" />
<glyph unicode="r" horiz-adv-x="788" d="M119 1026h266l6 -199q41 94 116.5 159t172.5 65q45 0 82 -11l-8 -254q-41 15 -88 15q-67 0 -118.5 -30.5t-79.5 -81t-42 -109t-14 -121.5v-459h-283v799q0 132 -10 227z" />
<glyph unicode="s" horiz-adv-x="913" d="M84 737q0 83 39 146t103 98t135.5 52.5t146.5 17.5q147 0 283 -39l-13 -205q-122 49 -254 49q-168 0 -168 -104q0 -29 20.5 -51t54 -36t76 -30t87 -30.5t87 -40t76 -57t54 -82t20.5 -114.5q0 -89 -37.5 -156t-100.5 -104.5t-136.5 -55.5t-155.5 -18q-171 0 -311 50 l12 215q134 -70 283 -70q178 0 178 119q0 31 -20.5 56t-54.5 41t-77 33.5t-87.5 33t-87.5 41t-77 55.5t-54.5 78t-20.5 108z" />
<glyph unicode="t" horiz-adv-x="776" d="M25 842v186h184v209l283 92v-301h229v-186h-229v-504q0 -74 26 -115t96 -41q52 0 113 23l8 -189q-115 -39 -235 -39q-86 0 -144.5 26t-90 77t-44 113.5t-12.5 148.5v500h-184z" />
<glyph unicode="u" horiz-adv-x="1191" d="M125 365v663h283v-600q0 -54 5.5 -91.5t21.5 -76t52 -58.5t91 -20q57 0 98.5 24t63.5 66t32 89t10 102v565h283v-797q0 -136 10 -231h-266l-6 172q-50 -97 -135.5 -146t-196.5 -49q-346 0 -346 388z" />
<glyph unicode="v" horiz-adv-x="1036" d="M12 1028h297l217 -815l215 815h283l-330 -1028h-354z" />
<glyph unicode="w" horiz-adv-x="1736" d="M18 1028h285l205 -809l205 809h336l211 -809l198 809h262l-288 -1028h-351l-207 815l-212 -815h-351z" />
<glyph unicode="x" horiz-adv-x="1089" d="M16 0l349 539l-314 489h307l201 -366l191 366h292l-309 -489l344 -539h-311l-223 406l-232 -406h-295z" />
<glyph unicode="y" horiz-adv-x="1030" d="M12 1028h299l217 -784l215 784h279l-381 -1145q-61 -177 -147 -262.5t-234 -85.5q-70 0 -199 25l13 194q56 -20 110 -20q69 0 110 36.5t66 108.5l27 84z" />
<glyph unicode="z" horiz-adv-x="997" d="M61 0v217l549 623h-530v188h852v-215l-547 -625h551v-188h-875z" />
<glyph unicode="{" horiz-adv-x="636" d="M51 532v152q75 0 112.5 62t37.5 143v330q0 103 65.5 180.5t167.5 77.5h182v-146h-73q-59 0 -85 -43t-26 -110v-326q0 -89 -50.5 -155t-139.5 -89q90 -23 140 -88.5t50 -157.5v-321q0 -67 26.5 -112.5t84.5 -45.5h73v-145h-184q-102 0 -166.5 78.5t-64.5 181.5v334 q0 79 -37.5 139.5t-112.5 60.5z" />
<glyph unicode="|" horiz-adv-x="438" d="M111 -442v2029h219v-2029h-219z" />
<glyph unicode="}" horiz-adv-x="636" d="M23 -117h73q58 0 84.5 45.5t26.5 112.5v321q0 92 50 157.5t140 88.5q-89 23 -139.5 89t-50.5 155v326q0 67 -26 110t-85 43h-73v146h182q102 0 167.5 -77.5t65.5 -180.5v-330q0 -81 37.5 -143t112.5 -62v-152q-75 0 -112.5 -60.5t-37.5 -139.5v-334q0 -103 -64.5 -181.5 t-166.5 -78.5h-184v145z" />
<glyph unicode="~" d="M47 350q4 62 23.5 122t53 112t86.5 84t118 32q60 0 139 -21.5t143.5 -47t140 -47t130.5 -21.5q111 0 137 142h141q-4 -62 -22 -121.5t-49.5 -113t-85 -86t-119.5 -32.5q-62 0 -141.5 21.5t-143.5 47t-140 47t-130 21.5q-60 0 -96 -39t-44 -100h-141z" />
<glyph unicode="&#xa1;" horiz-adv-x="598" d="M141 -338l47 973h224l47 -973h-318zM164 782v246h272v-246h-272z" />
<glyph unicode="&#xa2;" d="M190 688q0 200 112.5 330t301.5 160v188h148v-182q106 -3 229 -43l-12 -189q-100 49 -197 49q-138 0 -217.5 -87.5t-79.5 -225.5q0 -136 78 -228.5t213 -92.5q104 0 205 49l12 -191q-113 -38 -231 -41v-184h-148v190q-196 26 -305 157.5t-109 340.5z" />
<glyph unicode="&#xa3;" d="M164 0v195h158v417h-150v191h150v106q0 231 123.5 354t363.5 123q173 0 287 -40l-17 -201q-87 41 -217 41q-76 0 -128.5 -21.5t-80.5 -63t-39.5 -91t-11.5 -115.5v-92h334v-191h-334v-417h477v-195h-915z" />
<glyph unicode="&#xa4;" d="M96 305l133 135q-38 63 -55.5 118t-17.5 124q0 131 73 244l-133 135l129 129l135 -135q113 73 242 73q125 0 246 -71l131 131l131 -129l-133 -133q74 -120 74 -246q0 -128 -74 -240l133 -135l-129 -131l-135 135q-115 -76 -242 -76q-123 0 -246 76l-131 -133zM350 682 q0 -51 19 -100q30 -68 93.5 -111t139.5 -43q105 0 179.5 74.5t74.5 179.5q0 104 -75 179t-179 75q-106 0 -179 -74t-73 -180z" />
<glyph unicode="&#xa5;" d="M27 1366h299l278 -596l283 596h291l-351 -639h226v-172h-316v-129h316v-172h-316v-254h-288v254h-302v172h302v129h-302v172h213z" />
<glyph unicode="&#xa6;" horiz-adv-x="438" d="M111 371h219v-813h-219v813zM111 776v811h219v-811h-219z" />
<glyph unicode="&#xa7;" d="M156 590q0 83 50 145t134 117q-139 73 -139 223q0 80 37.5 142t100 97.5t136.5 53.5t154 18q161 0 338 -43l-13 -188q-146 47 -274 47q-35 0 -68.5 -5.5t-67.5 -18.5t-54.5 -39.5t-20.5 -63.5q0 -16 4.5 -30.5t10 -24.5t19.5 -21.5t22 -17.5t29 -15.5t30 -13.5 t35.5 -14.5t35.5 -13.5l160 -68q47 -20 76 -34.5t64 -38.5t54 -49.5t32.5 -64t13.5 -85.5q0 -85 -41 -145.5t-119 -123.5q64 -45 93.5 -102.5t29.5 -138.5q0 -84 -41.5 -149t-109.5 -103t-146.5 -57t-161.5 -19q-192 0 -381 53l12 193q153 -62 328 -62q38 0 75 6.5t74 21.5 t60 44.5t23 69.5q0 26 -13.5 48t-40.5 40t-49.5 29.5t-58.5 27.5l-197 80q-235 91 -235 293zM387 612q0 -51 41 -83.5t119 -65.5l188 -80q90 90 90 170q0 32 -13.5 57t-43 44t-53.5 30t-66 27l-157 59q-105 -59 -105 -158z" />
<glyph unicode="&#xa8;" horiz-adv-x="538" d="M-37 1219v227h219v-227h-219zM356 1219v227h219v-227h-219z" />
<glyph unicode="&#xa9;" horiz-adv-x="1589" d="M90 684q0 143 56 272.5t150.5 224t225 150t273.5 55.5t273.5 -55.5t225 -150t150 -224t55.5 -272.5t-55.5 -274t-150 -226t-225 -151t-273.5 -56q-145 0 -275 56q-193 83 -311.5 258.5t-118.5 392.5zM244 684q0 -232 159 -401q75 -80 176 -124t216 -44q152 0 279.5 77 t200.5 208t73 284q0 152 -73 282t-200.5 206.5t-279.5 76.5t-279 -76.5t-199.5 -206t-72.5 -282.5zM434 684q0 170 122 272.5t308 102.5q86 0 193 -29l-8 -131q-81 31 -160 31q-127 0 -201 -66.5t-74 -179.5q0 -116 72 -181t201 -65q78 0 162 35l8 -131q-85 -33 -193 -33 q-194 0 -312 99t-118 276z" />
<glyph unicode="&#xaa;" horiz-adv-x="794" d="M51 922q0 61 30 106t82.5 69.5t113.5 36t133 11.5q34 0 88 -4v16q0 109 -162 109q-103 0 -201 -52l-6 134q119 38 236 38q319 0 319 -241v-242v-84q0 -23 4 -63h-188l-4 102q-36 -52 -93.5 -83.5t-119.5 -31.5q-103 0 -167.5 45t-64.5 134zM240 926q0 -74 108 -74 q60 0 101.5 45t46.5 109l2 26h-27q-42 0 -80.5 -5.5t-73.5 -16.5t-56 -33t-21 -51z" />
<glyph unicode="&#xab;" horiz-adv-x="1024" d="M45 526l272 410h230l-260 -410l260 -413h-230zM457 526l272 410h232l-261 -410l261 -413h-232z" />
<glyph unicode="&#xac;" horiz-adv-x="1228" d="M82 639v209h1067v-645h-217v436h-850z" />
<glyph unicode="&#xad;" horiz-adv-x="681" d="M84 528v213h516v-213h-516z" />
<glyph unicode="&#xae;" horiz-adv-x="1572" d="M82 684q0 143 55.5 272.5t150 224t225 150t273.5 55.5t273.5 -55.5t225 -150t150.5 -224t56 -272.5q0 -191 -94.5 -354t-257 -258t-353.5 -95q-144 0 -274 56q-193 83 -311.5 258.5t-118.5 392.5zM233 684q0 -113 42.5 -216t117.5 -183q77 -80 178 -125t215 -45 q151 0 279 78.5t201 209t73 281.5q0 152 -73 281.5t-201 206.5t-279 77q-152 0 -279.5 -76.5t-200.5 -206.5t-73 -282zM494 332v731h323q73 0 131 -17.5t97.5 -63t39.5 -114.5q0 -72 -52.5 -120.5t-131.5 -61.5q53 -10 80.5 -34t46.5 -72l98 -248h-182l-78 205 q-21 56 -46 75t-89 19h-65v-299h-172zM666 745h77q166 0 166 107q0 96 -166 96h-77v-203z" />
<glyph unicode="&#xaf;" horiz-adv-x="538" d="M-41 1262v143h623v-143h-623z" />
<glyph unicode="&#xb0;" horiz-adv-x="819" d="M90 1073q0 133 94 223t226 90t225.5 -90t93.5 -223t-93.5 -223t-225.5 -90q-135 0 -226 88q-94 94 -94 225zM231 1073q0 -37 15 -67q22 -47 66.5 -76t97.5 -29q71 0 124.5 50.5t53.5 121.5q0 77 -51 125.5t-127 48.5t-127.5 -48.5t-51.5 -125.5z" />
<glyph unicode="&#xb1;" d="M70 -59v206h1067v-206h-1067zM70 563v207h426v340h215v-340h426v-207h-426v-330h-215v330h-426z" />
<glyph unicode="&#xb2;" horiz-adv-x="921" d="M129 760v149l160 117q122 88 187 161.5t65 147.5q0 56 -42.5 85.5t-113.5 29.5q-113 0 -227 -49l-6 147q160 49 266 49q65 0 122.5 -13t106.5 -40.5t78 -77t29 -114.5q0 -101 -68.5 -186.5t-196.5 -180.5l-112 -84h385v-141h-633z" />
<glyph unicode="&#xb3;" horiz-adv-x="921" d="M129 778l6 137q98 -34 225 -34q85 0 142 31.5t57 95.5q0 62 -60.5 89t-150.5 27h-106v125h88q219 0 219 113q0 52 -54 76t-130 24q-113 0 -209 -35l-6 136q106 34 245 34q64 0 122 -10t114 -33t89.5 -68t33.5 -108q0 -146 -160 -188q75 -14 124.5 -62.5t49.5 -119.5 q0 -59 -23 -105t-60 -75.5t-88 -48.5t-103 -26.5t-109 -7.5q-148 0 -256 33z" />
<glyph unicode="&#xb4;" horiz-adv-x="538" d="M139 1194l148 279h282l-227 -279h-203z" />
<glyph unicode="&#xb5;" d="M127 -442v1470h283v-608q0 -42 3 -73t13.5 -65t28.5 -55t50 -35t77 -14q204 0 204 277v573h281v-799q0 -144 10 -229h-266l-6 178q-42 -85 -114.5 -137.5t-151.5 -52.5q-82 0 -131 49v-479h-281z" />
<glyph unicode="&#xb6;" horiz-adv-x="1193" d="M63 1014q0 102 37 175.5t103.5 113.5t145.5 57.5t177 17.5h570v-1599h-195v1450h-223v-1450h-195v880q-110 0 -203.5 38.5t-155 121t-61.5 195.5z" />
<glyph unicode="&#xb7;" horiz-adv-x="602" d="M164 512v246h274v-246h-274z" />
<glyph unicode="&#xb8;" horiz-adv-x="538" d="M39 -352l39 94q106 -37 168 -37q40 0 68 14.5t28 42.5t-24 44t-56 16q-44 0 -84 -15l-41 52l96 141h115l-72 -104q21 8 74 8q68 0 109 -35.5t41 -99.5q0 -78 -65 -120t-181 -42q-114 0 -215 41z" />
<glyph unicode="&#xb9;" horiz-adv-x="921" d="M170 1397l289 188h174v-825h-203v626l-188 -129z" />
<glyph unicode="&#xba;" horiz-adv-x="811" d="M45 1069q0 150 98 233.5t258 83.5q168 0 262.5 -81t94.5 -236q0 -153 -95.5 -239.5t-261.5 -86.5q-167 0 -262 86q-94 85 -94 240zM258 1069q0 -86 31 -133q39 -59 112 -59q76 0 110 54t34 138q0 34 -6.5 64t-22 58.5t-45 45t-70.5 16.5q-74 0 -108.5 -55.5t-34.5 -128.5 z" />
<glyph unicode="&#xbb;" horiz-adv-x="1024" d="M66 113l260 411l-260 412h229l272 -412l-272 -411h-229zM477 113l260 411l-260 412h232l272 -412l-272 -411h-232z" />
<glyph unicode="&#xbc;" horiz-adv-x="1884" d="M82 1186l274 180h174v-821h-202v633l-174 -125zM350 -49l867 1464h174l-869 -1464h-172zM1001 172v162l396 487h213v-508h129v-141h-129v-172h-199v172h-410zM1126 309h289v365z" />
<glyph unicode="&#xbd;" horiz-adv-x="1968" d="M82 1186l274 180h174v-821h-202v633l-174 -125zM350 -49l867 1464h174l-869 -1464h-172zM1157 0v150l158 126q11 8 48.5 34.5t59.5 42.5t56 45t53 52.5t34 53.5t15 57q0 62 -50 93.5t-122 31.5q-106 0 -223 -55l-6 151q148 52 270 52q65 0 124 -14.5t107.5 -43.5 t77.5 -78.5t29 -113.5q0 -54 -27 -106.5t-78 -101t-91.5 -79.5t-98.5 -70l-98 -86h401v-141h-639z" />
<glyph unicode="&#xbe;" horiz-adv-x="2086" d="M133 573l8 142q93 -35 228 -35q36 0 69.5 6t64 19.5t49.5 38t19 57.5q0 32 -21 55t-54.5 35t-67 17t-68.5 5h-110v127h94q35 0 69.5 5.5t69 17.5t55.5 35.5t21 54.5q0 29 -19 49.5t-50 29.5t-60.5 13t-62.5 4q-105 0 -205 -35l-6 138q121 34 250 34q63 0 120.5 -9.5 t114.5 -31.5t91 -66t34 -105q0 -76 -47.5 -127t-128.5 -70q82 -11 137 -59t55 -123q0 -70 -34 -121t-92 -78.5t-122 -40t-137 -12.5q-158 0 -264 30zM553 -49l866 1464h174l-868 -1464h-172zM1204 172v162l395 487h213v-508h130v-141h-130v-172h-198v172h-410zM1329 309h289 v365z" />
<glyph unicode="&#xbf;" horiz-adv-x="925" d="M68 -18q0 62 19.5 115.5t50 92.5t68 75.5t75 71.5t68 72.5t50 88t19.5 108.5v29h239v-27q0 -72 -16.5 -131.5t-42.5 -100t-57.5 -75t-63.5 -64t-58 -59.5t-42.5 -69t-16.5 -86q0 -82 63 -123t152 -41q132 0 279 55l12 -213q-194 -59 -350 -59q-67 0 -129.5 11.5 t-121 37.5t-102 64.5t-69.5 97t-26 129.5zM401 782v246h273v-246h-273z" />
<glyph unicode="&#xc0;" horiz-adv-x="1431" d="M-4 0l520 1366h397l523 -1366h-316l-121 342h-581l-123 -342h-299zM412 1761h282l148 -278h-201zM479 549h457l-225 625z" />
<glyph unicode="&#xc1;" horiz-adv-x="1431" d="M-4 0l520 1366h397l523 -1366h-316l-121 342h-581l-123 -342h-299zM479 549h457l-225 625zM604 1483l148 278h282l-227 -278h-203z" />
<glyph unicode="&#xc2;" horiz-adv-x="1431" d="M-4 0l520 1366h397l523 -1366h-316l-121 342h-581l-123 -342h-299zM379 1483l211 278h239l211 -278h-192l-139 176l-140 -176h-190zM479 549h457l-225 625z" />
<glyph unicode="&#xc3;" horiz-adv-x="1431" d="M-4 0l520 1366h397l523 -1366h-316l-121 342h-581l-123 -342h-299zM367 1495q5 97 57.5 170.5t146.5 73.5q59 0 153 -40t128 -40q36 0 56.5 24t25.5 60h133q-5 -94 -62.5 -168t-148.5 -74q-60 0 -145 39t-125 39q-35 0 -61.5 -26.5t-26.5 -57.5h-131zM479 549h457 l-225 625z" />
<glyph unicode="&#xc4;" horiz-adv-x="1431" d="M-4 0l520 1366h397l523 -1366h-316l-121 342h-581l-123 -342h-299zM410 1507v228h219v-228h-219zM479 549h457l-225 625zM803 1507v228h219v-228h-219z" />
<glyph unicode="&#xc5;" horiz-adv-x="1431" d="M-4 0l520 1366h397l523 -1366h-316l-121 342h-581l-123 -342h-299zM479 549h457l-225 625zM502 1622q0 86 60 144.5t147 58.5q85 0 145.5 -58.5t60.5 -144.5q0 -85 -60.5 -145t-145.5 -60q-81 0 -146 58q-61 61 -61 147zM598 1622q0 -47 33 -79t78 -32q47 0 78.5 32 t31.5 79q0 45 -31.5 77t-78.5 32t-79 -32t-32 -77z" />
<glyph unicode="&#xc6;" horiz-adv-x="1945" d="M-23 0l828 1366h1038v-209h-565v-360h534v-205h-534v-383h584v-209h-881v342h-496l-202 -342h-306zM594 549h387v643z" />
<glyph unicode="&#xc7;" horiz-adv-x="1234" d="M82 682q0 156 58 289t158.5 223.5t237.5 141t293 50.5q178 0 342 -49l-12 -227q-132 55 -282 55q-216 0 -347 -134t-131 -349q0 -222 125 -352.5t346 -130.5q165 0 293 57l13 -221q-147 -58 -347 -58h-18l-55 -81q21 8 73 8q68 0 109 -35.5t41 -99.5q0 -78 -65 -120 t-181 -42q-114 0 -215 41l39 94q106 -37 168 -37q40 0 68 14.5t28 42.5t-24 44t-56 16q-43 0 -84 -15l-41 52l86 127q-286 33 -453 214t-167 482z" />
<glyph unicode="&#xc8;" horiz-adv-x="1142" d="M150 0v1366h890v-209h-594v-358h568v-207h-568v-383h613v-209h-909zM307 1761h283l147 -278h-200z" />
<glyph unicode="&#xc9;" horiz-adv-x="1142" d="M150 0v1366h890v-209h-594v-358h568v-207h-568v-383h613v-209h-909zM451 1483l147 278h283l-228 -278h-202z" />
<glyph unicode="&#xca;" horiz-adv-x="1142" d="M150 0v1366h890v-209h-594v-358h568v-207h-568v-383h613v-209h-909zM262 1483l211 278h240l211 -278h-193l-139 176l-139 -176h-191z" />
<glyph unicode="&#xcb;" horiz-adv-x="1142" d="M150 0v1366h890v-209h-594v-358h568v-207h-568v-383h613v-209h-909zM291 1507v228h219v-228h-219zM684 1507v228h219v-228h-219z" />
<glyph unicode="&#xcc;" horiz-adv-x="600" d="M-4 1761h283l147 -278h-201zM150 0v1366h303v-1366h-303z" />
<glyph unicode="&#xcd;" horiz-adv-x="600" d="M150 0v1366h303v-1366h-303zM176 1483l148 278h282l-227 -278h-203z" />
<glyph unicode="&#xce;" horiz-adv-x="600" d="M-31 1483l211 278h240l211 -278h-193l-139 176l-139 -176h-191zM150 0v1366h303v-1366h-303z" />
<glyph unicode="&#xcf;" horiz-adv-x="600" d="M-6 1507v228h219v-228h-219zM150 0v1366h303v-1366h-303zM387 1507v228h219v-228h-219z" />
<glyph unicode="&#xd0;" horiz-adv-x="1433" d="M-6 600v172h156v594h505q337 0 517 -165.5t180 -498.5q0 -342 -199.5 -522t-544.5 -180h-458v600h-156zM453 209h112q232 0 350.5 127.5t118.5 365.5q0 211 -107 333t-317 122h-157v-385h290v-172h-290v-391z" />
<glyph unicode="&#xd1;" horiz-adv-x="1513" d="M150 0v1366h442l506 -1118v1118h268v-1366h-444l-504 1116v-1116h-268zM428 1495q5 97 58 170.5t147 73.5q59 0 152.5 -40t127.5 -40q36 0 56.5 24t25.5 60h133q-5 -94 -62 -168t-148 -74q-60 0 -145.5 39t-125.5 39q-35 0 -61.5 -26.5t-26.5 -57.5h-131z" />
<glyph unicode="&#xd2;" horiz-adv-x="1505" d="M82 682q0 210 77.5 368t230 247t362.5 89q320 0 495.5 -189.5t175.5 -514.5q0 -321 -176.5 -513t-494.5 -192q-164 0 -291 50q-185 76 -282 244.5t-97 410.5zM399 682q0 -197 76 -330q97 -164 277 -164q78 0 140 30t101.5 78.5t65.5 114t36.5 132.5t10.5 139t-10.5 139 t-36.5 132.5t-65.5 114t-101.5 78.5t-140 30q-77 0 -139 -30.5t-101 -79.5t-65.5 -115t-37 -132.5t-10.5 -136.5zM446 1761h283l148 -278h-201z" />
<glyph unicode="&#xd3;" horiz-adv-x="1505" d="M82 682q0 210 77.5 368t230 247t362.5 89q320 0 495.5 -189.5t175.5 -514.5q0 -321 -176.5 -513t-494.5 -192q-164 0 -291 50q-185 76 -282 244.5t-97 410.5zM399 682q0 -197 76 -330q97 -164 277 -164q78 0 140 30t101.5 78.5t65.5 114t36.5 132.5t10.5 139t-10.5 139 t-36.5 132.5t-65.5 114t-101.5 78.5t-140 30q-77 0 -139 -30.5t-101 -79.5t-65.5 -115t-37 -132.5t-10.5 -136.5zM629 1483l147 278h283l-228 -278h-202z" />
<glyph unicode="&#xd4;" horiz-adv-x="1505" d="M82 682q0 210 77.5 368t230 247t362.5 89q320 0 495.5 -189.5t175.5 -514.5q0 -321 -176.5 -513t-494.5 -192q-164 0 -291 50q-185 76 -282 244.5t-97 410.5zM399 682q0 -197 76 -330q97 -164 277 -164q78 0 140 30t101.5 78.5t65.5 114t36.5 132.5t10.5 139t-10.5 139 t-36.5 132.5t-65.5 114t-101.5 78.5t-140 30q-77 0 -139 -30.5t-101 -79.5t-65.5 -115t-37 -132.5t-10.5 -136.5zM422 1483l211 278h239l211 -278h-192l-139 176l-140 -176h-190z" />
<glyph unicode="&#xd5;" horiz-adv-x="1505" d="M82 682q0 210 77.5 368t230 247t362.5 89q320 0 495.5 -189.5t175.5 -514.5q0 -321 -176.5 -513t-494.5 -192q-164 0 -291 50q-185 76 -282 244.5t-97 410.5zM399 682q0 -197 76 -330q97 -164 277 -164q78 0 140 30t101.5 78.5t65.5 114t36.5 132.5t10.5 139t-10.5 139 t-36.5 132.5t-65.5 114t-101.5 78.5t-140 30q-77 0 -139 -30.5t-101 -79.5t-65.5 -115t-37 -132.5t-10.5 -136.5zM403 1495q5 97 58 170.5t147 73.5q59 0 153 -40t128 -40q36 0 56.5 24t25.5 60h133q-5 -94 -62.5 -168t-148.5 -74q-60 0 -145 39t-125 39q-35 0 -61.5 -26.5 t-26.5 -57.5h-132z" />
<glyph unicode="&#xd6;" horiz-adv-x="1505" d="M82 682q0 210 77.5 368t230 247t362.5 89q320 0 495.5 -189.5t175.5 -514.5q0 -321 -176.5 -513t-494.5 -192q-164 0 -291 50q-185 76 -282 244.5t-97 410.5zM399 682q0 -197 76 -330q97 -164 277 -164q78 0 140 30t101.5 78.5t65.5 114t36.5 132.5t10.5 139t-10.5 139 t-36.5 132.5t-65.5 114t-101.5 78.5t-140 30q-77 0 -139 -30.5t-101 -79.5t-65.5 -115t-37 -132.5t-10.5 -136.5zM446 1507v228h220v-228h-220zM840 1507v228h219v-228h-219z" />
<glyph unicode="&#xd7;" d="M92 162l365 364l-365 363l146 149l364 -366l367 364l145 -147l-364 -363l364 -364l-145 -148l-365 365l-366 -365z" />
<glyph unicode="&#xd8;" horiz-adv-x="1505" d="M57 49l156 170q-127 175 -127 463q0 210 77.5 368t230 247t362.5 89q269 0 434 -133l149 162l111 -100l-154 -166q131 -180 131 -467q0 -321 -176.5 -513t-494.5 -192q-269 0 -437 136l-153 -164zM401 682q0 -125 52 -223l548 606q-93 111 -245 111q-77 0 -139.5 -30.5 t-101.5 -79.5t-65.5 -115t-37.5 -132.5t-11 -136.5zM510 305q89 -117 246 -117q78 0 140 30t101.5 78.5t65.5 114t36.5 132.5t10.5 139q0 132 -51 231z" />
<glyph unicode="&#xd9;" horiz-adv-x="1425" d="M135 502v864h303v-854q0 -90 27 -158.5t90 -111.5t156 -43q139 0 208.5 85.5t69.5 225.5v856h303v-852q0 -130 -44 -233t-123 -169t-184.5 -100.5t-231.5 -34.5q-170 0 -297.5 57t-202 176.5t-74.5 291.5zM432 1761h283l147 -278h-200z" />
<glyph unicode="&#xda;" horiz-adv-x="1425" d="M135 502v864h303v-854q0 -90 27 -158.5t90 -111.5t156 -43q139 0 208.5 85.5t69.5 225.5v856h303v-852q0 -130 -44 -233t-123 -169t-184.5 -100.5t-231.5 -34.5q-170 0 -297.5 57t-202 176.5t-74.5 291.5zM565 1483l148 278h282l-227 -278h-203z" />
<glyph unicode="&#xdb;" horiz-adv-x="1425" d="M135 502v864h303v-854q0 -90 27 -158.5t90 -111.5t156 -43q139 0 208.5 85.5t69.5 225.5v856h303v-852q0 -130 -44 -233t-123 -169t-184.5 -100.5t-231.5 -34.5q-170 0 -297.5 57t-202 176.5t-74.5 291.5zM379 1483l211 278h239l211 -278h-192l-139 176l-140 -176h-190z " />
<glyph unicode="&#xdc;" horiz-adv-x="1425" d="M135 502v864h303v-854q0 -90 27 -158.5t90 -111.5t156 -43q139 0 208.5 85.5t69.5 225.5v856h303v-852q0 -130 -44 -233t-123 -169t-184.5 -100.5t-231.5 -34.5q-170 0 -297.5 57t-202 176.5t-74.5 291.5zM408 1507v228h219v-228h-219zM801 1507v228h219v-228h-219z" />
<glyph unicode="&#xdd;" horiz-adv-x="1288" d="M-14 1366h331l336 -631l332 631h320l-512 -856v-510h-304v510zM524 1483l148 278h282l-227 -278h-203z" />
<glyph unicode="&#xde;" horiz-adv-x="1234" d="M150 0v1366h296v-244h279q203 0 332 -113t129 -313q0 -106 -36 -189.5t-99.5 -137t-148.5 -81.5t-185 -28h-271v-260h-296zM444 465h107q56 0 98 4t88 18t75.5 38t49 67t19.5 102q0 78 -38 129.5t-97 73t-136 21.5h-166v-453z" />
<glyph unicode="&#xdf;" horiz-adv-x="1255" d="M129 0v977q0 112 33 206t98 164.5t168.5 110t237.5 39.5q97 0 178.5 -26t144.5 -77.5t98 -135t35 -191.5q0 -67 -10 -121q-55 -2 -91.5 -6t-72.5 -13t-56.5 -24.5t-33 -41.5t-12.5 -62q0 -35 19.5 -65.5t50 -56t68 -51t75 -56.5t68 -66.5t50 -86t19.5 -110.5 q0 -85 -33.5 -150.5t-90 -103.5t-124 -57t-141.5 -19q-125 0 -248 35l12 193q84 -41 179 -41q75 0 121.5 37t46.5 106q0 40 -18 73.5t-47 58.5t-64 49.5t-70 52.5t-64 60.5t-47 81.5t-18 108q0 111 73 177t185 79q6 31 6 73q0 88 -51 140.5t-146 52.5q-56 0 -100 -20 t-70.5 -52t-44 -77t-24 -90.5t-6.5 -96.5v-977h-283z" />
<glyph unicode="&#xe0;" horiz-adv-x="1122" d="M57 293q0 346 551 346q45 0 123 -4v35q0 106 -61.5 153t-182.5 47q-156 0 -301 -77l-12 188q168 68 354 68q476 0 476 -400v-407q0 -152 10 -242h-266l-7 152q-112 -175 -335 -175q-148 0 -248.5 84t-100.5 232zM266 1473h283l147 -279h-200zM328 305q0 -73 41.5 -112 t109.5 -39q122 0 187 84.5t65 207.5v43h-57q-346 0 -346 -184z" />
<glyph unicode="&#xe1;" horiz-adv-x="1122" d="M57 293q0 346 551 346q45 0 123 -4v35q0 106 -61.5 153t-182.5 47q-156 0 -301 -77l-12 188q168 68 354 68q476 0 476 -400v-407q0 -152 10 -242h-266l-7 152q-112 -175 -335 -175q-148 0 -248.5 84t-100.5 232zM328 305q0 -73 41.5 -112t109.5 -39q122 0 187 84.5 t65 207.5v43h-57q-346 0 -346 -184zM420 1194l147 279h283l-227 -279h-203z" />
<glyph unicode="&#xe2;" horiz-adv-x="1122" d="M57 293q0 346 551 346q45 0 123 -4v35q0 106 -61.5 153t-182.5 47q-156 0 -301 -77l-12 188q168 68 354 68q476 0 476 -400v-407q0 -152 10 -242h-266l-7 152q-112 -175 -335 -175q-148 0 -248.5 84t-100.5 232zM238 1194l211 279h239l211 -279h-192l-140 176l-139 -176 h-190zM328 305q0 -73 41.5 -112t109.5 -39q122 0 187 84.5t65 207.5v43h-57q-346 0 -346 -184z" />
<glyph unicode="&#xe3;" horiz-adv-x="1122" d="M57 293q0 346 551 346q45 0 123 -4v35q0 106 -61.5 153t-182.5 47q-156 0 -301 -77l-12 188q168 68 354 68q476 0 476 -400v-407q0 -152 10 -242h-266l-7 152q-112 -175 -335 -175q-148 0 -248.5 84t-100.5 232zM225 1206q5 97 58 170.5t147 73.5q59 0 153 -40t128 -40 q36 0 56.5 24t25.5 60h133q-5 -95 -62 -168.5t-149 -73.5q-60 0 -145.5 39t-125.5 39q-35 0 -61.5 -26.5t-26.5 -57.5h-131zM328 305q0 -73 41.5 -112t109.5 -39q122 0 187 84.5t65 207.5v43h-57q-346 0 -346 -184z" />
<glyph unicode="&#xe4;" horiz-adv-x="1122" d="M57 293q0 346 551 346q45 0 123 -4v35q0 106 -61.5 153t-182.5 47q-156 0 -301 -77l-12 188q168 68 354 68q476 0 476 -400v-407q0 -152 10 -242h-266l-7 152q-112 -175 -335 -175q-148 0 -248.5 84t-100.5 232zM260 1219v227h219v-227h-219zM328 305q0 -73 41.5 -112 t109.5 -39q122 0 187 84.5t65 207.5v43h-57q-346 0 -346 -184zM653 1219v227h219v-227h-219z" />
<glyph unicode="&#xe5;" horiz-adv-x="1122" d="M57 293q0 346 551 346q45 0 123 -4v35q0 106 -61.5 153t-182.5 47q-156 0 -301 -77l-12 188q168 68 354 68q476 0 476 -400v-407q0 -152 10 -242h-266l-7 152q-112 -175 -335 -175q-148 0 -248.5 84t-100.5 232zM328 305q0 -73 41.5 -112t109.5 -39q122 0 187 84.5 t65 207.5v43h-57q-346 0 -346 -184zM348 1333q0 86 60 144.5t147 58.5q85 0 146 -58.5t61 -144.5q0 -85 -61 -145t-146 -60q-80 0 -145 58q-62 62 -62 147zM444 1333q0 -46 33 -78t78 -32q47 0 79 31.5t32 78.5q0 45 -32 77t-79 32t-79 -32t-32 -77z" />
<glyph unicode="&#xe6;" horiz-adv-x="1722" d="M55 281q0 79 30 139.5t79 96.5t120 58.5t143 30.5t159 8q92 0 131 -2v60q0 100 -61.5 150t-166.5 50q-173 0 -309 -81l-12 192q179 66 350 66q263 0 348 -164q70 82 150.5 123t185.5 41q121 0 210 -38.5t142 -110t78 -166t25 -214.5v-63h-686q5 -137 91 -214t247 -77 q75 0 151.5 18t130.5 49l13 -196q-62 -26 -153 -43t-175 -17q-154 0 -269 44t-188 153q-125 -197 -399 -197q-160 0 -262.5 78t-102.5 226zM319 297q0 -70 46.5 -107.5t123.5 -37.5q112 0 170 73.5t58 192.5v53h-45q-51 0 -89 -2t-81.5 -8t-74 -18t-56.5 -30.5t-39 -48 t-13 -67.5zM971 612h432q0 52 -9.5 96.5t-30.5 84.5t-61 63t-96 23q-109 0 -169.5 -79t-65.5 -188z" />
<glyph unicode="&#xe7;" horiz-adv-x="974" d="M70 518q0 163 75.5 285t204.5 184t293 62q149 0 272 -37l-12 -201q-91 45 -203 45q-154 0 -240.5 -93.5t-86.5 -244.5q0 -149 85.5 -245.5t239.5 -96.5q114 0 209 41l11 -201q-116 -39 -279 -39l-51 -81q21 8 74 8q68 0 108.5 -35t40.5 -100q0 -78 -65 -120t-181 -42 q-114 0 -215 41l39 94q106 -37 168 -37q40 0 68 14.5t28 42.5t-24 44t-56 16q-43 0 -84 -15l-40 52l81 127q-213 30 -336.5 169t-123.5 363z" />
<glyph unicode="&#xe8;" horiz-adv-x="1095" d="M70 518q0 231 142.5 381t367.5 150q121 0 209.5 -38.5t141 -110t77 -166t24.5 -214.5v-67h-686q5 -136 91 -211.5t247 -75.5q75 0 152 18t131 49l12 -196q-62 -26 -153 -43t-175 -17q-282 0 -431.5 141t-149.5 400zM270 1473h283l147 -279h-200zM346 612h432q0 53 -9 97 t-30 84t-61 63t-96 23q-109 0 -170 -79t-66 -188z" />
<glyph unicode="&#xe9;" horiz-adv-x="1095" d="M70 518q0 231 142.5 381t367.5 150q121 0 209.5 -38.5t141 -110t77 -166t24.5 -214.5v-67h-686q5 -136 91 -211.5t247 -75.5q75 0 152 18t131 49l12 -196q-62 -26 -153 -43t-175 -17q-282 0 -431.5 141t-149.5 400zM346 612h432q0 53 -9 97t-30 84t-61 63t-96 23 q-109 0 -170 -79t-66 -188zM434 1194l148 279h282l-227 -279h-203z" />
<glyph unicode="&#xea;" horiz-adv-x="1095" d="M70 518q0 231 142.5 381t367.5 150q121 0 209.5 -38.5t141 -110t77 -166t24.5 -214.5v-67h-686q5 -136 91 -211.5t247 -75.5q75 0 152 18t131 49l12 -196q-62 -26 -153 -43t-175 -17q-282 0 -431.5 141t-149.5 400zM236 1194l210 279h240l211 -279h-192l-140 176 l-139 -176h-190zM346 612h432q0 53 -9 97t-30 84t-61 63t-96 23q-109 0 -170 -79t-66 -188z" />
<glyph unicode="&#xeb;" horiz-adv-x="1095" d="M70 518q0 231 142.5 381t367.5 150q121 0 209.5 -38.5t141 -110t77 -166t24.5 -214.5v-67h-686q5 -136 91 -211.5t247 -75.5q75 0 152 18t131 49l12 -196q-62 -26 -153 -43t-175 -17q-282 0 -431.5 141t-149.5 400zM260 1219v227h219v-227h-219zM346 612h432q0 53 -9 97 t-30 84t-61 63t-96 23q-109 0 -170 -79t-66 -188zM653 1219v227h219v-227h-219z" />
<glyph unicode="&#xec;" horiz-adv-x="538" d="M-31 1473h283l147 -279h-200zM129 0v1028h283v-1028h-283z" />
<glyph unicode="&#xed;" horiz-adv-x="538" d="M129 0v1028h283v-1028h-283zM129 1194l147 279h283l-227 -279h-203z" />
<glyph unicode="&#xee;" horiz-adv-x="538" d="M-61 1194l211 279h239l211 -279h-192l-140 176l-139 -176h-190zM129 0v1028h283v-1028h-283z" />
<glyph unicode="&#xef;" horiz-adv-x="538" d="M-37 1219v227h219v-227h-219zM129 0v1028h283v-1028h-283zM356 1219v227h219v-227h-219z" />
<glyph unicode="&#xf0;" horiz-adv-x="1214" d="M70 510q0 108 31 201.5t89 163t149 109.5t204 40q100 0 173 -35t142 -112q-61 209 -235 333l-246 -125l-96 95l204 104q-89 53 -225 82l121 131q133 -21 305 -117l223 117l97 -94l-183 -94q324 -249 324 -740q0 -267 -144 -429.5t-399 -162.5q-253 0 -393.5 139 t-140.5 394zM373 510q0 -140 51 -236q64 -104 184 -104q63 0 110 28.5t73.5 77.5t39.5 107.5t13 126.5q0 62 -12 116t-37.5 101.5t-73.5 75.5t-113 28q-62 0 -109.5 -28t-74 -75.5t-39 -102t-12.5 -115.5z" />
<glyph unicode="&#xf1;" horiz-adv-x="1198" d="M119 1028h266l4 -172q50 96 136.5 144.5t197.5 48.5q348 0 348 -383v-666h-283v600q0 42 -3 73.5t-13.5 66t-28.5 56t-50 36t-77 14.5q-57 0 -98.5 -24t-63.5 -65.5t-32 -88t-10 -101.5v-567h-283v799q0 134 -10 229zM256 1206q5 97 58 170.5t147 73.5q59 0 152.5 -40 t127.5 -40q36 0 56.5 24t25.5 60h133q-5 -95 -62 -168.5t-149 -73.5q-60 0 -145 39t-125 39q-35 0 -61.5 -26.5t-26.5 -57.5h-131z" />
<glyph unicode="&#xf2;" horiz-adv-x="1214" d="M70 518q0 248 148.5 389.5t389.5 141.5q253 0 396 -138.5t143 -392.5q0 -250 -144 -395.5t-395 -145.5q-126 0 -227 37q-151 59 -231 188.5t-80 315.5zM307 1473h283l147 -279h-200zM373 518q0 -141 51 -237q66 -111 184 -111q52 0 93.5 19.5t67.5 52.5t43.5 78.5 t24.5 94t7 103.5q0 64 -11.5 120.5t-37 107t-73.5 80.5t-114 30q-64 0 -112 -30t-73.5 -81t-37.5 -107.5t-12 -119.5z" />
<glyph unicode="&#xf3;" horiz-adv-x="1214" d="M70 518q0 248 148.5 389.5t389.5 141.5q253 0 396 -138.5t143 -392.5q0 -250 -144 -395.5t-395 -145.5q-126 0 -227 37q-151 59 -231 188.5t-80 315.5zM373 518q0 -141 51 -237q66 -111 184 -111q52 0 93.5 19.5t67.5 52.5t43.5 78.5t24.5 94t7 103.5q0 64 -11.5 120.5 t-37 107t-73.5 80.5t-114 30q-64 0 -112 -30t-73.5 -81t-37.5 -107.5t-12 -119.5zM473 1194l148 279h282l-227 -279h-203z" />
<glyph unicode="&#xf4;" horiz-adv-x="1214" d="M70 518q0 248 148.5 389.5t389.5 141.5q253 0 396 -138.5t143 -392.5q0 -250 -144 -395.5t-395 -145.5q-126 0 -227 37q-151 59 -231 188.5t-80 315.5zM276 1194l211 279h240l211 -279h-193l-139 176l-139 -176h-191zM373 518q0 -141 51 -237q66 -111 184 -111 q52 0 93.5 19.5t67.5 52.5t43.5 78.5t24.5 94t7 103.5q0 64 -11.5 120.5t-37 107t-73.5 80.5t-114 30q-64 0 -112 -30t-73.5 -81t-37.5 -107.5t-12 -119.5z" />
<glyph unicode="&#xf5;" horiz-adv-x="1214" d="M70 518q0 248 148.5 389.5t389.5 141.5q253 0 396 -138.5t143 -392.5q0 -250 -144 -395.5t-395 -145.5q-126 0 -227 37q-151 59 -231 188.5t-80 315.5zM258 1206q5 97 58 170.5t147 73.5q59 0 152.5 -40t127.5 -40q36 0 56.5 24t25.5 60h133q-5 -95 -61.5 -168.5 t-148.5 -73.5q-60 0 -145.5 39t-125.5 39q-35 0 -61.5 -26.5t-26.5 -57.5h-131zM373 518q0 -141 51 -237q66 -111 184 -111q52 0 93.5 19.5t67.5 52.5t43.5 78.5t24.5 94t7 103.5q0 64 -11.5 120.5t-37 107t-73.5 80.5t-114 30q-64 0 -112 -30t-73.5 -81t-37.5 -107.5 t-12 -119.5z" />
<glyph unicode="&#xf6;" horiz-adv-x="1214" d="M70 518q0 248 148.5 389.5t389.5 141.5q253 0 396 -138.5t143 -392.5q0 -250 -144 -395.5t-395 -145.5q-126 0 -227 37q-151 59 -231 188.5t-80 315.5zM301 1219v227h219v-227h-219zM373 518q0 -141 51 -237q66 -111 184 -111q52 0 93.5 19.5t67.5 52.5t43.5 78.5 t24.5 94t7 103.5q0 64 -11.5 120.5t-37 107t-73.5 80.5t-114 30q-64 0 -112 -30t-73.5 -81t-37.5 -107.5t-12 -119.5zM694 1219v227h219v-227h-219z" />
<glyph unicode="&#xf7;" d="M70 420v209h1067v-209h-1067zM459 135q0 60 41.5 103t101.5 43t103 -43t43 -103t-43 -102.5t-103 -42.5t-101.5 42.5t-41.5 102.5zM459 913q0 60 41.5 104t101.5 44t103 -44t43 -104t-43 -102.5t-103 -42.5t-101.5 42.5t-41.5 102.5z" />
<glyph unicode="&#xf8;" horiz-adv-x="1214" d="M51 27l129 139q-108 138 -108 352q0 249 146.5 390t391.5 141q206 0 338 -99l123 131l94 -82l-125 -131q107 -122 107 -350q0 -250 -143.5 -395.5t-393.5 -145.5q-202 0 -338 105l-127 -135zM367 520q0 -112 22 -172l391 430q-57 78 -170 78q-65 0 -113 -26.5 t-75.5 -73.5t-41 -106t-13.5 -130zM434 256q56 -86 176 -86q124 0 183 95t59 255q0 94 -25 164z" />
<glyph unicode="&#xf9;" horiz-adv-x="1191" d="M125 365v663h283v-600q0 -54 5.5 -91.5t21.5 -76t52 -58.5t91 -20q57 0 98.5 24t63.5 66t32 89t10 102v565h283v-797q0 -136 10 -231h-266l-6 172q-50 -97 -135.5 -146t-196.5 -49q-346 0 -346 388zM305 1473h283l147 -279h-200z" />
<glyph unicode="&#xfa;" horiz-adv-x="1191" d="M125 365v663h283v-600q0 -54 5.5 -91.5t21.5 -76t52 -58.5t91 -20q57 0 98.5 24t63.5 66t32 89t10 102v565h283v-797q0 -136 10 -231h-266l-6 172q-50 -97 -135.5 -146t-196.5 -49q-346 0 -346 388zM453 1194l147 279h283l-228 -279h-202z" />
<glyph unicode="&#xfb;" horiz-adv-x="1191" d="M125 365v663h283v-600q0 -54 5.5 -91.5t21.5 -76t52 -58.5t91 -20q57 0 98.5 24t63.5 66t32 89t10 102v565h283v-797q0 -136 10 -231h-266l-6 172q-50 -97 -135.5 -146t-196.5 -49q-346 0 -346 388zM266 1194l211 279h240l211 -279h-193l-139 176l-139 -176h-191z" />
<glyph unicode="&#xfc;" horiz-adv-x="1191" d="M125 365v663h283v-600q0 -54 5.5 -91.5t21.5 -76t52 -58.5t91 -20q57 0 98.5 24t63.5 66t32 89t10 102v565h283v-797q0 -136 10 -231h-266l-6 172q-50 -97 -135.5 -146t-196.5 -49q-346 0 -346 388zM291 1219v227h219v-227h-219zM684 1219v227h219v-227h-219z" />
<glyph unicode="&#xfd;" horiz-adv-x="1030" d="M12 1028h299l217 -784l215 784h279l-381 -1145q-61 -177 -147 -262.5t-234 -85.5q-70 0 -199 25l13 194q56 -20 110 -20q69 0 110 36.5t66 108.5l27 84zM406 1194l147 279h283l-228 -279h-202z" />
<glyph unicode="&#xfe;" horiz-adv-x="1218" d="M129 -442v1919h283v-619q37 90 123 140.5t188 50.5q91 0 163.5 -29t121 -78.5t81 -118.5t46.5 -144.5t14 -160.5q0 -86 -14.5 -162.5t-47.5 -146.5t-81.5 -121t-122.5 -81t-166 -30q-101 0 -184.5 49.5t-120.5 139.5v-608h-283zM403 518q0 -130 46 -225q59 -117 176 -117 q53 0 94 22t64.5 55.5t38 81t19.5 91t5 92.5q0 332 -219 332q-51 0 -91.5 -21.5t-64.5 -54.5t-40 -78.5t-22 -88.5t-6 -89z" />
<glyph unicode="&#xff;" horiz-adv-x="1030" d="M12 1028h299l217 -784l215 784h279l-381 -1145q-61 -177 -147 -262.5t-234 -85.5q-70 0 -199 25l13 194q56 -20 110 -20q69 0 110 36.5t66 108.5l27 84zM219 1219v227h219v-227h-219zM612 1219v227h219v-227h-219z" />
<glyph unicode="&#x152;" horiz-adv-x="1931" d="M82 682q0 210 77.5 368t230 247t362.5 89q54 0 164.5 -10t152.5 -10h760v-209h-567v-360h538v-205h-538v-383h585v-209h-778q-44 0 -153 -11.5t-164 -11.5q-215 0 -367 88t-227.5 245.5t-75.5 371.5zM397 682q0 -69 11 -136t38 -133t66.5 -115t101.5 -79.5t138 -30.5 q138 0 219 23v942q-84 23 -219 23q-77 0 -139.5 -30.5t-101.5 -79.5t-65.5 -115t-37.5 -132.5t-11 -136.5z" />
<glyph unicode="&#x153;" horiz-adv-x="1855" d="M70 518q0 235 140.5 383t371.5 148q260 0 395 -193q134 193 358 193q97 0 174 -26t129 -72.5t86.5 -113.5t50 -146.5t15.5 -174.5v-63h-686q5 -136 91 -211.5t247 -75.5q75 0 151.5 18t130.5 49l13 -196q-62 -26 -153 -43t-175 -17q-307 0 -436 191q-63 -93 -164 -142 t-229 -49q-240 0 -375 150t-135 391zM356 518q0 -139 52 -237q66 -111 184 -111q64 0 111.5 29.5t74 80t39 110t12.5 128.5q0 64 -11.5 120.5t-37.5 107t-74 80.5t-114 30q-64 0 -112 -30t-74 -81t-38 -107.5t-12 -119.5zM1104 612h432q0 52 -9.5 96.5t-30.5 84.5t-61 63 t-96 23q-109 0 -169.5 -79t-65.5 -188z" />
<glyph unicode="&#x178;" horiz-adv-x="1288" d="M-14 1366h331l336 -631l332 631h320l-512 -856v-510h-304v510zM346 1507v228h219v-228h-219zM739 1507v228h219v-228h-219z" />
<glyph unicode="&#x2c6;" horiz-adv-x="538" d="M-61 1194l211 279h239l211 -279h-192l-140 176l-139 -176h-190z" />
<glyph unicode="&#x2dc;" horiz-adv-x="538" d="M-80 1206q5 97 58 170.5t147 73.5q59 0 153 -40t128 -40q36 0 56 24t25 60h134q-5 -95 -62 -168.5t-149 -73.5q-60 0 -145.5 39t-125.5 39q-35 0 -61.5 -26.5t-26.5 -57.5h-131z" />
<glyph unicode="&#x2000;" horiz-adv-x="912" />
<glyph unicode="&#x2001;" horiz-adv-x="1825" />
<glyph unicode="&#x2002;" horiz-adv-x="912" />
<glyph unicode="&#x2003;" horiz-adv-x="1825" />
<glyph unicode="&#x2004;" horiz-adv-x="608" />
<glyph unicode="&#x2005;" horiz-adv-x="456" />
<glyph unicode="&#x2006;" horiz-adv-x="304" />
<glyph unicode="&#x2007;" horiz-adv-x="304" />
<glyph unicode="&#x2008;" horiz-adv-x="228" />
<glyph unicode="&#x2009;" horiz-adv-x="365" />
<glyph unicode="&#x200a;" horiz-adv-x="101" />
<glyph unicode="&#x2010;" horiz-adv-x="681" d="M84 528v213h516v-213h-516z" />
<glyph unicode="&#x2011;" horiz-adv-x="681" d="M84 528v213h516v-213h-516z" />
<glyph unicode="&#x2012;" horiz-adv-x="681" d="M84 528v213h516v-213h-516z" />
<glyph unicode="&#x2013;" horiz-adv-x="1024" d="M0 543v184h1024v-184h-1024z" />
<glyph unicode="&#x2014;" horiz-adv-x="2048" d="M0 543v184h2048v-184h-2048z" />
<glyph unicode="&#x2018;" horiz-adv-x="602" d="M92 969l193 508h194l-121 -508h-266z" />
<glyph unicode="&#x2019;" horiz-adv-x="602" d="M123 969l121 508h266l-193 -508h-194z" />
<glyph unicode="&#x201a;" horiz-adv-x="602" d="M61 -262l121 508h267l-193 -508h-195z" />
<glyph unicode="&#x201c;" horiz-adv-x="1015" d="M92 969l193 508h194l-121 -508h-266zM506 969l192 508h195l-121 -508h-266z" />
<glyph unicode="&#x201d;" horiz-adv-x="1015" d="M123 969l121 508h266l-193 -508h-194zM537 969l118 508h269l-193 -508h-194z" />
<glyph unicode="&#x201e;" horiz-adv-x="1015" d="M61 -260l121 508h267l-193 -508h-195zM475 -260l121 508h266l-192 -508h-195z" />
<glyph unicode="&#x2022;" d="M317 635q0 119 83.5 202t201.5 83q119 0 203 -83.5t84 -201.5t-84 -201.5t-203 -83.5q-56 0 -113 23q-77 33 -124.5 103t-47.5 159z" />
<glyph unicode="&#x2026;" horiz-adv-x="2048" d="M205 0v246h274v-246h-274zM889 0v246h274v-246h-274zM1571 0v246h274v-246h-274z" />
<glyph unicode="&#x202f;" horiz-adv-x="365" />
<glyph unicode="&#x2039;" horiz-adv-x="612" d="M45 526l272 410h230l-260 -410l260 -413h-230z" />
<glyph unicode="&#x203a;" horiz-adv-x="612" d="M66 113l260 411l-260 412h231l270 -412l-270 -411h-231z" />
<glyph unicode="&#x205f;" horiz-adv-x="456" />
<glyph unicode="&#x20ac;" d="M63 483l31 125h135q-4 50 -4 76t4 72h-163l30 125h152q50 224 216.5 364.5t395.5 140.5q152 0 291 -51l-51 -209q-85 39 -193 39q-130 0 -220.5 -78.5t-129.5 -205.5h494l-31 -125h-494q-4 -50 -4 -74t4 -74h465l-30 -125h-406q37 -128 126 -204t220 -76q123 0 201 41 l12 -224q-91 -43 -254 -43q-241 0 -402.5 134.5t-211.5 371.5h-183z" />
<glyph unicode="&#x2122;" horiz-adv-x="2062" d="M12 1212v154h774v-154h-282v-667h-211v667h-281zM895 545v821h315l226 -610l215 610h317v-821h-196v698l-252 -698h-185l-254 698v-698h-186z" />
<glyph unicode="&#xe000;" horiz-adv-x="1024" d="M0 0v1024h1024v-1024h-1024z" />
</font>
</defs>
</svg>
